G75*
G70*
%OFA0B0*%
%FSLAX24Y24*%
%IPPOS*%
%LPD*%
%AMOC8*
5,1,8,0,0,1.08239X$1,22.5*
%
%ADD10C,0.0000*%
%ADD11C,0.0740*%
%ADD12R,0.0740X0.0740*%
%ADD13C,0.0600*%
%ADD14C,0.2300*%
%ADD15OC8,0.0640*%
%ADD16OC8,0.0600*%
%ADD17R,0.0650X0.0650*%
%ADD18C,0.0650*%
%ADD19C,0.0120*%
%ADD20C,0.0440*%
%ADD21C,0.0240*%
%ADD22C,0.0476*%
D10*
X005721Y015221D02*
X025721Y015221D01*
X025765Y015219D01*
X025808Y015213D01*
X025850Y015204D01*
X025892Y015191D01*
X025932Y015174D01*
X025971Y015154D01*
X026008Y015131D01*
X026042Y015104D01*
X026075Y015075D01*
X026104Y015042D01*
X026131Y015008D01*
X026154Y014971D01*
X026174Y014932D01*
X026191Y014892D01*
X026204Y014850D01*
X026213Y014808D01*
X026219Y014765D01*
X026221Y014721D01*
X026221Y005721D01*
X026223Y005677D01*
X026229Y005634D01*
X026238Y005592D01*
X026251Y005550D01*
X026268Y005510D01*
X026288Y005471D01*
X026311Y005434D01*
X026338Y005400D01*
X026367Y005367D01*
X026400Y005338D01*
X026434Y005311D01*
X026471Y005288D01*
X026510Y005268D01*
X026550Y005251D01*
X026592Y005238D01*
X026634Y005229D01*
X026677Y005223D01*
X026721Y005221D01*
X042471Y005221D01*
X042554Y005223D01*
X042637Y005229D01*
X042720Y005239D01*
X042802Y005253D01*
X042884Y005270D01*
X042964Y005292D01*
X043043Y005317D01*
X043121Y005346D01*
X043198Y005379D01*
X043273Y005416D01*
X043346Y005455D01*
X043417Y005499D01*
X043486Y005545D01*
X043553Y005595D01*
X043617Y005648D01*
X043679Y005704D01*
X043738Y005763D01*
X043794Y005825D01*
X043847Y005889D01*
X043897Y005956D01*
X043943Y006025D01*
X043987Y006096D01*
X044026Y006169D01*
X044063Y006244D01*
X044096Y006321D01*
X044125Y006399D01*
X044150Y006478D01*
X044172Y006558D01*
X044189Y006640D01*
X044203Y006722D01*
X044213Y006805D01*
X044219Y006888D01*
X044221Y006971D01*
X044221Y034471D01*
X044219Y034554D01*
X044213Y034637D01*
X044203Y034720D01*
X044189Y034802D01*
X044172Y034884D01*
X044150Y034964D01*
X044125Y035043D01*
X044096Y035121D01*
X044063Y035198D01*
X044026Y035273D01*
X043987Y035346D01*
X043943Y035417D01*
X043897Y035486D01*
X043847Y035553D01*
X043794Y035617D01*
X043738Y035679D01*
X043679Y035738D01*
X043617Y035794D01*
X043553Y035847D01*
X043486Y035897D01*
X043417Y035943D01*
X043346Y035987D01*
X043273Y036026D01*
X043198Y036063D01*
X043121Y036096D01*
X043043Y036125D01*
X042964Y036150D01*
X042884Y036172D01*
X042802Y036189D01*
X042720Y036203D01*
X042637Y036213D01*
X042554Y036219D01*
X042471Y036221D01*
X006971Y036221D01*
X006888Y036219D01*
X006805Y036213D01*
X006722Y036203D01*
X006640Y036189D01*
X006558Y036172D01*
X006478Y036150D01*
X006399Y036125D01*
X006321Y036096D01*
X006244Y036063D01*
X006169Y036026D01*
X006096Y035987D01*
X006025Y035943D01*
X005956Y035897D01*
X005889Y035847D01*
X005825Y035794D01*
X005763Y035738D01*
X005704Y035679D01*
X005648Y035617D01*
X005595Y035553D01*
X005545Y035486D01*
X005499Y035417D01*
X005455Y035346D01*
X005416Y035273D01*
X005379Y035198D01*
X005346Y035121D01*
X005317Y035043D01*
X005292Y034964D01*
X005270Y034884D01*
X005253Y034802D01*
X005239Y034720D01*
X005229Y034637D01*
X005223Y034554D01*
X005221Y034471D01*
X005221Y015721D01*
X005223Y015677D01*
X005229Y015634D01*
X005238Y015592D01*
X005251Y015550D01*
X005268Y015510D01*
X005288Y015471D01*
X005311Y015434D01*
X005338Y015400D01*
X005367Y015367D01*
X005400Y015338D01*
X005434Y015311D01*
X005471Y015288D01*
X005510Y015268D01*
X005550Y015251D01*
X005592Y015238D01*
X005634Y015229D01*
X005677Y015223D01*
X005721Y015221D01*
X007130Y020207D02*
X007132Y020238D01*
X007138Y020269D01*
X007147Y020299D01*
X007160Y020328D01*
X007177Y020355D01*
X007197Y020379D01*
X007219Y020401D01*
X007245Y020420D01*
X007272Y020436D01*
X007301Y020448D01*
X007331Y020457D01*
X007362Y020462D01*
X007394Y020463D01*
X007425Y020460D01*
X007456Y020453D01*
X007486Y020443D01*
X007514Y020429D01*
X007540Y020411D01*
X007564Y020391D01*
X007585Y020367D01*
X007604Y020342D01*
X007619Y020314D01*
X007630Y020285D01*
X007638Y020254D01*
X007642Y020223D01*
X007642Y020191D01*
X007638Y020160D01*
X007630Y020129D01*
X007619Y020100D01*
X007604Y020072D01*
X007585Y020047D01*
X007564Y020023D01*
X007540Y020003D01*
X007514Y019985D01*
X007486Y019971D01*
X007456Y019961D01*
X007425Y019954D01*
X007394Y019951D01*
X007362Y019952D01*
X007331Y019957D01*
X007301Y019966D01*
X007272Y019978D01*
X007245Y019994D01*
X007219Y020013D01*
X007197Y020035D01*
X007177Y020059D01*
X007160Y020086D01*
X007147Y020115D01*
X007138Y020145D01*
X007132Y020176D01*
X007130Y020207D01*
X007032Y029735D02*
X007034Y029772D01*
X007040Y029809D01*
X007049Y029844D01*
X007063Y029879D01*
X007079Y029912D01*
X007100Y029943D01*
X007123Y029972D01*
X007149Y029998D01*
X007178Y030021D01*
X007209Y030042D01*
X007242Y030058D01*
X007277Y030072D01*
X007312Y030081D01*
X007349Y030087D01*
X007386Y030089D01*
X007423Y030087D01*
X007460Y030081D01*
X007495Y030072D01*
X007530Y030058D01*
X007563Y030042D01*
X007594Y030021D01*
X007623Y029998D01*
X007649Y029972D01*
X007672Y029943D01*
X007693Y029912D01*
X007709Y029879D01*
X007723Y029844D01*
X007732Y029809D01*
X007738Y029772D01*
X007740Y029735D01*
X007738Y029698D01*
X007732Y029661D01*
X007723Y029626D01*
X007709Y029591D01*
X007693Y029558D01*
X007672Y029527D01*
X007649Y029498D01*
X007623Y029472D01*
X007594Y029449D01*
X007563Y029428D01*
X007530Y029412D01*
X007495Y029398D01*
X007460Y029389D01*
X007423Y029383D01*
X007386Y029381D01*
X007349Y029383D01*
X007312Y029389D01*
X007277Y029398D01*
X007242Y029412D01*
X007209Y029428D01*
X007178Y029449D01*
X007149Y029472D01*
X007123Y029498D01*
X007100Y029527D01*
X007079Y029558D01*
X007063Y029591D01*
X007049Y029626D01*
X007040Y029661D01*
X007034Y029698D01*
X007032Y029735D01*
D11*
X006721Y032221D03*
X007721Y032221D03*
X008721Y032221D03*
X009721Y032221D03*
X010721Y032221D03*
X011721Y032221D03*
X014621Y035221D03*
X015621Y035221D03*
X016621Y035221D03*
X017621Y035221D03*
X018621Y035221D03*
X019621Y035221D03*
X020621Y035221D03*
X021621Y035221D03*
X023221Y035221D03*
X024221Y035221D03*
X025221Y035221D03*
X026221Y035221D03*
X027221Y035221D03*
X028221Y035221D03*
X029221Y035221D03*
X030221Y035221D03*
X032221Y035221D03*
X033221Y035221D03*
X034221Y035221D03*
X035221Y035221D03*
X036221Y035221D03*
X037221Y035221D03*
X038221Y035221D03*
X039221Y035221D03*
X034971Y033221D03*
X034971Y032221D03*
X033721Y032221D03*
X033721Y033221D03*
X031221Y027221D03*
X031221Y026221D03*
X031221Y025221D03*
X030221Y025221D03*
X030221Y026221D03*
X030221Y022721D03*
X031221Y022721D03*
X029221Y022721D03*
X026221Y018721D03*
X026221Y017721D03*
X026221Y016221D03*
X025221Y016221D03*
X027221Y016221D03*
X028221Y016221D03*
X029221Y016221D03*
X030221Y016221D03*
X031221Y016221D03*
X032221Y016221D03*
X032721Y014721D03*
X033721Y014721D03*
X034721Y014721D03*
X035721Y014721D03*
X036721Y014721D03*
X037721Y014721D03*
X038221Y016221D03*
X039221Y016221D03*
X040221Y016221D03*
X041221Y016221D03*
X037221Y016221D03*
X036221Y016221D03*
X035221Y016221D03*
X034221Y016221D03*
X028721Y012721D03*
X028221Y011971D03*
X027721Y012721D03*
X027721Y010221D03*
X028221Y009471D03*
X028721Y010221D03*
X028221Y007721D03*
X028221Y006721D03*
X032721Y005721D03*
X033721Y005721D03*
X034721Y005721D03*
X035721Y005721D03*
X036721Y005721D03*
X037721Y005721D03*
X038721Y005721D03*
X023221Y016221D03*
X022221Y016221D03*
X021221Y016221D03*
X020221Y016221D03*
X019221Y016221D03*
X018221Y016221D03*
X018221Y018221D03*
X019221Y018221D03*
X021221Y018221D03*
X022221Y018221D03*
X023221Y018221D03*
X017221Y018221D03*
X017721Y032221D03*
X018971Y032221D03*
X018971Y033221D03*
X017721Y033221D03*
X016471Y033221D03*
X016471Y032221D03*
X020471Y032221D03*
X020471Y033221D03*
X021721Y033221D03*
X021721Y032221D03*
X025471Y032221D03*
X025471Y033221D03*
D12*
X030221Y027221D03*
X038721Y014721D03*
X012721Y032221D03*
D13*
X036008Y030551D03*
X036796Y030551D03*
X037583Y030551D03*
X038370Y030551D03*
X039158Y030551D03*
X039945Y030551D03*
X040733Y030551D03*
X041520Y030551D03*
X042307Y030551D03*
X043095Y030551D03*
X043095Y021890D03*
X042307Y021890D03*
X041520Y021890D03*
X040733Y021890D03*
X039945Y021890D03*
X039158Y021890D03*
X038370Y021890D03*
X037583Y021890D03*
X036796Y021890D03*
X036008Y021890D03*
D14*
X042471Y034471D03*
X042471Y006971D03*
X006971Y034471D03*
D15*
X026721Y033221D03*
X027721Y033221D03*
X028721Y033221D03*
X029721Y033221D03*
X030721Y033221D03*
X031721Y033221D03*
X031721Y032221D03*
X031721Y031221D03*
X030721Y031221D03*
X030721Y032221D03*
X029721Y032221D03*
X029721Y031221D03*
X028721Y031221D03*
X028721Y032221D03*
X027721Y032221D03*
X027721Y031221D03*
X026721Y031221D03*
X026721Y032221D03*
D16*
X033721Y011221D03*
X034721Y011221D03*
X035721Y011221D03*
X036721Y011221D03*
X037721Y011221D03*
X037721Y010221D03*
X036721Y010221D03*
X035721Y010221D03*
X034721Y010221D03*
X033721Y010221D03*
D17*
X039971Y031971D03*
X010721Y034221D03*
D18*
X009721Y034221D03*
X039971Y032971D03*
D19*
X040721Y032971D02*
X039471Y034221D01*
X023721Y034221D01*
X021721Y032221D01*
X021471Y030971D02*
X012971Y030971D01*
X011721Y032221D01*
X012971Y032971D02*
X008471Y032971D01*
X007721Y032221D01*
X014721Y025221D01*
X019221Y025221D01*
X022721Y021721D01*
X021971Y021721D02*
X017721Y021721D01*
X017221Y020721D02*
X005971Y031971D01*
X005971Y032971D01*
X007971Y032971D01*
X008471Y033471D01*
X012471Y033471D01*
X013471Y034471D01*
X025471Y034471D01*
X026221Y035221D01*
X028221Y033721D02*
X028221Y032721D01*
X027721Y032221D01*
X027721Y031221D02*
X026721Y031221D01*
X024721Y030971D02*
X024221Y031471D01*
X020221Y031471D01*
X019721Y031971D01*
X019721Y033971D01*
X013721Y033971D01*
X013221Y033471D01*
X012971Y032971D02*
X014471Y031471D01*
X016471Y031471D01*
X019971Y029971D02*
X020471Y029971D01*
X020721Y029721D01*
X031721Y029721D01*
X031971Y029471D01*
X030221Y027221D02*
X029721Y026721D01*
X018971Y026721D01*
X017971Y027721D01*
X016221Y026471D02*
X012721Y029971D01*
X011971Y029971D01*
X009721Y032221D01*
X016221Y025721D02*
X016471Y025471D01*
X021971Y025471D01*
X022221Y025721D01*
X029721Y025721D01*
X030221Y026221D01*
X030221Y025221D02*
X026471Y025221D01*
X026221Y023971D02*
X034971Y023971D01*
X041471Y030471D01*
X041520Y030551D01*
X040733Y030551D02*
X040721Y030471D01*
X038221Y027971D01*
X022221Y027971D01*
X021471Y027221D01*
X020471Y027221D02*
X019971Y027221D01*
X020471Y027221D02*
X022471Y029221D01*
X022971Y028971D02*
X037221Y028971D01*
X037471Y029221D01*
X038221Y029221D01*
X038471Y028721D02*
X039721Y029971D01*
X039721Y030471D01*
X039945Y030551D01*
X038471Y028721D02*
X023721Y028721D01*
X023471Y028471D01*
X022971Y028971D02*
X022471Y028471D01*
X021471Y028971D02*
X020721Y029721D01*
X023471Y025221D02*
X025221Y023471D01*
X038471Y023471D01*
X039971Y021971D01*
X039945Y021890D01*
X038721Y021221D02*
X037721Y020221D01*
X022971Y020221D01*
X022721Y019971D01*
X022721Y018971D01*
X025971Y018971D01*
X026221Y018721D01*
X027471Y019721D02*
X030221Y019721D01*
X032471Y017471D01*
X042221Y017471D01*
X042221Y015721D01*
X040471Y013971D01*
X038471Y013971D01*
X037721Y014721D01*
X038721Y014721D02*
X039471Y015471D01*
X041471Y015471D01*
X041971Y015971D01*
X041971Y017221D01*
X031971Y017221D01*
X030221Y018971D01*
X032721Y019721D02*
X034721Y017721D01*
X042471Y017721D01*
X042471Y015471D01*
X040721Y013721D01*
X037721Y013721D01*
X036721Y014721D01*
X035721Y014721D02*
X034971Y015471D01*
X033971Y015471D01*
X032471Y016971D01*
X025971Y016971D01*
X025221Y016221D01*
X024471Y016971D02*
X018971Y016971D01*
X018221Y016221D01*
X023221Y019721D02*
X027471Y019721D01*
X030221Y021721D02*
X033971Y021721D01*
X034221Y021471D01*
X034221Y020721D01*
X017221Y020721D01*
X023721Y024221D02*
X024971Y022971D01*
X025971Y022971D01*
X026221Y023971D02*
X024971Y025221D01*
X029221Y022721D02*
X030221Y021721D01*
X034971Y021221D02*
X037221Y021221D01*
X035471Y018471D02*
X035221Y018221D01*
X035471Y018471D02*
X041471Y018471D01*
X040971Y018971D02*
X043721Y021721D01*
X043721Y032971D01*
X040721Y032971D01*
X035721Y033721D02*
X035471Y033971D01*
X033471Y033971D01*
X031721Y032221D01*
X031721Y033221D02*
X030721Y033221D01*
X030221Y032721D02*
X030221Y033721D01*
X029721Y033221D02*
X028721Y033221D01*
X027721Y033221D02*
X026721Y033221D01*
X029721Y032221D02*
X030221Y032721D01*
X027221Y016221D02*
X027221Y013221D01*
X026971Y012971D01*
X026971Y011971D01*
X028221Y011971D01*
X034971Y011971D01*
X035721Y011221D01*
X033721Y010221D02*
X032971Y009471D01*
X028221Y009471D01*
X028721Y012721D02*
X031721Y012721D01*
X033721Y014721D01*
D20*
X035221Y018221D03*
X037721Y019471D03*
X038721Y018971D03*
X040971Y018971D03*
X041471Y018471D03*
X038721Y021221D03*
X037221Y021221D03*
X034971Y021221D03*
X033721Y021221D03*
X032721Y019721D03*
X030221Y018971D03*
X027471Y019721D03*
X024471Y016971D03*
X023221Y019721D03*
X021471Y021221D03*
X021971Y021721D03*
X022721Y021721D03*
X023721Y024221D03*
X023471Y025221D03*
X024971Y025221D03*
X025971Y026221D03*
X026471Y025221D03*
X027721Y024721D03*
X025971Y022971D03*
X021971Y025471D03*
X021471Y027221D03*
X019971Y027221D03*
X017971Y027721D03*
X018471Y028721D03*
X019971Y029971D03*
X021471Y030971D03*
X022471Y029221D03*
X022471Y028471D03*
X023471Y028471D03*
X021471Y028971D03*
X024721Y030971D03*
X028221Y033721D03*
X030221Y033721D03*
X031971Y029471D03*
X033721Y025721D03*
X035221Y025221D03*
X038221Y029221D03*
X035721Y033721D03*
X017721Y021721D03*
X019971Y017971D03*
X013721Y016221D03*
X016221Y025721D03*
X016221Y026471D03*
X016471Y031471D03*
X013221Y033471D03*
D21*
X012491Y034085D02*
X011406Y034085D01*
X011406Y033891D02*
X011406Y034617D01*
X011351Y034750D01*
X011250Y034851D01*
X011117Y034906D01*
X010324Y034906D01*
X010192Y034851D01*
X010091Y034750D01*
X010051Y034654D01*
X010006Y034687D01*
X009930Y034726D01*
X009848Y034752D01*
X009764Y034766D01*
X009721Y034766D01*
X009721Y034221D01*
X009721Y034221D01*
X009471Y034471D01*
X006971Y034471D01*
X007091Y034562D02*
X009295Y034562D01*
X009305Y034576D02*
X009255Y034506D01*
X009216Y034430D01*
X009189Y034348D01*
X009176Y034264D01*
X009176Y034221D01*
X009720Y034221D01*
X009720Y034221D01*
X009721Y034221D02*
X009721Y034766D01*
X009678Y034766D01*
X009593Y034752D01*
X009512Y034726D01*
X009435Y034687D01*
X009366Y034636D01*
X009305Y034576D01*
X009185Y034323D02*
X008333Y034323D01*
X008336Y034351D02*
X007091Y034351D01*
X007091Y034591D01*
X006851Y034591D01*
X006851Y035836D01*
X006769Y035828D01*
X006637Y035801D01*
X006509Y035762D01*
X006384Y035711D01*
X006266Y035647D01*
X006154Y035572D01*
X006050Y035487D01*
X005954Y035392D01*
X005869Y035288D01*
X005794Y035176D01*
X005731Y035057D01*
X005679Y034933D01*
X005640Y034804D01*
X005614Y034672D01*
X005606Y034591D01*
X006851Y034591D01*
X006851Y034351D01*
X005606Y034351D01*
X005614Y034269D01*
X005640Y034137D01*
X005679Y034009D01*
X005731Y033884D01*
X005794Y033766D01*
X005869Y033654D01*
X005954Y033550D01*
X006050Y033454D01*
X006127Y033391D01*
X005887Y033391D01*
X005733Y033327D01*
X005615Y033209D01*
X005581Y033127D01*
X005581Y034399D01*
X005581Y034471D01*
X005589Y034626D01*
X005659Y034930D01*
X005794Y035210D01*
X005988Y035454D01*
X006231Y035648D01*
X006512Y035783D01*
X006815Y035852D01*
X006971Y035861D01*
X014258Y035861D01*
X014207Y035840D01*
X014002Y035634D01*
X013891Y035366D01*
X013891Y035076D01*
X013967Y034891D01*
X013387Y034891D01*
X013233Y034827D01*
X013115Y034709D01*
X012297Y033891D01*
X011406Y033891D01*
X011406Y034323D02*
X012729Y034323D01*
X012968Y034562D02*
X011406Y034562D01*
X011300Y034800D02*
X013206Y034800D01*
X013906Y035039D02*
X008218Y035039D01*
X008211Y035057D02*
X008147Y035176D01*
X008072Y035288D01*
X007987Y035392D01*
X007892Y035487D01*
X007788Y035572D01*
X007676Y035647D01*
X007557Y035711D01*
X007433Y035762D01*
X007304Y035801D01*
X007172Y035828D01*
X007091Y035836D01*
X007091Y034591D01*
X008336Y034591D01*
X008328Y034672D01*
X008301Y034804D01*
X008262Y034933D01*
X008211Y035057D01*
X008080Y035277D02*
X013891Y035277D01*
X013953Y035516D02*
X007857Y035516D01*
X007452Y035754D02*
X014122Y035754D01*
X014983Y035861D02*
X016258Y035861D01*
X016207Y035840D01*
X016022Y035654D01*
X016005Y035671D01*
X015930Y035725D01*
X015847Y035768D01*
X015759Y035796D01*
X015667Y035811D01*
X015621Y035811D01*
X015621Y035221D01*
X015621Y035221D01*
X015621Y035811D01*
X015574Y035811D01*
X015483Y035796D01*
X015394Y035768D01*
X015312Y035725D01*
X015236Y035671D01*
X015220Y035654D01*
X015034Y035840D01*
X014983Y035861D01*
X015120Y035754D02*
X015368Y035754D01*
X015621Y035754D02*
X015621Y035754D01*
X015621Y035516D02*
X015621Y035516D01*
X015621Y035277D02*
X015621Y035277D01*
X015873Y035754D02*
X016122Y035754D01*
X011471Y031471D02*
X010721Y032221D01*
X011471Y031471D02*
X011971Y031471D01*
X015221Y028221D01*
X017471Y028221D01*
X019721Y030471D01*
X031971Y030471D01*
X032721Y031221D01*
X039221Y031221D01*
X039971Y031971D01*
X039537Y032640D02*
X039442Y032601D01*
X039341Y032500D01*
X039286Y032367D01*
X039286Y031965D01*
X039022Y031701D01*
X035483Y031701D01*
X035590Y031807D01*
X035701Y032076D01*
X035701Y032366D01*
X035590Y032634D01*
X035503Y032721D01*
X035590Y032807D01*
X035701Y033076D01*
X035701Y033141D01*
X035836Y033141D01*
X036049Y033229D01*
X036212Y033392D01*
X036301Y033605D01*
X036301Y033801D01*
X039297Y033801D01*
X039671Y033427D01*
X039616Y033386D01*
X039555Y033326D01*
X039505Y033256D01*
X039466Y033180D01*
X039439Y033098D01*
X039426Y033014D01*
X039426Y032971D01*
X039970Y032971D01*
X039970Y032971D01*
X039426Y032971D01*
X039426Y032928D01*
X039439Y032843D01*
X039466Y032762D01*
X039505Y032685D01*
X039537Y032640D01*
X039528Y032653D02*
X035571Y032653D01*
X035625Y032892D02*
X039431Y032892D01*
X039450Y033130D02*
X035701Y033130D01*
X036189Y033369D02*
X039598Y033369D01*
X039490Y033607D02*
X036301Y033607D01*
X035681Y032415D02*
X039305Y032415D01*
X039286Y032176D02*
X035701Y032176D01*
X035644Y031938D02*
X039259Y031938D01*
X038764Y030012D02*
X038784Y029992D01*
X039026Y029891D01*
X039048Y029891D01*
X038709Y029553D01*
X038549Y029712D01*
X038336Y029801D01*
X038105Y029801D01*
X037892Y029712D01*
X037821Y029641D01*
X037387Y029641D01*
X037233Y029577D01*
X037115Y029459D01*
X037047Y029391D01*
X032551Y029391D01*
X032551Y029586D01*
X032462Y029799D01*
X032299Y029962D01*
X032149Y030025D01*
X032243Y030064D01*
X032378Y030199D01*
X032920Y030741D01*
X035523Y030741D01*
X035501Y030673D01*
X035488Y030592D01*
X035488Y030552D01*
X036008Y030552D01*
X036008Y030551D01*
X036008Y030551D01*
X036008Y030031D01*
X035967Y030031D01*
X035886Y030044D01*
X035809Y030070D01*
X035736Y030107D01*
X035669Y030155D01*
X035612Y030213D01*
X035563Y030279D01*
X035526Y030352D01*
X035501Y030430D01*
X035488Y030511D01*
X035488Y030551D01*
X036008Y030551D01*
X036008Y030031D01*
X036049Y030031D01*
X036130Y030044D01*
X036208Y030070D01*
X036281Y030107D01*
X036296Y030118D01*
X036422Y029992D01*
X036664Y029891D01*
X036927Y029891D01*
X037169Y029992D01*
X037189Y030012D01*
X037209Y029992D01*
X037452Y029891D01*
X037714Y029891D01*
X037957Y029992D01*
X037977Y030012D01*
X037997Y029992D01*
X038239Y029891D01*
X038502Y029891D01*
X038744Y029992D01*
X038764Y030012D01*
X038947Y029791D02*
X038360Y029791D01*
X038081Y029791D02*
X032466Y029791D01*
X032551Y029552D02*
X037208Y029552D01*
X036384Y030029D02*
X032159Y030029D01*
X032447Y030268D02*
X035571Y030268D01*
X035489Y030506D02*
X032685Y030506D01*
X032570Y027551D02*
X037957Y027551D01*
X034797Y024391D01*
X026395Y024391D01*
X025551Y025235D01*
X025551Y025301D01*
X025891Y025301D01*
X025891Y025105D01*
X025979Y024892D01*
X026142Y024729D01*
X026355Y024641D01*
X026586Y024641D01*
X026799Y024729D01*
X026871Y024801D01*
X029608Y024801D01*
X029807Y024602D01*
X030076Y024491D01*
X030366Y024491D01*
X030634Y024602D01*
X030820Y024787D01*
X030836Y024771D01*
X030912Y024716D01*
X030994Y024674D01*
X031083Y024645D01*
X031174Y024631D01*
X031221Y024631D01*
X031267Y024631D01*
X031359Y024645D01*
X031447Y024674D01*
X031530Y024716D01*
X031605Y024771D01*
X031671Y024836D01*
X031725Y024912D01*
X031768Y024994D01*
X031796Y025083D01*
X031811Y025174D01*
X031811Y025221D01*
X031811Y025267D01*
X031796Y025359D01*
X031768Y025447D01*
X031725Y025530D01*
X031671Y025605D01*
X031654Y025622D01*
X031840Y025807D01*
X031951Y026076D01*
X031951Y026366D01*
X031840Y026634D01*
X031753Y026721D01*
X031773Y026741D01*
X032022Y026741D01*
X033141Y025622D01*
X033141Y025605D01*
X033229Y025392D01*
X033392Y025229D01*
X033605Y025141D01*
X033836Y025141D01*
X034049Y025229D01*
X034212Y025392D01*
X034301Y025605D01*
X034301Y025836D01*
X034212Y026049D01*
X034049Y026212D01*
X033836Y026301D01*
X033820Y026301D01*
X032628Y027493D01*
X032570Y027551D01*
X032715Y027405D02*
X037811Y027405D01*
X037573Y027167D02*
X032954Y027167D01*
X033192Y026928D02*
X037334Y026928D01*
X037096Y026690D02*
X033431Y026690D01*
X033669Y026451D02*
X036857Y026451D01*
X036619Y026213D02*
X034049Y026213D01*
X034244Y025974D02*
X036380Y025974D01*
X036142Y025736D02*
X034301Y025736D01*
X034256Y025497D02*
X035903Y025497D01*
X035665Y025258D02*
X034079Y025258D01*
X033721Y025721D02*
X032221Y027221D01*
X031221Y027221D01*
X031784Y026690D02*
X032073Y026690D01*
X031916Y026451D02*
X032312Y026451D01*
X032550Y026213D02*
X031951Y026213D01*
X031909Y025974D02*
X032789Y025974D01*
X033027Y025736D02*
X031768Y025736D01*
X031742Y025497D02*
X033186Y025497D01*
X033363Y025258D02*
X031811Y025258D01*
X031811Y025221D02*
X031221Y025221D01*
X031221Y025221D01*
X035221Y025221D01*
X035426Y025020D02*
X031776Y025020D01*
X031811Y025221D02*
X031221Y025221D01*
X030471Y024471D01*
X027971Y024471D01*
X027721Y024721D01*
X026851Y024781D02*
X029628Y024781D01*
X029950Y024543D02*
X026243Y024543D01*
X026090Y024781D02*
X026004Y024781D01*
X025926Y025020D02*
X025766Y025020D01*
X025891Y025258D02*
X025551Y025258D01*
X025971Y026221D02*
X017221Y026221D01*
X015221Y028221D01*
X017471Y028221D02*
X017971Y028221D01*
X018471Y028721D01*
X013043Y024304D02*
X005581Y024304D01*
X005581Y024066D02*
X013282Y024066D01*
X013520Y023827D02*
X005581Y023827D01*
X005581Y023589D02*
X013759Y023589D01*
X013998Y023350D02*
X005581Y023350D01*
X005581Y023112D02*
X014236Y023112D01*
X014475Y022873D02*
X005581Y022873D01*
X005581Y022634D02*
X014713Y022634D01*
X014952Y022396D02*
X005581Y022396D01*
X005581Y022157D02*
X015190Y022157D01*
X015429Y021919D02*
X005581Y021919D01*
X005581Y021680D02*
X015667Y021680D01*
X015906Y021442D02*
X005581Y021442D01*
X005581Y021203D02*
X016144Y021203D01*
X016383Y020965D02*
X005581Y020965D01*
X005581Y020726D02*
X007034Y020726D01*
X007037Y020729D02*
X006864Y020556D01*
X006770Y020330D01*
X006770Y020084D01*
X006864Y019858D01*
X007037Y019685D01*
X007264Y019591D01*
X007509Y019591D01*
X007735Y019685D01*
X007908Y019858D01*
X008002Y020084D01*
X008002Y020330D01*
X007908Y020556D01*
X007735Y020729D01*
X007509Y020823D01*
X007264Y020823D01*
X007037Y020729D01*
X006836Y020488D02*
X005581Y020488D01*
X005581Y020249D02*
X006770Y020249D01*
X006801Y020010D02*
X005581Y020010D01*
X005581Y019772D02*
X006950Y019772D01*
X007822Y019772D02*
X022301Y019772D01*
X022301Y020010D02*
X007971Y020010D01*
X008002Y020249D02*
X022405Y020249D01*
X022365Y020209D02*
X022457Y020301D01*
X017304Y020301D01*
X017137Y020301D01*
X016983Y020365D01*
X007999Y029348D01*
X007992Y029330D01*
X007791Y029129D01*
X007528Y029020D01*
X007244Y029020D01*
X006981Y029129D01*
X006781Y029330D01*
X006672Y029592D01*
X006672Y029877D01*
X006781Y030139D01*
X006981Y030340D01*
X007000Y030348D01*
X005733Y031615D01*
X005615Y031733D01*
X005581Y031815D01*
X005581Y015792D01*
X005581Y015721D01*
X005583Y015693D01*
X005604Y015643D01*
X005643Y015604D01*
X005693Y015583D01*
X005721Y015581D01*
X017858Y015581D01*
X017807Y015602D01*
X017602Y015807D01*
X017491Y016076D01*
X017491Y016366D01*
X017602Y016634D01*
X017807Y016840D01*
X018076Y016951D01*
X018357Y016951D01*
X018397Y016991D01*
X015170Y016991D01*
X014301Y016122D01*
X014301Y016105D01*
X014212Y015892D01*
X014049Y015729D01*
X013836Y015641D01*
X013605Y015641D01*
X013392Y015729D01*
X013229Y015892D01*
X013141Y016105D01*
X013141Y016336D01*
X013229Y016549D01*
X013392Y016712D01*
X013605Y016801D01*
X013622Y016801D01*
X014564Y017743D01*
X014699Y017878D01*
X014875Y017951D01*
X016543Y017951D01*
X016491Y018076D01*
X016491Y018366D01*
X016602Y018634D01*
X016807Y018840D01*
X017076Y018951D01*
X017366Y018951D01*
X017634Y018840D01*
X017721Y018753D01*
X017807Y018840D01*
X018076Y018951D01*
X018366Y018951D01*
X018634Y018840D01*
X018721Y018753D01*
X018807Y018840D01*
X019076Y018951D01*
X019366Y018951D01*
X019634Y018840D01*
X019840Y018634D01*
X019874Y018552D01*
X019949Y018628D01*
X020125Y018701D01*
X020668Y018701D01*
X020807Y018840D01*
X021076Y018951D01*
X021366Y018951D01*
X021634Y018840D01*
X021721Y018753D01*
X021807Y018840D01*
X022076Y018951D01*
X022301Y018951D01*
X022301Y019054D01*
X022301Y020054D01*
X022365Y020209D01*
X022301Y019533D02*
X005581Y019533D01*
X005581Y019295D02*
X022301Y019295D01*
X022301Y019056D02*
X005581Y019056D01*
X005581Y018818D02*
X016785Y018818D01*
X016579Y018579D02*
X005581Y018579D01*
X005581Y018341D02*
X016491Y018341D01*
X016491Y018102D02*
X005581Y018102D01*
X005581Y017864D02*
X014685Y017864D01*
X014446Y017625D02*
X005581Y017625D01*
X005581Y017386D02*
X014208Y017386D01*
X013969Y017148D02*
X005581Y017148D01*
X005581Y016909D02*
X013731Y016909D01*
X013351Y016671D02*
X005581Y016671D01*
X005581Y016432D02*
X013181Y016432D01*
X013141Y016194D02*
X005581Y016194D01*
X005581Y015955D02*
X013203Y015955D01*
X013422Y015717D02*
X005581Y015717D01*
X007937Y020488D02*
X016860Y020488D01*
X016621Y020726D02*
X007738Y020726D01*
X005581Y024543D02*
X012805Y024543D01*
X012566Y024781D02*
X005581Y024781D01*
X005581Y025020D02*
X012328Y025020D01*
X012089Y025258D02*
X005581Y025258D01*
X005581Y025497D02*
X011851Y025497D01*
X011612Y025736D02*
X005581Y025736D01*
X005581Y025974D02*
X011374Y025974D01*
X011135Y026213D02*
X005581Y026213D01*
X005581Y026451D02*
X010896Y026451D01*
X010658Y026690D02*
X005581Y026690D01*
X005581Y026928D02*
X010419Y026928D01*
X010181Y027167D02*
X005581Y027167D01*
X005581Y027405D02*
X009942Y027405D01*
X009704Y027644D02*
X005581Y027644D01*
X005581Y027882D02*
X009465Y027882D01*
X009227Y028121D02*
X005581Y028121D01*
X005581Y028359D02*
X008988Y028359D01*
X008750Y028598D02*
X005581Y028598D01*
X005581Y028837D02*
X008511Y028837D01*
X008272Y029075D02*
X007661Y029075D01*
X007975Y029314D02*
X008034Y029314D01*
X007111Y029075D02*
X005581Y029075D01*
X005581Y029314D02*
X006797Y029314D01*
X006688Y029552D02*
X005581Y029552D01*
X005581Y029791D02*
X006672Y029791D01*
X006735Y030029D02*
X005581Y030029D01*
X005581Y030268D02*
X006909Y030268D01*
X006841Y030506D02*
X005581Y030506D01*
X005581Y030745D02*
X006603Y030745D01*
X006364Y030983D02*
X005581Y030983D01*
X005581Y031222D02*
X006126Y031222D01*
X005887Y031461D02*
X005581Y031461D01*
X005581Y031699D02*
X005649Y031699D01*
X005581Y033130D02*
X005582Y033130D01*
X005581Y033369D02*
X005834Y033369D01*
X005907Y033607D02*
X005581Y033607D01*
X005581Y033846D02*
X005751Y033846D01*
X005656Y034085D02*
X005581Y034085D01*
X005581Y034323D02*
X005609Y034323D01*
X005586Y034562D02*
X006851Y034562D01*
X006851Y034800D02*
X007091Y034800D01*
X007091Y035039D02*
X006851Y035039D01*
X006851Y035277D02*
X007091Y035277D01*
X007091Y035516D02*
X006851Y035516D01*
X006851Y035754D02*
X007091Y035754D01*
X006490Y035754D02*
X006453Y035754D01*
X006085Y035516D02*
X006066Y035516D01*
X005862Y035277D02*
X005847Y035277D01*
X005723Y035039D02*
X005711Y035039D01*
X005639Y034800D02*
X005629Y034800D01*
X008302Y034800D02*
X010141Y034800D01*
X009721Y034562D02*
X009721Y034562D01*
X009721Y034323D02*
X009721Y034323D01*
X009720Y034221D02*
X009176Y034221D01*
X009176Y034178D01*
X009189Y034093D01*
X009216Y034012D01*
X009255Y033935D01*
X009287Y033891D01*
X008387Y033891D01*
X008233Y033827D01*
X008115Y033709D01*
X008098Y033692D01*
X008147Y033766D01*
X008211Y033884D01*
X008262Y034009D01*
X008301Y034137D01*
X008328Y034269D01*
X008336Y034351D01*
X008285Y034085D02*
X009192Y034085D01*
X008279Y033846D02*
X008190Y033846D01*
X021471Y021221D02*
X033721Y021221D01*
X033301Y019801D02*
X037804Y019801D01*
X037959Y019865D01*
X038077Y019983D01*
X038735Y020641D01*
X038836Y020641D01*
X039049Y020729D01*
X039212Y020892D01*
X039301Y021105D01*
X039301Y021235D01*
X039532Y021331D01*
X039551Y021350D01*
X039571Y021331D01*
X039814Y021230D01*
X040076Y021230D01*
X040319Y021331D01*
X040339Y021350D01*
X040359Y021331D01*
X040601Y021230D01*
X040864Y021230D01*
X041106Y021331D01*
X041126Y021350D01*
X041146Y021331D01*
X041389Y021230D01*
X041651Y021230D01*
X041894Y021331D01*
X041914Y021350D01*
X041934Y021331D01*
X042176Y021230D01*
X042439Y021230D01*
X042681Y021331D01*
X042701Y021350D01*
X042721Y021331D01*
X042732Y021326D01*
X040957Y019551D01*
X040855Y019551D01*
X040642Y019462D01*
X040479Y019299D01*
X040391Y019086D01*
X040391Y018891D01*
X035387Y018891D01*
X035233Y018827D01*
X035207Y018801D01*
X035105Y018801D01*
X034892Y018712D01*
X034729Y018549D01*
X034658Y018377D01*
X033301Y019735D01*
X033301Y019801D01*
X033301Y019772D02*
X041178Y019772D01*
X041417Y020010D02*
X038104Y020010D01*
X038077Y019983D02*
X038077Y019983D01*
X038343Y020249D02*
X041655Y020249D01*
X041894Y020488D02*
X038581Y020488D01*
X039042Y020726D02*
X042132Y020726D01*
X042371Y020965D02*
X039242Y020965D01*
X039301Y021203D02*
X042609Y021203D01*
X043320Y020726D02*
X043861Y020726D01*
X043861Y020488D02*
X043081Y020488D01*
X042843Y020249D02*
X043861Y020249D01*
X043861Y020010D02*
X042604Y020010D01*
X042366Y019772D02*
X043861Y019772D01*
X043861Y019533D02*
X042127Y019533D01*
X041889Y019295D02*
X043861Y019295D01*
X043861Y019056D02*
X041650Y019056D01*
X041628Y019034D02*
X043861Y021267D01*
X043861Y007042D01*
X043861Y006971D01*
X043852Y006815D01*
X043783Y006512D01*
X043648Y006231D01*
X043454Y005988D01*
X043210Y005794D01*
X042930Y005659D01*
X042626Y005589D01*
X042471Y005581D01*
X042452Y005581D01*
X042399Y005581D01*
X039296Y005581D01*
X039296Y005583D01*
X039311Y005674D01*
X039311Y005721D01*
X039311Y005767D01*
X039296Y005859D01*
X039268Y005947D01*
X039225Y006030D01*
X039171Y006105D01*
X039105Y006171D01*
X039030Y006225D01*
X038947Y006268D01*
X038911Y006279D01*
X038951Y006375D01*
X038951Y006566D01*
X038951Y008625D01*
X038951Y008816D01*
X038951Y011566D01*
X038878Y011743D01*
X038743Y011878D01*
X038243Y012378D01*
X038066Y012451D01*
X037875Y012451D01*
X037375Y012451D01*
X037199Y012378D01*
X037064Y012243D01*
X036702Y011881D01*
X036447Y011881D01*
X036221Y011654D01*
X035994Y011881D01*
X035655Y011881D01*
X035327Y012209D01*
X035209Y012327D01*
X035054Y012391D01*
X031985Y012391D01*
X032077Y012483D01*
X033585Y013991D01*
X033866Y013991D01*
X034134Y014102D01*
X034221Y014188D01*
X034307Y014102D01*
X034576Y013991D01*
X034866Y013991D01*
X035134Y014102D01*
X035221Y014188D01*
X035307Y014102D01*
X035576Y013991D01*
X035866Y013991D01*
X036134Y014102D01*
X036221Y014188D01*
X036307Y014102D01*
X036576Y013991D01*
X036857Y013991D01*
X037365Y013483D01*
X037483Y013365D01*
X037637Y013301D01*
X040637Y013301D01*
X040804Y013301D01*
X040959Y013365D01*
X042709Y015115D01*
X042827Y015233D01*
X042891Y015387D01*
X042891Y017804D01*
X042827Y017959D01*
X042709Y018077D01*
X042554Y018141D01*
X042387Y018141D01*
X041961Y018141D01*
X041962Y018142D01*
X042051Y018355D01*
X042051Y018586D01*
X041962Y018799D01*
X041799Y018962D01*
X041628Y019034D01*
X041944Y018818D02*
X043861Y018818D01*
X043861Y018579D02*
X042051Y018579D01*
X042045Y018341D02*
X043861Y018341D01*
X043861Y018102D02*
X042648Y018102D01*
X042866Y017864D02*
X043861Y017864D01*
X043861Y017625D02*
X042891Y017625D01*
X042891Y017386D02*
X043861Y017386D01*
X043861Y017148D02*
X042891Y017148D01*
X042891Y016909D02*
X043861Y016909D01*
X043861Y016671D02*
X042891Y016671D01*
X042891Y016432D02*
X043861Y016432D01*
X043861Y016194D02*
X042891Y016194D01*
X042891Y015955D02*
X043861Y015955D01*
X043861Y015717D02*
X042891Y015717D01*
X042891Y015478D02*
X043861Y015478D01*
X043861Y015240D02*
X042830Y015240D01*
X042595Y015001D02*
X043861Y015001D01*
X043861Y014763D02*
X042356Y014763D01*
X042118Y014524D02*
X043861Y014524D01*
X043861Y014285D02*
X041879Y014285D01*
X041641Y014047D02*
X043861Y014047D01*
X043861Y013808D02*
X041402Y013808D01*
X041164Y013570D02*
X043861Y013570D01*
X043861Y013331D02*
X040878Y013331D01*
X038911Y011661D02*
X043861Y011661D01*
X043861Y011423D02*
X038951Y011423D01*
X038951Y011184D02*
X043861Y011184D01*
X043861Y010946D02*
X038951Y010946D01*
X038951Y010707D02*
X043861Y010707D01*
X043861Y010469D02*
X038951Y010469D01*
X038951Y010230D02*
X043861Y010230D01*
X043861Y009992D02*
X038951Y009992D01*
X038951Y009753D02*
X043861Y009753D01*
X043861Y009515D02*
X038951Y009515D01*
X038951Y009276D02*
X043861Y009276D01*
X043861Y009037D02*
X038951Y009037D01*
X038951Y008799D02*
X043861Y008799D01*
X043861Y008560D02*
X038951Y008560D01*
X038951Y008322D02*
X042241Y008322D01*
X042269Y008328D02*
X042137Y008301D01*
X042009Y008262D01*
X041884Y008211D01*
X041766Y008147D01*
X041654Y008072D01*
X041550Y007987D01*
X041454Y007892D01*
X041369Y007788D01*
X041294Y007676D01*
X041231Y007557D01*
X041179Y007433D01*
X041140Y007304D01*
X041114Y007172D01*
X041106Y007091D01*
X042351Y007091D01*
X042351Y008336D01*
X042269Y008328D01*
X042351Y008322D02*
X042591Y008322D01*
X042591Y008336D02*
X042672Y008328D01*
X042804Y008301D01*
X042933Y008262D01*
X043057Y008211D01*
X043176Y008147D01*
X043288Y008072D01*
X043392Y007987D01*
X043487Y007892D01*
X043572Y007788D01*
X043647Y007676D01*
X043711Y007557D01*
X043762Y007433D01*
X043801Y007304D01*
X043828Y007172D01*
X043836Y007091D01*
X042591Y007091D01*
X042591Y006851D01*
X043836Y006851D01*
X043828Y006769D01*
X043801Y006637D01*
X043762Y006509D01*
X043711Y006384D01*
X043647Y006266D01*
X043572Y006154D01*
X043487Y006050D01*
X043392Y005954D01*
X043288Y005869D01*
X043176Y005794D01*
X043057Y005731D01*
X042933Y005679D01*
X042804Y005640D01*
X042672Y005614D01*
X042591Y005606D01*
X042591Y006851D01*
X042351Y006851D01*
X042351Y005606D01*
X042269Y005614D01*
X042137Y005640D01*
X042009Y005679D01*
X041884Y005731D01*
X041766Y005794D01*
X041654Y005869D01*
X041550Y005954D01*
X041454Y006050D01*
X041369Y006154D01*
X041294Y006266D01*
X041231Y006384D01*
X041179Y006509D01*
X041140Y006637D01*
X041114Y006769D01*
X041106Y006851D01*
X042351Y006851D01*
X042351Y007091D01*
X042591Y007091D01*
X042591Y008336D01*
X042701Y008322D02*
X043861Y008322D01*
X043861Y008083D02*
X043272Y008083D01*
X043526Y007845D02*
X043861Y007845D01*
X043861Y007606D02*
X043685Y007606D01*
X043782Y007368D02*
X043861Y007368D01*
X043861Y007129D02*
X043832Y007129D01*
X043856Y006891D02*
X042591Y006891D01*
X042591Y007129D02*
X042351Y007129D01*
X042351Y006891D02*
X038951Y006891D01*
X038951Y007129D02*
X041110Y007129D01*
X041160Y007368D02*
X038951Y007368D01*
X038951Y007606D02*
X041257Y007606D01*
X041416Y007845D02*
X038951Y007845D01*
X038951Y008083D02*
X041670Y008083D01*
X042351Y008083D02*
X042591Y008083D01*
X042591Y007845D02*
X042351Y007845D01*
X042351Y007606D02*
X042591Y007606D01*
X042591Y007368D02*
X042351Y007368D01*
X042351Y006652D02*
X042591Y006652D01*
X042591Y006414D02*
X042351Y006414D01*
X042351Y006175D02*
X042591Y006175D01*
X042591Y005936D02*
X042351Y005936D01*
X042351Y005698D02*
X042591Y005698D01*
X042978Y005698D02*
X043011Y005698D01*
X043370Y005936D02*
X043389Y005936D01*
X043587Y006175D02*
X043603Y006175D01*
X043723Y006414D02*
X043736Y006414D01*
X043804Y006652D02*
X043815Y006652D01*
X041964Y005698D02*
X039311Y005698D01*
X039311Y005721D02*
X038721Y005721D01*
X039311Y005721D01*
X039271Y005936D02*
X041572Y005936D01*
X041355Y006175D02*
X039099Y006175D01*
X038951Y006414D02*
X041219Y006414D01*
X041137Y006652D02*
X038951Y006652D01*
X038471Y006471D02*
X037471Y006471D01*
X036721Y005721D01*
X038471Y006471D02*
X038471Y008721D01*
X026471Y008721D01*
X026471Y015221D01*
X026221Y015471D01*
X020971Y015471D01*
X020221Y016221D01*
X021221Y016221D02*
X021631Y016221D01*
X022220Y016221D01*
X022220Y016221D01*
X021631Y016221D01*
X021221Y016221D01*
X021221Y016221D01*
X021471Y017471D02*
X022221Y018221D01*
X021785Y018818D02*
X021656Y018818D01*
X021221Y018221D02*
X020221Y018221D01*
X019971Y017971D01*
X019900Y018579D02*
X019862Y018579D01*
X019656Y018818D02*
X020785Y018818D01*
X021471Y017471D02*
X014971Y017471D01*
X013721Y016221D01*
X014239Y015955D02*
X017541Y015955D01*
X017491Y016194D02*
X014373Y016194D01*
X014611Y016432D02*
X017518Y016432D01*
X017639Y016671D02*
X014850Y016671D01*
X015088Y016909D02*
X017976Y016909D01*
X017692Y015717D02*
X014019Y015717D01*
X017656Y018818D02*
X017785Y018818D01*
X018656Y018818D02*
X018785Y018818D01*
X027641Y015608D02*
X027641Y013305D01*
X027674Y013311D01*
X027721Y013311D01*
X027721Y012721D01*
X027721Y012721D01*
X029721Y014721D01*
X032721Y014721D01*
X032721Y014721D01*
X032721Y015311D01*
X032767Y015311D01*
X032859Y015296D01*
X032947Y015268D01*
X033030Y015225D01*
X033105Y015171D01*
X033122Y015154D01*
X033307Y015340D01*
X033449Y015398D01*
X032898Y015949D01*
X032840Y015807D01*
X032634Y015602D01*
X032366Y015491D01*
X032076Y015491D01*
X031807Y015602D01*
X031721Y015688D01*
X031634Y015602D01*
X031366Y015491D01*
X031076Y015491D01*
X030807Y015602D01*
X030721Y015688D01*
X030634Y015602D01*
X030366Y015491D01*
X030076Y015491D01*
X029807Y015602D01*
X029721Y015688D01*
X029634Y015602D01*
X029366Y015491D01*
X029076Y015491D01*
X028807Y015602D01*
X028721Y015688D01*
X028634Y015602D01*
X028366Y015491D01*
X028076Y015491D01*
X027807Y015602D01*
X027721Y015688D01*
X027641Y015608D01*
X027641Y015478D02*
X033369Y015478D01*
X033207Y015240D02*
X033002Y015240D01*
X032721Y015240D02*
X032721Y015240D01*
X032721Y015311D02*
X032674Y015311D01*
X032583Y015296D01*
X032494Y015268D01*
X032412Y015225D01*
X032336Y015171D01*
X032271Y015105D01*
X032216Y015030D01*
X032174Y014947D01*
X032145Y014859D01*
X032131Y014767D01*
X032131Y014721D01*
X032720Y014721D01*
X032720Y014721D01*
X032131Y014721D01*
X032131Y014674D01*
X032145Y014583D01*
X032174Y014494D01*
X032216Y014412D01*
X032271Y014336D01*
X032336Y014271D01*
X032412Y014216D01*
X032494Y014174D01*
X032559Y014153D01*
X031547Y013141D01*
X029333Y013141D01*
X029134Y013340D01*
X028866Y013451D01*
X028576Y013451D01*
X028307Y013340D01*
X028122Y013154D01*
X028105Y013171D01*
X028030Y013225D01*
X027947Y013268D01*
X027859Y013296D01*
X027767Y013311D01*
X027721Y013311D01*
X027721Y012721D01*
X027721Y012854D02*
X027721Y012854D01*
X027721Y013093D02*
X027721Y013093D01*
X027641Y013331D02*
X028299Y013331D01*
X029143Y013331D02*
X031737Y013331D01*
X031976Y013570D02*
X027641Y013570D01*
X027641Y013808D02*
X032214Y013808D01*
X032453Y014047D02*
X027641Y014047D01*
X027641Y014285D02*
X032322Y014285D01*
X032164Y014524D02*
X027641Y014524D01*
X027641Y014763D02*
X032131Y014763D01*
X032201Y015001D02*
X027641Y015001D01*
X027641Y015240D02*
X032440Y015240D01*
X032721Y015311D02*
X032721Y014721D01*
X032721Y014763D02*
X032721Y014763D01*
X032721Y015001D02*
X032721Y015001D01*
X032749Y015717D02*
X033131Y015717D01*
X034001Y014047D02*
X034440Y014047D01*
X035001Y014047D02*
X035440Y014047D01*
X036001Y014047D02*
X036440Y014047D01*
X037039Y013808D02*
X033402Y013808D01*
X033164Y013570D02*
X037278Y013570D01*
X037564Y013331D02*
X032925Y013331D01*
X032687Y013093D02*
X043861Y013093D01*
X043861Y012854D02*
X032448Y012854D01*
X032210Y012616D02*
X043861Y012616D01*
X043861Y012377D02*
X038243Y012377D01*
X038482Y012139D02*
X043861Y012139D01*
X043861Y011900D02*
X038720Y011900D01*
X038471Y011471D02*
X038471Y008721D01*
X036721Y011221D02*
X037471Y011971D01*
X037971Y011971D01*
X038471Y011471D01*
X037198Y012377D02*
X035087Y012377D01*
X035397Y012139D02*
X036960Y012139D01*
X036721Y011900D02*
X035635Y011900D01*
X036213Y011661D02*
X036228Y011661D01*
X033721Y011221D02*
X032721Y010221D01*
X028721Y010221D01*
X028721Y010221D01*
X028721Y010811D01*
X028767Y010811D01*
X028859Y010796D01*
X028947Y010768D01*
X029030Y010725D01*
X029105Y010671D01*
X029171Y010605D01*
X029225Y010530D01*
X029268Y010447D01*
X029296Y010359D01*
X029311Y010267D01*
X029311Y010221D01*
X028721Y010221D01*
X028721Y010221D01*
X028721Y010811D01*
X028674Y010811D01*
X028583Y010796D01*
X028494Y010768D01*
X028412Y010725D01*
X028336Y010671D01*
X028320Y010654D01*
X028134Y010840D01*
X027866Y010951D01*
X027576Y010951D01*
X027307Y010840D01*
X027102Y010634D01*
X026991Y010366D01*
X026991Y010076D01*
X027102Y009807D01*
X027307Y009602D01*
X027491Y009526D01*
X027491Y009326D01*
X027543Y009201D01*
X026951Y009201D01*
X026951Y011551D01*
X027608Y011551D01*
X027807Y011352D01*
X028076Y011241D01*
X028366Y011241D01*
X028634Y011352D01*
X028833Y011551D01*
X033315Y011551D01*
X033201Y011436D01*
X033201Y011221D01*
X033720Y011221D01*
X033720Y011221D01*
X033201Y011221D01*
X033201Y011005D01*
X033386Y010820D01*
X033061Y010494D01*
X033061Y010155D01*
X032797Y009891D01*
X029210Y009891D01*
X029225Y009912D01*
X029268Y009994D01*
X029296Y010083D01*
X029311Y010174D01*
X029311Y010221D01*
X028721Y010221D01*
X028721Y010230D02*
X028721Y010230D01*
X028721Y010469D02*
X028721Y010469D01*
X028721Y010707D02*
X028721Y010707D01*
X029055Y010707D02*
X033274Y010707D01*
X033260Y010946D02*
X027878Y010946D01*
X027564Y010946D02*
X026951Y010946D01*
X026951Y011184D02*
X033201Y011184D01*
X033201Y011423D02*
X028705Y011423D01*
X028387Y010707D02*
X028267Y010707D01*
X027736Y011423D02*
X026951Y011423D01*
X026951Y010707D02*
X027175Y010707D01*
X027033Y010469D02*
X026951Y010469D01*
X026951Y010230D02*
X026991Y010230D01*
X027026Y009992D02*
X026951Y009992D01*
X026951Y009753D02*
X027156Y009753D01*
X026951Y009515D02*
X027491Y009515D01*
X027511Y009276D02*
X026951Y009276D01*
X029266Y009992D02*
X032898Y009992D01*
X033061Y010230D02*
X029311Y010230D01*
X029257Y010469D02*
X033061Y010469D01*
X038721Y005721D02*
X038721Y005721D01*
X034759Y018579D02*
X034456Y018579D01*
X034218Y018818D02*
X035224Y018818D01*
X033979Y019056D02*
X040391Y019056D01*
X040477Y019295D02*
X033741Y019295D01*
X033502Y019533D02*
X040814Y019533D01*
X038721Y018971D02*
X038221Y019471D01*
X037721Y019471D01*
X039985Y022550D02*
X038709Y023827D01*
X038554Y023891D01*
X038387Y023891D01*
X035485Y023891D01*
X041485Y029891D01*
X041651Y029891D01*
X041894Y029992D01*
X041914Y030012D01*
X041934Y029992D01*
X042176Y029891D01*
X042439Y029891D01*
X042681Y029992D01*
X042701Y030012D01*
X042721Y029992D01*
X042964Y029891D01*
X043226Y029891D01*
X043301Y029922D01*
X043301Y022519D01*
X043226Y022550D01*
X042964Y022550D01*
X042721Y022450D01*
X042701Y022430D01*
X042681Y022450D01*
X042439Y022550D01*
X042176Y022550D01*
X041934Y022450D01*
X041914Y022430D01*
X041894Y022450D01*
X041651Y022550D01*
X041389Y022550D01*
X041146Y022450D01*
X041126Y022430D01*
X041106Y022450D01*
X040864Y022550D01*
X040601Y022550D01*
X040359Y022450D01*
X040339Y022430D01*
X040319Y022450D01*
X040076Y022550D01*
X039985Y022550D01*
X039901Y022634D02*
X043301Y022634D01*
X043301Y022873D02*
X039662Y022873D01*
X039424Y023112D02*
X043301Y023112D01*
X043301Y023350D02*
X039185Y023350D01*
X038947Y023589D02*
X043301Y023589D01*
X043301Y023827D02*
X038708Y023827D01*
X036852Y025258D02*
X043301Y025258D01*
X043301Y025020D02*
X036614Y025020D01*
X036375Y024781D02*
X043301Y024781D01*
X043301Y024543D02*
X036137Y024543D01*
X035898Y024304D02*
X043301Y024304D01*
X043301Y024066D02*
X035660Y024066D01*
X034949Y024543D02*
X030492Y024543D01*
X030814Y024781D02*
X030826Y024781D01*
X031221Y024781D02*
X031221Y024781D01*
X031221Y024631D02*
X031221Y025220D01*
X031221Y025220D01*
X031221Y024631D01*
X031221Y025020D02*
X031221Y025020D01*
X031616Y024781D02*
X035187Y024781D01*
X037091Y025497D02*
X043301Y025497D01*
X043301Y025736D02*
X037329Y025736D01*
X037568Y025974D02*
X043301Y025974D01*
X043301Y026213D02*
X037806Y026213D01*
X038045Y026451D02*
X043301Y026451D01*
X043301Y026690D02*
X038284Y026690D01*
X038522Y026928D02*
X043301Y026928D01*
X043301Y027167D02*
X038761Y027167D01*
X038999Y027405D02*
X043301Y027405D01*
X043301Y027644D02*
X039238Y027644D01*
X039476Y027882D02*
X043301Y027882D01*
X043301Y028121D02*
X039715Y028121D01*
X039953Y028359D02*
X043301Y028359D01*
X043301Y028598D02*
X040192Y028598D01*
X040430Y028837D02*
X043301Y028837D01*
X043301Y029075D02*
X040669Y029075D01*
X040908Y029314D02*
X043301Y029314D01*
X043301Y029552D02*
X041146Y029552D01*
X041385Y029791D02*
X043301Y029791D01*
X043314Y033391D02*
X043392Y033454D01*
X043487Y033550D01*
X043572Y033654D01*
X043647Y033766D01*
X043711Y033884D01*
X043762Y034009D01*
X043801Y034137D01*
X043828Y034269D01*
X043836Y034351D01*
X042591Y034351D01*
X042591Y034591D01*
X042351Y034591D01*
X042351Y035836D01*
X042269Y035828D01*
X042137Y035801D01*
X042009Y035762D01*
X041884Y035711D01*
X041766Y035647D01*
X041654Y035572D01*
X041550Y035487D01*
X041454Y035392D01*
X041369Y035288D01*
X041294Y035176D01*
X041231Y035057D01*
X041179Y034933D01*
X041140Y034804D01*
X041114Y034672D01*
X041106Y034591D01*
X042351Y034591D01*
X042351Y034351D01*
X041106Y034351D01*
X041114Y034269D01*
X041140Y034137D01*
X041179Y034009D01*
X041231Y033884D01*
X041294Y033766D01*
X041369Y033654D01*
X041454Y033550D01*
X041550Y033454D01*
X041627Y033391D01*
X040895Y033391D01*
X039827Y034459D01*
X039709Y034577D01*
X039638Y034606D01*
X039840Y034807D01*
X039951Y035076D01*
X039951Y035366D01*
X039840Y035634D01*
X039634Y035840D01*
X039583Y035861D01*
X042399Y035861D01*
X042471Y035861D01*
X042626Y035852D01*
X042930Y035783D01*
X043210Y035648D01*
X043454Y035454D01*
X043648Y035210D01*
X043783Y034930D01*
X043852Y034626D01*
X043861Y034471D01*
X043861Y034399D01*
X043861Y033367D01*
X043804Y033391D01*
X043314Y033391D01*
X043535Y033607D02*
X043861Y033607D01*
X043857Y033369D02*
X043861Y033369D01*
X043861Y033846D02*
X043690Y033846D01*
X043785Y034085D02*
X043861Y034085D01*
X043861Y034323D02*
X043833Y034323D01*
X043856Y034562D02*
X042591Y034562D01*
X042591Y034591D02*
X043836Y034591D01*
X043828Y034672D01*
X043801Y034804D01*
X043762Y034933D01*
X043711Y035057D01*
X043647Y035176D01*
X043572Y035288D01*
X043487Y035392D01*
X043392Y035487D01*
X043288Y035572D01*
X043176Y035647D01*
X043057Y035711D01*
X042933Y035762D01*
X042804Y035801D01*
X042672Y035828D01*
X042591Y035836D01*
X042591Y034591D01*
X042591Y034800D02*
X042351Y034800D01*
X042351Y034562D02*
X039724Y034562D01*
X039832Y034800D02*
X041139Y034800D01*
X041223Y035039D02*
X039935Y035039D01*
X039951Y035277D02*
X041362Y035277D01*
X041585Y035516D02*
X039889Y035516D01*
X039720Y035754D02*
X041990Y035754D01*
X042351Y035754D02*
X042591Y035754D01*
X042591Y035516D02*
X042351Y035516D01*
X042351Y035277D02*
X042591Y035277D01*
X042591Y035039D02*
X042351Y035039D01*
X042952Y035754D02*
X042989Y035754D01*
X043357Y035516D02*
X043376Y035516D01*
X043580Y035277D02*
X043594Y035277D01*
X043718Y035039D02*
X043730Y035039D01*
X043802Y034800D02*
X043812Y034800D01*
X041407Y033607D02*
X040678Y033607D01*
X040439Y033846D02*
X041251Y033846D01*
X041156Y034085D02*
X040201Y034085D01*
X039962Y034323D02*
X041109Y034323D01*
X036008Y030506D02*
X036008Y030506D01*
X036008Y030268D02*
X036008Y030268D01*
X043797Y021203D02*
X043861Y021203D01*
X043861Y020965D02*
X043559Y020965D01*
D22*
X039721Y025221D03*
X009221Y018221D03*
X008221Y017721D03*
X007221Y017721D03*
X006221Y017721D03*
X006721Y016721D03*
X007721Y016721D03*
X008721Y016721D03*
X009221Y015721D03*
X008221Y015721D03*
X007221Y015721D03*
X006221Y015721D03*
X005721Y016721D03*
X005721Y018721D03*
X006721Y018721D03*
X007721Y018721D03*
M02*
