G75*
G70*
%OFA0B0*%
%FSLAX24Y24*%
%IPPOS*%
%LPD*%
%AMOC8*
5,1,8,0,0,1.08239X$1,22.5*
%
%ADD10C,0.0000*%
%ADD11C,0.0820*%
%ADD12R,0.0820X0.0820*%
%ADD13C,0.0789*%
%ADD14C,0.0592*%
%ADD15C,0.0680*%
%ADD16C,0.2380*%
%ADD17OC8,0.0720*%
%ADD18OC8,0.0680*%
%ADD19R,0.0730X0.0730*%
%ADD20C,0.0730*%
D10*
X005721Y015221D02*
X025721Y015221D01*
X025765Y015219D01*
X025808Y015213D01*
X025850Y015204D01*
X025892Y015191D01*
X025932Y015174D01*
X025971Y015154D01*
X026008Y015131D01*
X026042Y015104D01*
X026075Y015075D01*
X026104Y015042D01*
X026131Y015008D01*
X026154Y014971D01*
X026174Y014932D01*
X026191Y014892D01*
X026204Y014850D01*
X026213Y014808D01*
X026219Y014765D01*
X026221Y014721D01*
X026221Y005721D01*
X026223Y005677D01*
X026229Y005634D01*
X026238Y005592D01*
X026251Y005550D01*
X026268Y005510D01*
X026288Y005471D01*
X026311Y005434D01*
X026338Y005400D01*
X026367Y005367D01*
X026400Y005338D01*
X026434Y005311D01*
X026471Y005288D01*
X026510Y005268D01*
X026550Y005251D01*
X026592Y005238D01*
X026634Y005229D01*
X026677Y005223D01*
X026721Y005221D01*
X042471Y005221D01*
X042554Y005223D01*
X042637Y005229D01*
X042720Y005239D01*
X042802Y005253D01*
X042884Y005270D01*
X042964Y005292D01*
X043043Y005317D01*
X043121Y005346D01*
X043198Y005379D01*
X043273Y005416D01*
X043346Y005455D01*
X043417Y005499D01*
X043486Y005545D01*
X043553Y005595D01*
X043617Y005648D01*
X043679Y005704D01*
X043738Y005763D01*
X043794Y005825D01*
X043847Y005889D01*
X043897Y005956D01*
X043943Y006025D01*
X043987Y006096D01*
X044026Y006169D01*
X044063Y006244D01*
X044096Y006321D01*
X044125Y006399D01*
X044150Y006478D01*
X044172Y006558D01*
X044189Y006640D01*
X044203Y006722D01*
X044213Y006805D01*
X044219Y006888D01*
X044221Y006971D01*
X044221Y034471D01*
X044219Y034554D01*
X044213Y034637D01*
X044203Y034720D01*
X044189Y034802D01*
X044172Y034884D01*
X044150Y034964D01*
X044125Y035043D01*
X044096Y035121D01*
X044063Y035198D01*
X044026Y035273D01*
X043987Y035346D01*
X043943Y035417D01*
X043897Y035486D01*
X043847Y035553D01*
X043794Y035617D01*
X043738Y035679D01*
X043679Y035738D01*
X043617Y035794D01*
X043553Y035847D01*
X043486Y035897D01*
X043417Y035943D01*
X043346Y035987D01*
X043273Y036026D01*
X043198Y036063D01*
X043121Y036096D01*
X043043Y036125D01*
X042964Y036150D01*
X042884Y036172D01*
X042802Y036189D01*
X042720Y036203D01*
X042637Y036213D01*
X042554Y036219D01*
X042471Y036221D01*
X006971Y036221D01*
X006888Y036219D01*
X006805Y036213D01*
X006722Y036203D01*
X006640Y036189D01*
X006558Y036172D01*
X006478Y036150D01*
X006399Y036125D01*
X006321Y036096D01*
X006244Y036063D01*
X006169Y036026D01*
X006096Y035987D01*
X006025Y035943D01*
X005956Y035897D01*
X005889Y035847D01*
X005825Y035794D01*
X005763Y035738D01*
X005704Y035679D01*
X005648Y035617D01*
X005595Y035553D01*
X005545Y035486D01*
X005499Y035417D01*
X005455Y035346D01*
X005416Y035273D01*
X005379Y035198D01*
X005346Y035121D01*
X005317Y035043D01*
X005292Y034964D01*
X005270Y034884D01*
X005253Y034802D01*
X005239Y034720D01*
X005229Y034637D01*
X005223Y034554D01*
X005221Y034471D01*
X005221Y015721D01*
X005223Y015677D01*
X005229Y015634D01*
X005238Y015592D01*
X005251Y015550D01*
X005268Y015510D01*
X005288Y015471D01*
X005311Y015434D01*
X005338Y015400D01*
X005367Y015367D01*
X005400Y015338D01*
X005434Y015311D01*
X005471Y015288D01*
X005510Y015268D01*
X005550Y015251D01*
X005592Y015238D01*
X005634Y015229D01*
X005677Y015223D01*
X005721Y015221D01*
X007130Y020207D02*
X007132Y020238D01*
X007138Y020269D01*
X007147Y020299D01*
X007160Y020328D01*
X007177Y020355D01*
X007197Y020379D01*
X007219Y020401D01*
X007245Y020420D01*
X007272Y020436D01*
X007301Y020448D01*
X007331Y020457D01*
X007362Y020462D01*
X007394Y020463D01*
X007425Y020460D01*
X007456Y020453D01*
X007486Y020443D01*
X007514Y020429D01*
X007540Y020411D01*
X007564Y020391D01*
X007585Y020367D01*
X007604Y020342D01*
X007619Y020314D01*
X007630Y020285D01*
X007638Y020254D01*
X007642Y020223D01*
X007642Y020191D01*
X007638Y020160D01*
X007630Y020129D01*
X007619Y020100D01*
X007604Y020072D01*
X007585Y020047D01*
X007564Y020023D01*
X007540Y020003D01*
X007514Y019985D01*
X007486Y019971D01*
X007456Y019961D01*
X007425Y019954D01*
X007394Y019951D01*
X007362Y019952D01*
X007331Y019957D01*
X007301Y019966D01*
X007272Y019978D01*
X007245Y019994D01*
X007219Y020013D01*
X007197Y020035D01*
X007177Y020059D01*
X007160Y020086D01*
X007147Y020115D01*
X007138Y020145D01*
X007132Y020176D01*
X007130Y020207D01*
X007032Y029735D02*
X007034Y029772D01*
X007040Y029809D01*
X007049Y029844D01*
X007063Y029879D01*
X007079Y029912D01*
X007100Y029943D01*
X007123Y029972D01*
X007149Y029998D01*
X007178Y030021D01*
X007209Y030042D01*
X007242Y030058D01*
X007277Y030072D01*
X007312Y030081D01*
X007349Y030087D01*
X007386Y030089D01*
X007423Y030087D01*
X007460Y030081D01*
X007495Y030072D01*
X007530Y030058D01*
X007563Y030042D01*
X007594Y030021D01*
X007623Y029998D01*
X007649Y029972D01*
X007672Y029943D01*
X007693Y029912D01*
X007709Y029879D01*
X007723Y029844D01*
X007732Y029809D01*
X007738Y029772D01*
X007740Y029735D01*
X007738Y029698D01*
X007732Y029661D01*
X007723Y029626D01*
X007709Y029591D01*
X007693Y029558D01*
X007672Y029527D01*
X007649Y029498D01*
X007623Y029472D01*
X007594Y029449D01*
X007563Y029428D01*
X007530Y029412D01*
X007495Y029398D01*
X007460Y029389D01*
X007423Y029383D01*
X007386Y029381D01*
X007349Y029383D01*
X007312Y029389D01*
X007277Y029398D01*
X007242Y029412D01*
X007209Y029428D01*
X007178Y029449D01*
X007149Y029472D01*
X007123Y029498D01*
X007100Y029527D01*
X007079Y029558D01*
X007063Y029591D01*
X007049Y029626D01*
X007040Y029661D01*
X007034Y029698D01*
X007032Y029735D01*
D11*
X006721Y032221D03*
X007721Y032221D03*
X008721Y032221D03*
X009721Y032221D03*
X010721Y032221D03*
X011721Y032221D03*
X014621Y035221D03*
X015621Y035221D03*
X016621Y035221D03*
X017621Y035221D03*
X018621Y035221D03*
X019621Y035221D03*
X020621Y035221D03*
X021621Y035221D03*
X023221Y035221D03*
X024221Y035221D03*
X025221Y035221D03*
X026221Y035221D03*
X027221Y035221D03*
X028221Y035221D03*
X029221Y035221D03*
X030221Y035221D03*
X032221Y035221D03*
X033221Y035221D03*
X034221Y035221D03*
X035221Y035221D03*
X036221Y035221D03*
X037221Y035221D03*
X038221Y035221D03*
X039221Y035221D03*
X034971Y033221D03*
X034971Y032221D03*
X033721Y032221D03*
X033721Y033221D03*
X031221Y027221D03*
X031221Y026221D03*
X031221Y025221D03*
X030221Y025221D03*
X030221Y026221D03*
X030221Y022721D03*
X031221Y022721D03*
X029221Y022721D03*
X026221Y018721D03*
X026221Y017721D03*
X026221Y016221D03*
X025221Y016221D03*
X027221Y016221D03*
X028221Y016221D03*
X029221Y016221D03*
X030221Y016221D03*
X031221Y016221D03*
X032221Y016221D03*
X032721Y014721D03*
X033721Y014721D03*
X034721Y014721D03*
X035721Y014721D03*
X036721Y014721D03*
X037721Y014721D03*
X038221Y016221D03*
X039221Y016221D03*
X040221Y016221D03*
X041221Y016221D03*
X037221Y016221D03*
X036221Y016221D03*
X035221Y016221D03*
X034221Y016221D03*
X028721Y012721D03*
X028221Y011971D03*
X027721Y012721D03*
X027721Y010221D03*
X028221Y009471D03*
X028721Y010221D03*
X028221Y007721D03*
X028221Y006721D03*
X032721Y005721D03*
X033721Y005721D03*
X034721Y005721D03*
X035721Y005721D03*
X036721Y005721D03*
X037721Y005721D03*
X038721Y005721D03*
X023221Y016221D03*
X022221Y016221D03*
X021221Y016221D03*
X020221Y016221D03*
X019221Y016221D03*
X018221Y016221D03*
X018221Y018221D03*
X019221Y018221D03*
X021221Y018221D03*
X022221Y018221D03*
X023221Y018221D03*
X017221Y018221D03*
X017721Y032221D03*
X018971Y032221D03*
X018971Y033221D03*
X017721Y033221D03*
X016471Y033221D03*
X016471Y032221D03*
X020471Y032221D03*
X020471Y033221D03*
X021721Y033221D03*
X021721Y032221D03*
X025471Y032221D03*
X025471Y033221D03*
D12*
X030221Y027221D03*
X038721Y014721D03*
X012721Y032221D03*
D13*
X007386Y029735D03*
D14*
X007386Y020207D03*
D15*
X036008Y021890D03*
X036796Y021890D03*
X037583Y021890D03*
X038370Y021890D03*
X039158Y021890D03*
X039945Y021890D03*
X040733Y021890D03*
X041520Y021890D03*
X042307Y021890D03*
X043095Y021890D03*
X043095Y030551D03*
X042307Y030551D03*
X041520Y030551D03*
X040733Y030551D03*
X039945Y030551D03*
X039158Y030551D03*
X038370Y030551D03*
X037583Y030551D03*
X036796Y030551D03*
X036008Y030551D03*
D16*
X042471Y034471D03*
X042471Y006971D03*
X006971Y034471D03*
D17*
X026721Y033221D03*
X027721Y033221D03*
X028721Y033221D03*
X029721Y033221D03*
X030721Y033221D03*
X031721Y033221D03*
X031721Y032221D03*
X031721Y031221D03*
X030721Y031221D03*
X030721Y032221D03*
X029721Y032221D03*
X029721Y031221D03*
X028721Y031221D03*
X028721Y032221D03*
X027721Y032221D03*
X027721Y031221D03*
X026721Y031221D03*
X026721Y032221D03*
D18*
X033721Y011221D03*
X034721Y011221D03*
X035721Y011221D03*
X036721Y011221D03*
X037721Y011221D03*
X037721Y010221D03*
X036721Y010221D03*
X035721Y010221D03*
X034721Y010221D03*
X033721Y010221D03*
D19*
X039971Y031971D03*
X010721Y034221D03*
D20*
X009721Y034221D03*
X039971Y032971D03*
M02*
