G75*
G70*
%OFA0B0*%
%FSLAX24Y24*%
%IPPOS*%
%LPD*%
%AMOC8*
5,1,8,0,0,1.08239X$1,22.5*
%
%ADD10C,0.0000*%
%ADD11C,0.0100*%
%ADD12C,0.0120*%
%ADD13C,0.0030*%
%ADD14C,0.0040*%
%ADD15C,0.0160*%
%ADD16C,0.0060*%
%ADD17C,0.0020*%
%ADD18C,0.0080*%
%ADD19C,0.0050*%
%ADD20C,0.0200*%
%ADD21C,0.0010*%
D10*
X005721Y015221D02*
X025721Y015221D01*
X025765Y015219D01*
X025808Y015213D01*
X025850Y015204D01*
X025892Y015191D01*
X025932Y015174D01*
X025971Y015154D01*
X026008Y015131D01*
X026042Y015104D01*
X026075Y015075D01*
X026104Y015042D01*
X026131Y015008D01*
X026154Y014971D01*
X026174Y014932D01*
X026191Y014892D01*
X026204Y014850D01*
X026213Y014808D01*
X026219Y014765D01*
X026221Y014721D01*
X026221Y005721D01*
X026223Y005677D01*
X026229Y005634D01*
X026238Y005592D01*
X026251Y005550D01*
X026268Y005510D01*
X026288Y005471D01*
X026311Y005434D01*
X026338Y005400D01*
X026367Y005367D01*
X026400Y005338D01*
X026434Y005311D01*
X026471Y005288D01*
X026510Y005268D01*
X026550Y005251D01*
X026592Y005238D01*
X026634Y005229D01*
X026677Y005223D01*
X026721Y005221D01*
X042471Y005221D01*
X042554Y005223D01*
X042637Y005229D01*
X042720Y005239D01*
X042802Y005253D01*
X042884Y005270D01*
X042964Y005292D01*
X043043Y005317D01*
X043121Y005346D01*
X043198Y005379D01*
X043273Y005416D01*
X043346Y005455D01*
X043417Y005499D01*
X043486Y005545D01*
X043553Y005595D01*
X043617Y005648D01*
X043679Y005704D01*
X043738Y005763D01*
X043794Y005825D01*
X043847Y005889D01*
X043897Y005956D01*
X043943Y006025D01*
X043987Y006096D01*
X044026Y006169D01*
X044063Y006244D01*
X044096Y006321D01*
X044125Y006399D01*
X044150Y006478D01*
X044172Y006558D01*
X044189Y006640D01*
X044203Y006722D01*
X044213Y006805D01*
X044219Y006888D01*
X044221Y006971D01*
X044221Y034471D01*
X044219Y034554D01*
X044213Y034637D01*
X044203Y034720D01*
X044189Y034802D01*
X044172Y034884D01*
X044150Y034964D01*
X044125Y035043D01*
X044096Y035121D01*
X044063Y035198D01*
X044026Y035273D01*
X043987Y035346D01*
X043943Y035417D01*
X043897Y035486D01*
X043847Y035553D01*
X043794Y035617D01*
X043738Y035679D01*
X043679Y035738D01*
X043617Y035794D01*
X043553Y035847D01*
X043486Y035897D01*
X043417Y035943D01*
X043346Y035987D01*
X043273Y036026D01*
X043198Y036063D01*
X043121Y036096D01*
X043043Y036125D01*
X042964Y036150D01*
X042884Y036172D01*
X042802Y036189D01*
X042720Y036203D01*
X042637Y036213D01*
X042554Y036219D01*
X042471Y036221D01*
X006971Y036221D01*
X006888Y036219D01*
X006805Y036213D01*
X006722Y036203D01*
X006640Y036189D01*
X006558Y036172D01*
X006478Y036150D01*
X006399Y036125D01*
X006321Y036096D01*
X006244Y036063D01*
X006169Y036026D01*
X006096Y035987D01*
X006025Y035943D01*
X005956Y035897D01*
X005889Y035847D01*
X005825Y035794D01*
X005763Y035738D01*
X005704Y035679D01*
X005648Y035617D01*
X005595Y035553D01*
X005545Y035486D01*
X005499Y035417D01*
X005455Y035346D01*
X005416Y035273D01*
X005379Y035198D01*
X005346Y035121D01*
X005317Y035043D01*
X005292Y034964D01*
X005270Y034884D01*
X005253Y034802D01*
X005239Y034720D01*
X005229Y034637D01*
X005223Y034554D01*
X005221Y034471D01*
X005221Y015721D01*
X005223Y015677D01*
X005229Y015634D01*
X005238Y015592D01*
X005251Y015550D01*
X005268Y015510D01*
X005288Y015471D01*
X005311Y015434D01*
X005338Y015400D01*
X005367Y015367D01*
X005400Y015338D01*
X005434Y015311D01*
X005471Y015288D01*
X005510Y015268D01*
X005550Y015251D01*
X005592Y015238D01*
X005634Y015229D01*
X005677Y015223D01*
X005721Y015221D01*
X007130Y020207D02*
X007132Y020238D01*
X007138Y020269D01*
X007147Y020299D01*
X007160Y020328D01*
X007177Y020355D01*
X007197Y020379D01*
X007219Y020401D01*
X007245Y020420D01*
X007272Y020436D01*
X007301Y020448D01*
X007331Y020457D01*
X007362Y020462D01*
X007394Y020463D01*
X007425Y020460D01*
X007456Y020453D01*
X007486Y020443D01*
X007514Y020429D01*
X007540Y020411D01*
X007564Y020391D01*
X007585Y020367D01*
X007604Y020342D01*
X007619Y020314D01*
X007630Y020285D01*
X007638Y020254D01*
X007642Y020223D01*
X007642Y020191D01*
X007638Y020160D01*
X007630Y020129D01*
X007619Y020100D01*
X007604Y020072D01*
X007585Y020047D01*
X007564Y020023D01*
X007540Y020003D01*
X007514Y019985D01*
X007486Y019971D01*
X007456Y019961D01*
X007425Y019954D01*
X007394Y019951D01*
X007362Y019952D01*
X007331Y019957D01*
X007301Y019966D01*
X007272Y019978D01*
X007245Y019994D01*
X007219Y020013D01*
X007197Y020035D01*
X007177Y020059D01*
X007160Y020086D01*
X007147Y020115D01*
X007138Y020145D01*
X007132Y020176D01*
X007130Y020207D01*
X007032Y029735D02*
X007034Y029772D01*
X007040Y029809D01*
X007049Y029844D01*
X007063Y029879D01*
X007079Y029912D01*
X007100Y029943D01*
X007123Y029972D01*
X007149Y029998D01*
X007178Y030021D01*
X007209Y030042D01*
X007242Y030058D01*
X007277Y030072D01*
X007312Y030081D01*
X007349Y030087D01*
X007386Y030089D01*
X007423Y030087D01*
X007460Y030081D01*
X007495Y030072D01*
X007530Y030058D01*
X007563Y030042D01*
X007594Y030021D01*
X007623Y029998D01*
X007649Y029972D01*
X007672Y029943D01*
X007693Y029912D01*
X007709Y029879D01*
X007723Y029844D01*
X007732Y029809D01*
X007738Y029772D01*
X007740Y029735D01*
X007738Y029698D01*
X007732Y029661D01*
X007723Y029626D01*
X007709Y029591D01*
X007693Y029558D01*
X007672Y029527D01*
X007649Y029498D01*
X007623Y029472D01*
X007594Y029449D01*
X007563Y029428D01*
X007530Y029412D01*
X007495Y029398D01*
X007460Y029389D01*
X007423Y029383D01*
X007386Y029381D01*
X007349Y029383D01*
X007312Y029389D01*
X007277Y029398D01*
X007242Y029412D01*
X007209Y029428D01*
X007178Y029449D01*
X007149Y029472D01*
X007123Y029498D01*
X007100Y029527D01*
X007079Y029558D01*
X007063Y029591D01*
X007049Y029626D01*
X007040Y029661D01*
X007034Y029698D01*
X007032Y029735D01*
D11*
X025721Y015221D02*
X026866Y015221D01*
X027456Y015221D02*
X028601Y015221D01*
X029192Y015221D02*
X030337Y015221D01*
X030927Y015221D02*
X032072Y015221D01*
X032663Y015221D02*
X033808Y015221D01*
X034398Y015221D02*
X035543Y015221D01*
X036134Y015221D02*
X037279Y015221D01*
X037869Y015221D02*
X039014Y015221D01*
X039605Y015221D02*
X040749Y015221D01*
X041340Y015221D02*
X042485Y015221D01*
X043076Y015221D02*
X044220Y015221D01*
X028731Y007841D02*
X028551Y007841D01*
X027911Y007841D02*
X027711Y007841D01*
D12*
X031221Y007221D02*
X031721Y007471D01*
X031721Y006971D01*
X031221Y007221D01*
X032721Y007221D01*
X016559Y019361D02*
X015721Y019361D01*
X016559Y019361D02*
X016559Y030581D01*
X015721Y030581D01*
X014471Y030581D02*
X013221Y030581D01*
X012471Y030581D02*
X009721Y030581D01*
X008471Y030581D02*
X005221Y030581D01*
X005221Y019361D01*
X008221Y019361D01*
X009471Y019361D02*
X014471Y019361D01*
X033521Y034071D02*
X033721Y033821D01*
X033921Y034071D01*
X033721Y034221D02*
X033721Y033821D01*
X033721Y034221D02*
X035721Y034221D01*
D13*
X031906Y034180D02*
X031616Y034374D01*
X031712Y034475D02*
X031616Y034572D01*
X031906Y034572D01*
X031906Y034475D02*
X031906Y034669D01*
X031906Y034374D02*
X031616Y034180D01*
X031664Y034079D02*
X031761Y034079D01*
X031809Y034031D01*
X031809Y033886D01*
X031809Y033983D02*
X031906Y034079D01*
X031906Y033886D02*
X031616Y033886D01*
X031616Y034031D01*
X031664Y034079D01*
X030906Y033983D02*
X030616Y033983D01*
X030616Y034079D02*
X030616Y033886D01*
X030616Y034180D02*
X030906Y034374D01*
X030906Y034475D02*
X030906Y034669D01*
X030906Y034572D02*
X030616Y034572D01*
X030712Y034475D01*
X030616Y034374D02*
X030906Y034180D01*
X031499Y030456D02*
X031746Y030086D01*
X031867Y030086D02*
X032114Y030333D01*
X032114Y030394D01*
X032053Y030456D01*
X031929Y030456D01*
X031867Y030394D01*
X031746Y030456D02*
X031499Y030086D01*
X031867Y030086D02*
X032114Y030086D01*
X028106Y029276D02*
X027982Y029091D01*
X027859Y029276D01*
X027735Y029091D02*
X028106Y029091D01*
X028044Y028969D02*
X028106Y028908D01*
X028106Y028784D01*
X028044Y028722D01*
X027797Y028969D01*
X028044Y028969D01*
X028044Y028722D02*
X027797Y028722D01*
X027735Y028784D01*
X027735Y028908D01*
X027797Y028969D01*
X027797Y028601D02*
X027735Y028539D01*
X027735Y028416D01*
X027797Y028354D01*
X028044Y028354D01*
X027797Y028601D01*
X028044Y028601D01*
X028106Y028539D01*
X028106Y028416D01*
X028044Y028354D01*
X028106Y028233D02*
X028106Y027986D01*
X028106Y028109D02*
X027735Y028109D01*
X027859Y027986D01*
X026706Y027986D02*
X026335Y027986D01*
X026335Y028171D01*
X026397Y028233D01*
X026521Y028233D01*
X026582Y028171D01*
X026582Y027986D01*
X026582Y028109D02*
X026706Y028233D01*
X026644Y028354D02*
X026706Y028416D01*
X026706Y028539D01*
X026644Y028601D01*
X026521Y028601D01*
X026459Y028539D01*
X026459Y028478D01*
X026521Y028354D01*
X026335Y028354D01*
X026335Y028601D01*
X022706Y031236D02*
X022335Y031236D01*
X022335Y031421D01*
X022397Y031483D01*
X022521Y031483D01*
X022582Y031421D01*
X022582Y031236D01*
X022582Y031359D02*
X022706Y031483D01*
X022644Y031604D02*
X022706Y031666D01*
X022706Y031789D01*
X022644Y031851D01*
X022582Y031851D01*
X022521Y031789D01*
X022521Y031728D01*
X022521Y031789D02*
X022459Y031851D01*
X022397Y031851D01*
X022335Y031789D01*
X022335Y031666D01*
X022397Y031604D01*
X022459Y032236D02*
X022335Y032359D01*
X022706Y032359D01*
X022706Y032236D02*
X022706Y032483D01*
X022644Y032604D02*
X022706Y032666D01*
X022706Y032789D01*
X022644Y032851D01*
X022397Y032851D01*
X022644Y032604D01*
X022397Y032604D01*
X022335Y032666D01*
X022335Y032789D01*
X022397Y032851D01*
X022397Y032972D02*
X022335Y033034D01*
X022335Y033158D01*
X022397Y033219D01*
X022644Y032972D01*
X022706Y033034D01*
X022706Y033158D01*
X022644Y033219D01*
X022397Y033219D01*
X022335Y033341D02*
X022706Y033341D01*
X022582Y033341D02*
X022706Y033526D01*
X022582Y033341D02*
X022459Y033526D01*
X022461Y033886D02*
X022510Y033934D01*
X022510Y033983D01*
X022461Y034031D01*
X022316Y034031D01*
X022316Y033934D01*
X022364Y033886D01*
X022461Y033886D01*
X022316Y034031D02*
X022413Y034128D01*
X022510Y034176D01*
X022215Y034128D02*
X022167Y034176D01*
X022070Y034176D01*
X022021Y034128D01*
X022021Y033934D01*
X022070Y033886D01*
X022167Y033886D01*
X022215Y033934D01*
X022215Y034128D01*
X022019Y034334D02*
X022019Y034383D01*
X021970Y034431D01*
X021873Y034431D01*
X021825Y034479D01*
X021825Y034528D01*
X021873Y034576D01*
X021970Y034576D01*
X022019Y034528D01*
X022019Y034479D01*
X021970Y034431D01*
X021873Y034431D02*
X021825Y034383D01*
X021825Y034334D01*
X021873Y034286D01*
X021970Y034286D01*
X022019Y034334D01*
X021922Y034176D02*
X021825Y034176D01*
X021873Y034176D02*
X021873Y033886D01*
X021825Y033886D02*
X021922Y033886D01*
X021724Y034031D02*
X021676Y033983D01*
X021530Y033983D01*
X021530Y033886D02*
X021530Y034176D01*
X021676Y034176D01*
X021724Y034128D01*
X021724Y034031D01*
X021429Y034031D02*
X021429Y033934D01*
X021381Y033886D01*
X021284Y033886D01*
X021236Y033934D01*
X021236Y034128D01*
X021284Y034176D01*
X021381Y034176D01*
X021429Y034128D01*
X021429Y034031D02*
X021333Y034031D01*
X021333Y034286D02*
X021381Y034334D01*
X021381Y034576D01*
X021333Y034576D02*
X021429Y034576D01*
X021530Y034576D02*
X021676Y034576D01*
X021724Y034528D01*
X021724Y034431D01*
X021676Y034383D01*
X021530Y034383D01*
X021530Y034286D02*
X021530Y034576D01*
X021333Y034286D02*
X021284Y034286D01*
X021236Y034334D01*
X021010Y034128D02*
X021010Y034079D01*
X020961Y034031D01*
X020864Y034031D01*
X020816Y034079D01*
X020816Y034128D01*
X020864Y034176D01*
X020961Y034176D01*
X021010Y034128D01*
X020961Y034031D02*
X021010Y033983D01*
X021010Y033934D01*
X020961Y033886D01*
X020864Y033886D01*
X020816Y033934D01*
X020816Y033983D01*
X020864Y034031D01*
X020715Y034128D02*
X020667Y034176D01*
X020570Y034176D01*
X020521Y034128D01*
X020521Y033934D01*
X020570Y033886D01*
X020667Y033886D01*
X020715Y033934D01*
X020715Y034128D01*
X020519Y034334D02*
X020519Y034383D01*
X020470Y034431D01*
X020325Y034431D01*
X020325Y034334D01*
X020373Y034286D01*
X020470Y034286D01*
X020519Y034334D01*
X020422Y034176D02*
X020325Y034176D01*
X020373Y034176D02*
X020373Y033886D01*
X020325Y033886D02*
X020422Y033886D01*
X020224Y034031D02*
X020176Y033983D01*
X020030Y033983D01*
X020030Y033886D02*
X020030Y034176D01*
X020176Y034176D01*
X020224Y034128D01*
X020224Y034031D01*
X019929Y034031D02*
X019929Y033934D01*
X019881Y033886D01*
X019784Y033886D01*
X019736Y033934D01*
X019736Y034128D01*
X019784Y034176D01*
X019881Y034176D01*
X019929Y034128D01*
X019929Y034031D02*
X019833Y034031D01*
X019833Y034286D02*
X019881Y034334D01*
X019881Y034576D01*
X019833Y034576D02*
X019929Y034576D01*
X020030Y034576D02*
X020176Y034576D01*
X020224Y034528D01*
X020224Y034431D01*
X020176Y034383D01*
X020030Y034383D01*
X020030Y034286D02*
X020030Y034576D01*
X020325Y034431D02*
X020422Y034528D01*
X020519Y034576D01*
X019833Y034286D02*
X019784Y034286D01*
X019736Y034334D01*
X022397Y032972D02*
X022644Y032972D01*
X023427Y034262D02*
X023572Y034359D01*
X023427Y034456D01*
X023572Y034456D02*
X023572Y034166D01*
X023673Y034214D02*
X023866Y034407D01*
X023818Y034456D01*
X023721Y034456D01*
X023673Y034407D01*
X023673Y034214D01*
X023721Y034166D01*
X023818Y034166D01*
X023866Y034214D01*
X023866Y034407D01*
X023968Y034407D02*
X024016Y034456D01*
X024113Y034456D01*
X024161Y034407D01*
X023968Y034214D01*
X023968Y034407D01*
X023968Y034214D02*
X024016Y034166D01*
X024113Y034166D01*
X024161Y034214D01*
X024161Y034407D01*
X024262Y034456D02*
X024456Y034456D01*
X024359Y034456D02*
X024359Y034166D01*
X024456Y034262D01*
X024456Y033956D02*
X024456Y033666D01*
X024311Y033666D01*
X024262Y033714D01*
X024262Y033811D01*
X024311Y033859D01*
X024456Y033859D01*
X024359Y033859D02*
X024262Y033956D01*
X024161Y033811D02*
X023968Y033811D01*
X024016Y033956D02*
X024016Y033666D01*
X024161Y033811D01*
X024986Y033934D02*
X025034Y033886D01*
X025131Y033886D01*
X025179Y033934D01*
X025179Y034031D01*
X025083Y034031D01*
X025179Y034128D02*
X025131Y034176D01*
X025034Y034176D01*
X024986Y034128D01*
X024986Y033934D01*
X025280Y033886D02*
X025280Y034176D01*
X025426Y034176D01*
X025474Y034128D01*
X025474Y034031D01*
X025426Y033983D01*
X025280Y033983D01*
X025280Y034286D02*
X025280Y034576D01*
X025426Y034576D01*
X025474Y034528D01*
X025474Y034431D01*
X025426Y034383D01*
X025280Y034383D01*
X025131Y034334D02*
X025131Y034576D01*
X025083Y034576D02*
X025179Y034576D01*
X025131Y034334D02*
X025083Y034286D01*
X025034Y034286D01*
X024986Y034334D01*
X025575Y034334D02*
X025623Y034286D01*
X025720Y034286D01*
X025769Y034334D01*
X025769Y034431D01*
X025720Y034479D01*
X025672Y034479D01*
X025575Y034431D01*
X025575Y034576D01*
X025769Y034576D01*
X025820Y034176D02*
X025771Y034128D01*
X025771Y033934D01*
X025820Y033886D01*
X025917Y033886D01*
X025965Y033934D01*
X025965Y034128D01*
X025917Y034176D01*
X025820Y034176D01*
X025672Y034176D02*
X025575Y034176D01*
X025623Y034176D02*
X025623Y033886D01*
X025575Y033886D02*
X025672Y033886D01*
X026066Y033934D02*
X026114Y033886D01*
X026211Y033886D01*
X026260Y033934D01*
X026260Y034031D01*
X026211Y034079D01*
X026163Y034079D01*
X026066Y034031D01*
X026066Y034176D01*
X026260Y034176D01*
X019606Y031364D02*
X019606Y031240D01*
X019606Y031302D02*
X019235Y031302D01*
X019235Y031240D02*
X019235Y031364D01*
X019297Y031119D02*
X019235Y031057D01*
X019235Y030934D01*
X019297Y030872D01*
X019359Y030872D01*
X019421Y030934D01*
X019421Y031057D01*
X019482Y031119D01*
X019544Y031119D01*
X019606Y031057D01*
X019606Y030934D01*
X019544Y030872D01*
X019544Y030750D02*
X019297Y030750D01*
X019235Y030689D01*
X019235Y030565D01*
X019297Y030504D01*
X019544Y030504D01*
X019606Y030565D01*
X019606Y030689D01*
X019544Y030750D01*
X019606Y030382D02*
X019235Y030382D01*
X019359Y030259D01*
X019235Y030135D01*
X019606Y030135D01*
X018356Y030135D02*
X017985Y030135D01*
X018109Y030259D01*
X017985Y030382D01*
X018356Y030382D01*
X018356Y030504D02*
X018356Y030627D01*
X018356Y030565D02*
X017985Y030565D01*
X017985Y030504D02*
X017985Y030627D01*
X018047Y030749D02*
X018109Y030749D01*
X018171Y030811D01*
X018171Y030934D01*
X018232Y030996D01*
X018294Y030996D01*
X018356Y030934D01*
X018356Y030811D01*
X018294Y030749D01*
X018047Y030749D02*
X017985Y030811D01*
X017985Y030934D01*
X018047Y030996D01*
X018047Y031117D02*
X018294Y031117D01*
X018356Y031179D01*
X018356Y031303D01*
X018294Y031364D01*
X018047Y031364D01*
X017985Y031303D01*
X017985Y031179D01*
X018047Y031117D01*
X018082Y028851D02*
X018144Y028851D01*
X018206Y028789D01*
X018206Y028666D01*
X018144Y028604D01*
X018082Y028604D01*
X018021Y028666D01*
X018021Y028789D01*
X018082Y028851D01*
X018021Y028789D02*
X017959Y028851D01*
X017897Y028851D01*
X017835Y028789D01*
X017835Y028666D01*
X017897Y028604D01*
X017959Y028604D01*
X018021Y028666D01*
X018144Y028483D02*
X018206Y028421D01*
X018206Y028297D01*
X018144Y028236D01*
X017897Y028236D01*
X017835Y028297D01*
X017835Y028421D01*
X017897Y028483D01*
X018459Y028276D02*
X018521Y028338D01*
X018706Y028338D01*
X018706Y028091D02*
X018459Y028091D01*
X018459Y028276D01*
X018397Y027969D02*
X018644Y027722D01*
X018706Y027784D01*
X018706Y027908D01*
X018644Y027969D01*
X018397Y027969D01*
X018335Y027908D01*
X018335Y027784D01*
X018397Y027722D01*
X018644Y027722D01*
X018644Y027601D02*
X018706Y027539D01*
X018706Y027416D01*
X018644Y027354D01*
X018397Y027601D01*
X018644Y027601D01*
X018397Y027601D02*
X018335Y027539D01*
X018335Y027416D01*
X018397Y027354D01*
X018644Y027354D01*
X018706Y027233D02*
X018706Y026986D01*
X018706Y027109D02*
X018335Y027109D01*
X018459Y026986D01*
X019521Y025088D02*
X019706Y025088D01*
X019521Y025088D02*
X019459Y025026D01*
X019459Y024841D01*
X019706Y024841D01*
X019644Y024719D02*
X019706Y024658D01*
X019706Y024534D01*
X019644Y024472D01*
X019397Y024719D01*
X019644Y024719D01*
X019644Y024472D02*
X019397Y024472D01*
X019335Y024534D01*
X019335Y024658D01*
X019397Y024719D01*
X019397Y024351D02*
X019644Y024104D01*
X019706Y024166D01*
X019706Y024289D01*
X019644Y024351D01*
X019397Y024351D01*
X019335Y024289D01*
X019335Y024166D01*
X019397Y024104D01*
X019644Y024104D01*
X019706Y023983D02*
X019706Y023736D01*
X019706Y023859D02*
X019335Y023859D01*
X019459Y023736D01*
X019771Y023088D02*
X019956Y023088D01*
X019771Y023088D02*
X019709Y023026D01*
X019709Y022841D01*
X019956Y022841D01*
X019894Y022719D02*
X019956Y022658D01*
X019956Y022534D01*
X019894Y022472D01*
X019647Y022719D01*
X019894Y022719D01*
X019894Y022472D02*
X019647Y022472D01*
X019585Y022534D01*
X019585Y022658D01*
X019647Y022719D01*
X019647Y022351D02*
X019894Y022104D01*
X019956Y022166D01*
X019956Y022289D01*
X019894Y022351D01*
X019647Y022351D01*
X019585Y022289D01*
X019585Y022166D01*
X019647Y022104D01*
X019894Y022104D01*
X019956Y021983D02*
X019956Y021736D01*
X019956Y021859D02*
X019585Y021859D01*
X019709Y021736D01*
X019771Y021351D02*
X019771Y021166D01*
X019709Y021104D01*
X019647Y021104D01*
X019585Y021166D01*
X019585Y021289D01*
X019647Y021351D01*
X019894Y021351D01*
X019956Y021289D01*
X019956Y021166D01*
X019894Y021104D01*
X019894Y020983D02*
X019956Y020921D01*
X019956Y020797D01*
X019894Y020736D01*
X019647Y020736D01*
X019585Y020797D01*
X019585Y020921D01*
X019647Y020983D01*
X018144Y023736D02*
X018206Y023797D01*
X018206Y023921D01*
X018144Y023983D01*
X018021Y024104D02*
X018021Y024351D01*
X018206Y024289D02*
X017835Y024289D01*
X018021Y024104D01*
X017897Y023983D02*
X017835Y023921D01*
X017835Y023797D01*
X017897Y023736D01*
X018144Y023736D01*
X021236Y024736D02*
X021236Y025106D01*
X021421Y025106D01*
X021483Y025044D01*
X021483Y024921D01*
X021421Y024859D01*
X021236Y024859D01*
X021359Y024859D02*
X021483Y024736D01*
X021604Y024736D02*
X021851Y024736D01*
X021728Y024736D02*
X021728Y025106D01*
X021604Y024983D01*
X022236Y024983D02*
X022359Y025106D01*
X022359Y024736D01*
X022236Y024736D02*
X022483Y024736D01*
X022604Y024797D02*
X022851Y025044D01*
X022851Y024797D01*
X022789Y024736D01*
X022666Y024736D01*
X022604Y024797D01*
X022604Y025044D01*
X022666Y025106D01*
X022789Y025106D01*
X022851Y025044D01*
X022972Y025044D02*
X023034Y025106D01*
X023158Y025106D01*
X023219Y025044D01*
X022972Y024797D01*
X023034Y024736D01*
X023158Y024736D01*
X023219Y024797D01*
X023219Y025044D01*
X023341Y025106D02*
X023341Y024736D01*
X023341Y024859D02*
X023526Y024983D01*
X023341Y024859D02*
X023526Y024736D01*
X022972Y024797D02*
X022972Y025044D01*
X024236Y025106D02*
X024236Y024736D01*
X024236Y024859D02*
X024421Y024859D01*
X024483Y024921D01*
X024483Y025044D01*
X024421Y025106D01*
X024236Y025106D01*
X024359Y024859D02*
X024483Y024736D01*
X024604Y024736D02*
X024851Y024983D01*
X024851Y025044D01*
X024789Y025106D01*
X024666Y025106D01*
X024604Y025044D01*
X024604Y024736D02*
X024851Y024736D01*
X025236Y024736D02*
X025483Y024736D01*
X025359Y024736D02*
X025359Y025106D01*
X025236Y024983D01*
X025604Y025044D02*
X025666Y025106D01*
X025789Y025106D01*
X025851Y025044D01*
X025604Y024797D01*
X025666Y024736D01*
X025789Y024736D01*
X025851Y024797D01*
X025851Y025044D01*
X025972Y025044D02*
X026034Y025106D01*
X026158Y025106D01*
X026219Y025044D01*
X025972Y024797D01*
X026034Y024736D01*
X026158Y024736D01*
X026219Y024797D01*
X026219Y025044D01*
X026341Y025106D02*
X026341Y024736D01*
X026341Y024859D02*
X026526Y024983D01*
X026341Y024859D02*
X026526Y024736D01*
X025972Y024797D02*
X025972Y025044D01*
X025604Y025044D02*
X025604Y024797D01*
X033335Y019408D02*
X033397Y019469D01*
X033644Y019222D01*
X033706Y019284D01*
X033706Y019408D01*
X033644Y019469D01*
X033397Y019469D01*
X033335Y019408D02*
X033335Y019284D01*
X033397Y019222D01*
X033644Y019222D01*
X033706Y019101D02*
X033706Y018854D01*
X033706Y018978D02*
X033335Y018978D01*
X033459Y018854D01*
X033397Y018733D02*
X033335Y018671D01*
X033335Y018547D01*
X033397Y018486D01*
X033644Y018486D01*
X033706Y018547D01*
X033706Y018671D01*
X033644Y018733D01*
X034735Y018609D02*
X035106Y018609D01*
X035106Y018486D02*
X035106Y018733D01*
X035044Y018854D02*
X034797Y019101D01*
X035044Y019101D01*
X035106Y019039D01*
X035106Y018916D01*
X035044Y018854D01*
X034797Y018854D01*
X034735Y018916D01*
X034735Y019039D01*
X034797Y019101D01*
X034797Y019222D02*
X034735Y019284D01*
X034735Y019408D01*
X034797Y019469D01*
X035044Y019222D01*
X035106Y019284D01*
X035106Y019408D01*
X035044Y019469D01*
X034797Y019469D01*
X034859Y019591D02*
X034859Y019776D01*
X034921Y019838D01*
X035106Y019838D01*
X035106Y019591D02*
X034859Y019591D01*
X034797Y019222D02*
X035044Y019222D01*
X034735Y018609D02*
X034859Y018486D01*
X037047Y008356D02*
X036986Y008294D01*
X036986Y008047D01*
X037047Y007986D01*
X037171Y007986D01*
X037233Y008047D01*
X037354Y008047D02*
X037416Y007986D01*
X037539Y007986D01*
X037601Y008047D01*
X037601Y008171D01*
X037539Y008233D01*
X037478Y008233D01*
X037354Y008171D01*
X037354Y008356D01*
X037601Y008356D01*
X037233Y008294D02*
X037171Y008356D01*
X037047Y008356D01*
X037109Y006956D02*
X037109Y006586D01*
X036986Y006586D02*
X037233Y006586D01*
X037354Y006647D02*
X037601Y006894D01*
X037601Y006647D01*
X037539Y006586D01*
X037416Y006586D01*
X037354Y006647D01*
X037354Y006894D01*
X037416Y006956D01*
X037539Y006956D01*
X037601Y006894D01*
X037722Y006894D02*
X037784Y006956D01*
X037908Y006956D01*
X037969Y006894D01*
X037722Y006647D01*
X037784Y006586D01*
X037908Y006586D01*
X037969Y006647D01*
X037969Y006894D01*
X038091Y006833D02*
X038276Y006833D01*
X038338Y006771D01*
X038338Y006586D01*
X038091Y006586D02*
X038091Y006833D01*
X037722Y006894D02*
X037722Y006647D01*
X037109Y006956D02*
X036986Y006833D01*
X030101Y007297D02*
X030039Y007236D01*
X029916Y007236D01*
X029854Y007297D01*
X029854Y007421D01*
X030039Y007421D01*
X030101Y007359D01*
X030101Y007297D01*
X029978Y007544D02*
X029854Y007421D01*
X029733Y007421D02*
X029671Y007359D01*
X029486Y007359D01*
X029609Y007359D02*
X029733Y007236D01*
X029733Y007421D02*
X029733Y007544D01*
X029671Y007606D01*
X029486Y007606D01*
X029486Y007236D01*
X029978Y007544D02*
X030101Y007606D01*
X029854Y006206D02*
X029854Y005836D01*
X029733Y005836D02*
X029486Y005836D01*
X029609Y005836D02*
X029609Y006206D01*
X029486Y006083D01*
X029854Y005959D02*
X030039Y006083D01*
X029854Y005959D02*
X030039Y005836D01*
X019499Y016986D02*
X019376Y016986D01*
X019314Y017047D01*
X019192Y017109D02*
X019192Y017356D01*
X019314Y017294D02*
X019376Y017356D01*
X019499Y017356D01*
X019561Y017294D01*
X019561Y017233D01*
X019499Y017171D01*
X019561Y017109D01*
X019561Y017047D01*
X019499Y016986D01*
X019499Y017171D02*
X019437Y017171D01*
X019192Y017109D02*
X019069Y016986D01*
X018946Y017109D01*
X018946Y017356D01*
X018824Y017294D02*
X018824Y017233D01*
X018762Y017171D01*
X018824Y017109D01*
X018824Y017047D01*
X018762Y016986D01*
X018639Y016986D01*
X018577Y017047D01*
X018701Y017171D02*
X018762Y017171D01*
X018824Y017294D02*
X018762Y017356D01*
X018639Y017356D01*
X018577Y017294D01*
X018456Y017356D02*
X018209Y016986D01*
X018088Y017047D02*
X018088Y017171D01*
X017964Y017171D01*
X017841Y017294D02*
X017841Y017047D01*
X017902Y016986D01*
X018026Y016986D01*
X018088Y017047D01*
X018088Y017294D02*
X018026Y017356D01*
X017902Y017356D01*
X017841Y017294D01*
X017719Y017356D02*
X017472Y017356D01*
X017472Y016986D01*
X017719Y016986D01*
X017596Y017171D02*
X017472Y017171D01*
X017351Y017171D02*
X017289Y017109D01*
X017104Y017109D01*
X016983Y017109D02*
X016983Y017356D01*
X017104Y017356D02*
X017289Y017356D01*
X017351Y017294D01*
X017351Y017171D01*
X017228Y017109D02*
X017351Y016986D01*
X017104Y016986D02*
X017104Y017356D01*
X016983Y017109D02*
X016859Y016986D01*
X016736Y017109D01*
X016736Y017356D01*
X016101Y017736D02*
X016101Y017983D01*
X015854Y017983D02*
X015854Y017797D01*
X015916Y017736D01*
X016101Y017736D01*
X015733Y017736D02*
X015486Y017736D01*
X015609Y017736D02*
X015609Y018106D01*
X015486Y017983D01*
X015547Y018236D02*
X015671Y018236D01*
X015733Y018297D01*
X015854Y018236D02*
X016101Y018483D01*
X016101Y018544D01*
X016039Y018606D01*
X015916Y018606D01*
X015854Y018544D01*
X015733Y018544D02*
X015671Y018606D01*
X015547Y018606D01*
X015486Y018544D01*
X015486Y018297D01*
X015547Y018236D01*
X015854Y018236D02*
X016101Y018236D01*
X014601Y018236D02*
X014354Y018236D01*
X014478Y018236D02*
X014478Y018606D01*
X014354Y018483D01*
X014233Y018544D02*
X014171Y018606D01*
X014047Y018606D01*
X013986Y018544D01*
X013986Y018297D01*
X014047Y018236D01*
X014171Y018236D01*
X014233Y018297D01*
X014109Y018106D02*
X014109Y017736D01*
X013986Y017736D02*
X014233Y017736D01*
X014354Y017797D02*
X014416Y017736D01*
X014601Y017736D01*
X014601Y017983D01*
X014354Y017983D02*
X014354Y017797D01*
X014109Y018106D02*
X013986Y017983D01*
X013824Y018716D02*
X013577Y018716D01*
X013824Y018963D01*
X013824Y019024D01*
X013762Y019086D01*
X013639Y019086D01*
X013577Y019024D01*
X013456Y019086D02*
X013332Y019024D01*
X013209Y018901D01*
X013394Y018901D01*
X013456Y018839D01*
X013456Y018777D01*
X013394Y018716D01*
X013271Y018716D01*
X013209Y018777D01*
X013209Y018901D01*
X013088Y018963D02*
X013088Y019024D01*
X013026Y019086D01*
X012902Y019086D01*
X012841Y019024D01*
X012596Y019086D02*
X012596Y018716D01*
X012719Y018716D02*
X012472Y018716D01*
X012351Y018777D02*
X012289Y018716D01*
X012166Y018716D01*
X012104Y018777D01*
X012104Y019024D01*
X012166Y019086D01*
X012289Y019086D01*
X012351Y019024D01*
X012472Y018963D02*
X012596Y019086D01*
X012841Y018716D02*
X013088Y018963D01*
X013088Y018716D02*
X012841Y018716D01*
X011983Y019086D02*
X011736Y019086D01*
X011859Y019086D02*
X011859Y018716D01*
X011096Y018736D02*
X010850Y018736D01*
X010973Y018736D02*
X010973Y019106D01*
X010850Y018983D01*
X010728Y019044D02*
X010666Y019106D01*
X010543Y019106D01*
X010481Y019044D01*
X010481Y018797D01*
X010543Y018736D01*
X010666Y018736D01*
X010728Y018797D01*
X010359Y018736D02*
X010236Y018736D01*
X010297Y018736D02*
X010297Y019106D01*
X010236Y019106D02*
X010359Y019106D01*
X013497Y031986D02*
X013744Y031986D01*
X013806Y032047D01*
X013806Y032171D01*
X013744Y032233D01*
X013744Y032354D02*
X013806Y032416D01*
X013806Y032539D01*
X013744Y032601D01*
X013682Y032601D01*
X013621Y032539D01*
X013621Y032416D01*
X013559Y032354D01*
X013497Y032354D01*
X013435Y032416D01*
X013435Y032539D01*
X013497Y032601D01*
X013497Y032233D02*
X013435Y032171D01*
X013435Y032047D01*
X013497Y031986D01*
X012838Y033736D02*
X012838Y033983D01*
X012838Y033736D02*
X012652Y033736D01*
X012591Y033797D01*
X012591Y033983D01*
X012469Y034044D02*
X012222Y033797D01*
X012284Y033736D01*
X012408Y033736D01*
X012469Y033797D01*
X012469Y034044D01*
X012408Y034106D01*
X012284Y034106D01*
X012222Y034044D01*
X012222Y033797D01*
X012101Y033797D02*
X012101Y034044D01*
X011854Y033797D01*
X011916Y033736D01*
X012039Y033736D01*
X012101Y033797D01*
X011854Y033797D02*
X011854Y034044D01*
X011916Y034106D01*
X012039Y034106D01*
X012101Y034044D01*
X012039Y034236D02*
X011916Y034236D01*
X011854Y034297D01*
X011733Y034297D02*
X011671Y034236D01*
X011547Y034236D01*
X011486Y034297D01*
X011486Y034544D01*
X011547Y034606D01*
X011671Y034606D01*
X011733Y034544D01*
X011854Y034544D02*
X011916Y034606D01*
X012039Y034606D01*
X012101Y034544D01*
X012101Y034483D01*
X012039Y034421D01*
X012101Y034359D01*
X012101Y034297D01*
X012039Y034236D01*
X012039Y034421D02*
X011978Y034421D01*
X011609Y034106D02*
X011486Y033983D01*
X011609Y034106D02*
X011609Y033736D01*
X011486Y033736D02*
X011733Y033736D01*
X039835Y033797D02*
X039897Y033736D01*
X040144Y033736D01*
X040206Y033797D01*
X040206Y033921D01*
X040144Y033983D01*
X040144Y034104D02*
X040206Y034104D01*
X040144Y034104D02*
X039897Y034351D01*
X039835Y034351D01*
X039835Y034104D01*
X039897Y033983D02*
X039835Y033921D01*
X039835Y033797D01*
X040335Y033859D02*
X040706Y033859D01*
X040706Y033736D02*
X040706Y033983D01*
X040644Y034104D02*
X040397Y034351D01*
X040644Y034351D01*
X040706Y034289D01*
X040706Y034166D01*
X040644Y034104D01*
X040397Y034104D01*
X040335Y034166D01*
X040335Y034289D01*
X040397Y034351D01*
X040397Y034472D02*
X040335Y034534D01*
X040335Y034658D01*
X040397Y034719D01*
X040644Y034472D01*
X040706Y034534D01*
X040706Y034658D01*
X040644Y034719D01*
X040397Y034719D01*
X040459Y034841D02*
X040644Y034841D01*
X040706Y034902D01*
X040706Y035088D01*
X040459Y035088D01*
X040397Y034472D02*
X040644Y034472D01*
X040335Y033859D02*
X040459Y033736D01*
X041085Y032101D02*
X041147Y031978D01*
X041271Y031854D01*
X041271Y032039D01*
X041332Y032101D01*
X041394Y032101D01*
X041456Y032039D01*
X041456Y031916D01*
X041394Y031854D01*
X041271Y031854D01*
X041394Y031733D02*
X041456Y031671D01*
X041456Y031547D01*
X041394Y031486D01*
X041147Y031486D01*
X041085Y031547D01*
X041085Y031671D01*
X041147Y031733D01*
X041585Y031609D02*
X041709Y031486D01*
X041585Y031609D02*
X041956Y031609D01*
X041956Y031486D02*
X041956Y031733D01*
X041894Y031854D02*
X041956Y031916D01*
X041956Y032101D01*
X041709Y032101D01*
X041709Y031854D02*
X041894Y031854D01*
D14*
X043041Y029701D02*
X043501Y029701D01*
X043501Y029471D01*
X043424Y029394D01*
X043271Y029394D01*
X043194Y029471D01*
X043194Y029701D01*
X043041Y029240D02*
X043041Y029087D01*
X043041Y029164D02*
X043501Y029164D01*
X043501Y029240D02*
X043501Y029087D01*
X043501Y028934D02*
X043041Y028627D01*
X043501Y028627D01*
X043501Y028934D02*
X043041Y028934D01*
X043041Y028013D02*
X043041Y027706D01*
X043041Y027859D02*
X043501Y027859D01*
X043348Y028013D01*
X036968Y031817D02*
X036892Y031741D01*
X036738Y031741D01*
X036661Y031817D01*
X036738Y031971D02*
X036892Y031971D01*
X036968Y031894D01*
X036968Y031817D01*
X036738Y031971D02*
X036661Y032048D01*
X036661Y032124D01*
X036738Y032201D01*
X036892Y032201D01*
X036968Y032124D01*
X036508Y032201D02*
X036201Y032201D01*
X036355Y032201D02*
X036355Y031741D01*
X036048Y031741D02*
X035894Y031894D01*
X035971Y031894D02*
X035741Y031894D01*
X035741Y031741D02*
X035741Y032201D01*
X035971Y032201D01*
X036048Y032124D01*
X036048Y031971D01*
X035971Y031894D01*
X037817Y033991D02*
X037971Y033991D01*
X038048Y034067D01*
X037817Y033991D02*
X037741Y034067D01*
X037741Y034374D01*
X037817Y034451D01*
X037971Y034451D01*
X038048Y034374D01*
X038201Y034451D02*
X038508Y034451D01*
X038355Y034451D02*
X038355Y033991D01*
X038661Y034067D02*
X038738Y033991D01*
X038892Y033991D01*
X038968Y034067D01*
X038968Y034144D01*
X038892Y034221D01*
X038738Y034221D01*
X038661Y034298D01*
X038661Y034374D01*
X038738Y034451D01*
X038892Y034451D01*
X038968Y034374D01*
X032901Y033408D02*
X032440Y033101D01*
X032440Y032948D02*
X032440Y032641D01*
X032440Y032794D02*
X032901Y032794D01*
X032901Y033101D02*
X032440Y033408D01*
X032440Y032008D02*
X032901Y031701D01*
X032901Y031548D02*
X032747Y031394D01*
X032747Y031471D02*
X032747Y031241D01*
X032901Y031241D02*
X032440Y031241D01*
X032440Y031471D01*
X032517Y031548D01*
X032671Y031548D01*
X032747Y031471D01*
X032440Y031701D02*
X032901Y032008D01*
X029901Y034017D02*
X029824Y033941D01*
X029517Y034248D01*
X029824Y034248D01*
X029901Y034171D01*
X029901Y034017D01*
X029824Y033941D02*
X029517Y033941D01*
X029440Y034017D01*
X029440Y034171D01*
X029517Y034248D01*
X028901Y034248D02*
X028901Y033941D01*
X028901Y034094D02*
X028440Y034094D01*
X028594Y033941D01*
X027901Y033941D02*
X027901Y034248D01*
X027901Y033941D02*
X027594Y034248D01*
X027517Y034248D01*
X027440Y034171D01*
X027440Y034017D01*
X027517Y033941D01*
X026901Y034117D02*
X026824Y034041D01*
X026901Y034117D02*
X026901Y034271D01*
X026824Y034348D01*
X026747Y034348D01*
X026671Y034271D01*
X026671Y034194D01*
X026671Y034271D02*
X026594Y034348D01*
X026517Y034348D01*
X026440Y034271D01*
X026440Y034117D01*
X026517Y034041D01*
X026201Y029927D02*
X025841Y029927D01*
X025841Y029687D02*
X026201Y029687D01*
X026081Y029807D01*
X026201Y029927D01*
X026141Y029559D02*
X025901Y029559D01*
X025841Y029499D01*
X025841Y029319D01*
X026201Y029319D01*
X026201Y029499D01*
X026141Y029559D01*
X026021Y029191D02*
X026021Y028951D01*
X025841Y029131D01*
X026201Y029131D01*
X026021Y028823D02*
X026021Y028582D01*
X025841Y028762D01*
X026201Y028762D01*
X026201Y028454D02*
X026201Y028214D01*
X025961Y028454D01*
X025901Y028454D01*
X025841Y028394D01*
X025841Y028274D01*
X025901Y028214D01*
X025901Y028086D02*
X025841Y028026D01*
X025841Y027906D01*
X025901Y027846D01*
X026141Y027846D01*
X026201Y027906D01*
X026201Y028026D01*
X026141Y028086D01*
X026201Y027718D02*
X025841Y027718D01*
X026021Y027718D02*
X026021Y027477D01*
X026021Y027349D02*
X026021Y027109D01*
X025841Y027289D01*
X026201Y027289D01*
X026201Y027477D02*
X025841Y027477D01*
X025701Y027535D02*
X025701Y027415D01*
X025641Y027355D01*
X025641Y027226D02*
X025701Y027166D01*
X025701Y027046D01*
X025641Y026986D01*
X025401Y026986D01*
X025341Y027046D01*
X025341Y027166D01*
X025401Y027226D01*
X025401Y027355D02*
X025341Y027415D01*
X025341Y027535D01*
X025401Y027595D01*
X025461Y027595D01*
X025521Y027535D01*
X025581Y027595D01*
X025641Y027595D01*
X025701Y027535D01*
X025521Y027535D02*
X025521Y027475D01*
X025841Y026981D02*
X025901Y026981D01*
X026141Y026741D01*
X026201Y026741D01*
X025841Y026741D02*
X025841Y026981D01*
X025701Y026861D02*
X025701Y026741D01*
X025701Y026801D02*
X025341Y026801D01*
X025341Y026741D02*
X025341Y026861D01*
X026341Y023059D02*
X026341Y022819D01*
X026521Y022819D01*
X026461Y022939D01*
X026461Y022999D01*
X026521Y023059D01*
X026641Y023059D01*
X026701Y022999D01*
X026701Y022879D01*
X026641Y022819D01*
X026701Y022691D02*
X026701Y022451D01*
X026461Y022691D01*
X026401Y022691D01*
X026341Y022631D01*
X026341Y022511D01*
X026401Y022451D01*
X026341Y022202D02*
X026701Y022202D01*
X026701Y022082D02*
X026701Y022323D01*
X026461Y022082D02*
X026341Y022202D01*
X026341Y021954D02*
X026341Y021714D01*
X026341Y021834D02*
X026701Y021834D01*
X026641Y021586D02*
X026701Y021526D01*
X026701Y021406D01*
X026641Y021346D01*
X026401Y021346D01*
X026341Y021406D01*
X026341Y021526D01*
X026401Y021586D01*
X026341Y021218D02*
X026701Y021218D01*
X026521Y021218D02*
X026521Y020977D01*
X026521Y020849D02*
X026521Y020609D01*
X026341Y020789D01*
X026701Y020789D01*
X026701Y020977D02*
X026341Y020977D01*
X026201Y021095D02*
X026201Y020855D01*
X025961Y021095D01*
X025901Y021095D01*
X025841Y021035D01*
X025841Y020915D01*
X025901Y020855D01*
X025901Y020726D02*
X025841Y020666D01*
X025841Y020546D01*
X025901Y020486D01*
X026141Y020486D01*
X026201Y020546D01*
X026201Y020666D01*
X026141Y020726D01*
X026341Y020481D02*
X026401Y020481D01*
X026641Y020241D01*
X026701Y020241D01*
X026341Y020241D02*
X026341Y020481D01*
X026201Y020361D02*
X026201Y020241D01*
X026201Y020301D02*
X025841Y020301D01*
X025841Y020241D02*
X025841Y020361D01*
X026990Y019159D02*
X027221Y018929D01*
X027221Y019236D01*
X027451Y019159D02*
X026990Y019159D01*
X027067Y018775D02*
X026990Y018699D01*
X026990Y018545D01*
X027067Y018468D01*
X027374Y018468D01*
X027451Y018545D01*
X027451Y018699D01*
X027374Y018775D01*
X027067Y018775D01*
X026990Y018315D02*
X026990Y018161D01*
X026990Y018238D02*
X027451Y018238D01*
X027451Y018161D02*
X027451Y018315D01*
X027221Y018008D02*
X027297Y017931D01*
X027297Y017701D01*
X027451Y017701D02*
X026990Y017701D01*
X026990Y017931D01*
X027067Y018008D01*
X027221Y018008D01*
X027221Y017548D02*
X027221Y017394D01*
X027221Y017548D02*
X027374Y017548D01*
X027451Y017471D01*
X027451Y017317D01*
X027374Y017241D01*
X027067Y017241D01*
X026990Y017317D01*
X026990Y017471D01*
X027067Y017548D01*
X023656Y017451D02*
X023656Y016991D01*
X023349Y017451D01*
X023349Y016991D01*
X023196Y016991D02*
X023043Y016991D01*
X023119Y016991D02*
X023119Y017451D01*
X023043Y017451D02*
X023196Y017451D01*
X022889Y017451D02*
X022889Y017144D01*
X022736Y016991D01*
X022582Y017144D01*
X022582Y017451D01*
X022429Y017451D02*
X022122Y016991D01*
X021968Y017144D02*
X021968Y017451D01*
X021661Y017451D02*
X021661Y017144D01*
X021815Y016991D01*
X021968Y017144D01*
X021508Y017067D02*
X021431Y016991D01*
X021278Y016991D01*
X021201Y017067D01*
X021201Y017221D02*
X021355Y017298D01*
X021431Y017298D01*
X021508Y017221D01*
X021508Y017067D01*
X021201Y017221D02*
X021201Y017451D01*
X021508Y017451D01*
X021048Y017221D02*
X020741Y017221D01*
X020894Y017374D02*
X020894Y017067D01*
X028741Y021567D02*
X028817Y021491D01*
X028971Y021491D01*
X029048Y021567D01*
X029048Y021644D01*
X028971Y021721D01*
X028817Y021721D01*
X028741Y021798D01*
X028741Y021874D01*
X028817Y021951D01*
X028971Y021951D01*
X029048Y021874D01*
X029201Y021951D02*
X029431Y021951D01*
X029508Y021874D01*
X029508Y021567D01*
X029431Y021491D01*
X029201Y021491D01*
X029201Y021951D01*
X029661Y021414D02*
X029968Y021414D01*
X030122Y021567D02*
X030199Y021491D01*
X030352Y021491D01*
X030429Y021567D01*
X030582Y021567D02*
X030659Y021491D01*
X030812Y021491D01*
X030889Y021567D01*
X030889Y021644D01*
X030812Y021721D01*
X030659Y021721D01*
X030582Y021798D01*
X030582Y021874D01*
X030659Y021951D01*
X030812Y021951D01*
X030889Y021874D01*
X030429Y021874D02*
X030352Y021951D01*
X030199Y021951D01*
X030122Y021874D01*
X030122Y021567D01*
X039341Y018535D02*
X039521Y018355D01*
X039521Y018595D01*
X039701Y018535D02*
X039341Y018535D01*
X039401Y018226D02*
X039341Y018166D01*
X039341Y018046D01*
X039401Y017986D01*
X039641Y017986D01*
X039701Y018046D01*
X039701Y018166D01*
X039641Y018226D01*
X039841Y018289D02*
X040021Y018109D01*
X040021Y018349D01*
X040021Y018477D02*
X040021Y018718D01*
X040141Y018846D02*
X040201Y018906D01*
X040201Y019026D01*
X040141Y019086D01*
X040141Y018846D02*
X039901Y018846D01*
X039841Y018906D01*
X039841Y019026D01*
X039901Y019086D01*
X039841Y019214D02*
X039841Y019454D01*
X039841Y019334D02*
X040201Y019334D01*
X040201Y019582D02*
X040201Y019823D01*
X040201Y019702D02*
X039841Y019702D01*
X039961Y019582D01*
X039901Y019951D02*
X039841Y020011D01*
X039841Y020131D01*
X039901Y020191D01*
X039961Y020191D01*
X040201Y019951D01*
X040201Y020191D01*
X040141Y020319D02*
X040201Y020379D01*
X040201Y020499D01*
X040141Y020559D01*
X040021Y020559D01*
X039961Y020499D01*
X039961Y020439D01*
X040021Y020319D01*
X039841Y020319D01*
X039841Y020559D01*
X039841Y018718D02*
X040201Y018718D01*
X040201Y018477D02*
X039841Y018477D01*
X039841Y018289D02*
X040201Y018289D01*
X039901Y017981D02*
X039841Y017981D01*
X039841Y017741D01*
X039701Y017741D02*
X039701Y017861D01*
X039701Y017801D02*
X039341Y017801D01*
X039341Y017741D02*
X039341Y017861D01*
X039901Y017981D02*
X040141Y017741D01*
X040201Y017741D01*
X038954Y013101D02*
X038834Y013101D01*
X038774Y013041D01*
X038774Y012801D01*
X038834Y012741D01*
X038954Y012741D01*
X039014Y012801D01*
X039014Y012921D01*
X038894Y012921D01*
X039014Y013041D02*
X038954Y013101D01*
X038646Y012981D02*
X038646Y012741D01*
X038646Y012921D02*
X038406Y012921D01*
X038406Y012981D02*
X038406Y012741D01*
X038278Y012741D02*
X038278Y013101D01*
X038158Y012981D01*
X038038Y013101D01*
X038038Y012741D01*
X037910Y012801D02*
X037910Y013041D01*
X037849Y013101D01*
X037729Y013101D01*
X037669Y013041D01*
X037669Y012801D01*
X037729Y012741D01*
X037849Y012741D01*
X037910Y012801D01*
X037541Y012741D02*
X037421Y012861D01*
X037481Y012861D02*
X037301Y012861D01*
X037301Y012741D02*
X037301Y013101D01*
X037481Y013101D01*
X037541Y013041D01*
X037541Y012921D01*
X037481Y012861D01*
X037173Y012801D02*
X037113Y012741D01*
X036993Y012741D01*
X036933Y012801D01*
X036933Y013041D01*
X036993Y013101D01*
X037113Y013101D01*
X037173Y013041D01*
X036807Y013101D02*
X036687Y013101D01*
X036747Y013101D02*
X036747Y012741D01*
X036687Y012741D02*
X036807Y012741D01*
X036559Y012741D02*
X036559Y013101D01*
X036439Y012981D01*
X036319Y013101D01*
X036319Y012741D01*
X035823Y012741D02*
X035582Y012741D01*
X035582Y013101D01*
X035823Y013101D01*
X035702Y012921D02*
X035582Y012921D01*
X035454Y013101D02*
X035214Y013101D01*
X035334Y013101D02*
X035334Y012741D01*
X035086Y012801D02*
X035086Y013041D01*
X035026Y013101D01*
X034906Y013101D01*
X034846Y013041D01*
X034846Y012801D01*
X034906Y012741D01*
X035026Y012741D01*
X035086Y012801D01*
X034718Y012741D02*
X034718Y013101D01*
X034597Y012981D01*
X034477Y013101D01*
X034477Y012741D01*
X034349Y012741D02*
X034109Y012741D01*
X034109Y013101D01*
X034349Y013101D01*
X034349Y013241D02*
X034109Y013241D01*
X034229Y013241D02*
X034229Y013601D01*
X034109Y013481D01*
X033981Y013601D02*
X033741Y013241D01*
X033741Y013101D02*
X033921Y013101D01*
X033981Y013041D01*
X033981Y012921D01*
X033921Y012861D01*
X033741Y012861D01*
X033861Y012861D02*
X033981Y012741D01*
X034109Y012921D02*
X034229Y012921D01*
X033981Y013241D02*
X033741Y013601D01*
X033741Y013101D02*
X033741Y012741D01*
X031204Y012741D02*
X030964Y012741D01*
X031084Y012741D02*
X031084Y013101D01*
X030964Y012981D01*
X030836Y013041D02*
X030776Y013101D01*
X030656Y013101D01*
X030596Y013041D01*
X030596Y012981D01*
X030656Y012921D01*
X030776Y012921D01*
X030836Y012861D01*
X030836Y012801D01*
X030776Y012741D01*
X030656Y012741D01*
X030596Y012801D01*
X030468Y012741D02*
X030468Y013101D01*
X030227Y013101D02*
X030227Y012741D01*
X030099Y012741D02*
X029859Y012741D01*
X029859Y013101D01*
X030099Y013101D01*
X030227Y013101D02*
X030468Y012741D01*
X030468Y012601D02*
X030347Y012541D01*
X030227Y012421D01*
X030408Y012421D01*
X030468Y012361D01*
X030468Y012301D01*
X030408Y012241D01*
X030287Y012241D01*
X030227Y012301D01*
X030227Y012421D01*
X030099Y012601D02*
X030099Y012241D01*
X029859Y012241D02*
X029859Y012601D01*
X029979Y012481D01*
X030099Y012601D01*
X029979Y012921D02*
X029859Y012921D01*
X029731Y012861D02*
X029731Y012801D01*
X029671Y012741D01*
X029551Y012741D01*
X029491Y012801D01*
X029551Y012921D02*
X029671Y012921D01*
X029731Y012861D01*
X029731Y013041D02*
X029671Y013101D01*
X029551Y013101D01*
X029491Y013041D01*
X029491Y012981D01*
X029551Y012921D01*
X029491Y012601D02*
X029491Y012241D01*
X029731Y012241D01*
X030596Y012241D02*
X030836Y012241D01*
X030716Y012241D02*
X030716Y012601D01*
X030596Y012481D01*
X029671Y010601D02*
X029731Y010541D01*
X029731Y010301D01*
X029671Y010241D01*
X029551Y010241D01*
X029491Y010301D01*
X029491Y010541D01*
X029551Y010601D01*
X029671Y010601D01*
X029611Y010361D02*
X029731Y010241D01*
X029671Y010101D02*
X029551Y010101D01*
X029491Y010041D01*
X029671Y010101D02*
X029731Y010041D01*
X029731Y009981D01*
X029491Y009741D01*
X029731Y009741D01*
X029859Y009741D02*
X029859Y010101D01*
X030099Y009741D01*
X030099Y010101D01*
X030227Y010101D02*
X030468Y010101D01*
X030468Y010041D01*
X030227Y009801D01*
X030227Y009741D01*
X030596Y009801D02*
X030836Y010041D01*
X030836Y009801D01*
X030776Y009741D01*
X030656Y009741D01*
X030596Y009801D01*
X030596Y010041D01*
X030656Y010101D01*
X030776Y010101D01*
X030836Y010041D01*
X030964Y010041D02*
X031024Y010101D01*
X031144Y010101D01*
X031204Y010041D01*
X030964Y009801D01*
X031024Y009741D01*
X031144Y009741D01*
X031204Y009801D01*
X031204Y010041D01*
X031332Y010041D02*
X031392Y010101D01*
X031512Y010101D01*
X031573Y010041D01*
X031332Y009801D01*
X031392Y009741D01*
X031512Y009741D01*
X031573Y009801D01*
X031573Y010041D01*
X031332Y010041D02*
X031332Y009801D01*
X030964Y009801D02*
X030964Y010041D01*
X028966Y006001D02*
X028966Y005641D01*
X028846Y005641D02*
X029086Y005641D01*
X028846Y005881D02*
X028966Y006001D01*
X028718Y005941D02*
X028658Y006001D01*
X028477Y006001D01*
X028477Y005641D01*
X028658Y005641D01*
X028718Y005701D01*
X028718Y005941D01*
X028349Y006001D02*
X028109Y006001D01*
X028109Y005641D01*
X028349Y005641D01*
X028229Y005821D02*
X028109Y005821D01*
X027981Y005641D02*
X027741Y005641D01*
X027741Y006001D01*
X038406Y012981D02*
X038526Y013101D01*
X038646Y012981D01*
X042240Y013040D02*
X042240Y012886D01*
X042317Y012810D01*
X042624Y012810D01*
X042701Y012886D01*
X042701Y013040D01*
X042624Y013117D01*
X042471Y013117D01*
X042471Y012963D01*
X042317Y013117D02*
X042240Y013040D01*
X042394Y012656D02*
X042701Y012656D01*
X042471Y012656D02*
X042471Y012349D01*
X042394Y012349D02*
X042240Y012503D01*
X042394Y012656D01*
X042394Y012349D02*
X042701Y012349D01*
X042701Y012196D02*
X042240Y012196D01*
X042394Y012043D01*
X042240Y011889D01*
X042701Y011889D01*
X042624Y011736D02*
X042317Y011736D01*
X042240Y011659D01*
X042240Y011505D01*
X042317Y011429D01*
X042624Y011429D01*
X042701Y011505D01*
X042701Y011659D01*
X042624Y011736D01*
X042701Y011275D02*
X042547Y011122D01*
X042547Y011199D02*
X042547Y010968D01*
X042701Y010968D02*
X042240Y010968D01*
X042240Y011199D01*
X042317Y011275D01*
X042471Y011275D01*
X042547Y011199D01*
X042624Y010815D02*
X042701Y010738D01*
X042701Y010585D01*
X042624Y010508D01*
X042317Y010508D01*
X042240Y010585D01*
X042240Y010738D01*
X042317Y010815D01*
X042240Y010355D02*
X042240Y010201D01*
X042240Y010278D02*
X042701Y010278D01*
X042701Y010201D02*
X042701Y010355D01*
X042701Y010048D02*
X042240Y010048D01*
X042394Y009894D01*
X042240Y009741D01*
X042701Y009741D01*
X019101Y030446D02*
X019101Y030506D01*
X019041Y030566D01*
X018741Y030566D01*
X018741Y030506D02*
X018741Y030626D01*
X018741Y030754D02*
X018741Y030934D01*
X018801Y030994D01*
X018921Y030994D01*
X018981Y030934D01*
X018981Y030754D01*
X019101Y030754D02*
X018741Y030754D01*
X018741Y031122D02*
X018741Y031363D01*
X018801Y031363D01*
X019041Y031122D01*
X019101Y031122D01*
X019101Y030446D02*
X019041Y030386D01*
X017851Y030446D02*
X017851Y030506D01*
X017791Y030566D01*
X017491Y030566D01*
X017491Y030506D02*
X017491Y030626D01*
X017491Y030754D02*
X017491Y030934D01*
X017551Y030994D01*
X017671Y030994D01*
X017731Y030934D01*
X017731Y030754D01*
X017851Y030754D02*
X017491Y030754D01*
X017551Y031122D02*
X017611Y031122D01*
X017671Y031183D01*
X017671Y031363D01*
X017791Y031363D02*
X017551Y031363D01*
X017491Y031303D01*
X017491Y031183D01*
X017551Y031122D01*
X017791Y031122D02*
X017851Y031183D01*
X017851Y031303D01*
X017791Y031363D01*
X017851Y030446D02*
X017791Y030386D01*
X015701Y032067D02*
X015624Y031991D01*
X015701Y032067D02*
X015701Y032221D01*
X015624Y032298D01*
X015547Y032298D01*
X015471Y032221D01*
X015471Y032067D01*
X015394Y031991D01*
X015317Y031991D01*
X015240Y032067D01*
X015240Y032221D01*
X015317Y032298D01*
X015317Y032451D02*
X015624Y032451D01*
X015701Y032528D01*
X015701Y032681D01*
X015624Y032758D01*
X015547Y032911D02*
X015240Y033218D01*
X015240Y032911D02*
X015701Y032911D01*
X015471Y032988D02*
X015701Y033218D01*
X015317Y032758D02*
X015240Y032681D01*
X015240Y032528D01*
X015317Y032451D01*
X014177Y029356D02*
X014177Y029030D01*
X014394Y029247D01*
X014502Y029030D02*
X014177Y029356D01*
X013960Y029030D02*
X013851Y029030D01*
X013743Y028922D01*
X013743Y028813D01*
X013634Y028705D02*
X013526Y028705D01*
X013417Y028596D01*
X013417Y028488D01*
X013634Y028271D01*
X013634Y028705D01*
X013851Y028488D01*
X013851Y028379D01*
X013743Y028271D01*
X013634Y028271D01*
X013526Y028162D02*
X013471Y028217D01*
X013363Y028217D01*
X013200Y028054D01*
X013309Y027945D01*
X013417Y027945D01*
X013526Y028054D01*
X013526Y028162D01*
X013200Y028271D02*
X013200Y028054D01*
X013037Y028000D02*
X012983Y027945D01*
X012820Y027783D01*
X012929Y027674D02*
X013146Y027891D01*
X013200Y027728D02*
X012875Y028054D01*
X012766Y027945D02*
X013092Y027620D01*
X013200Y028271D02*
X013254Y028434D01*
X014014Y028542D02*
X014014Y028976D01*
X013960Y029030D01*
X014231Y028759D02*
X014014Y028542D01*
X012386Y027349D02*
X012332Y027294D01*
X012332Y027077D01*
X012224Y026969D02*
X012007Y026752D01*
X012061Y026698D02*
X011952Y026806D01*
X011952Y026915D01*
X012061Y027023D01*
X012169Y027023D01*
X012224Y026969D01*
X012278Y026806D02*
X012169Y026698D01*
X012061Y026698D01*
X012006Y026535D02*
X011681Y026860D01*
X011790Y026752D02*
X011627Y026589D01*
X011627Y026481D01*
X011735Y026372D01*
X011844Y026372D01*
X012006Y026535D01*
X011464Y026426D02*
X011410Y026372D01*
X011410Y026155D01*
X011518Y026047D02*
X011301Y026264D01*
X011247Y026101D02*
X011138Y026101D01*
X011030Y025992D01*
X011030Y025884D01*
X011139Y025775D01*
X011247Y025775D01*
X011355Y025884D01*
X011356Y025992D01*
X011247Y026101D01*
X010596Y025450D02*
X010487Y025450D01*
X010379Y025341D01*
X010379Y025233D01*
X010487Y025124D01*
X010596Y025124D01*
X010704Y025233D01*
X010704Y025341D01*
X010596Y025450D01*
X010433Y024961D02*
X010325Y024853D01*
X010379Y024907D02*
X010162Y025124D01*
X010108Y025070D01*
X009999Y024961D02*
X009836Y024799D01*
X009836Y024690D01*
X009945Y024582D01*
X010053Y024582D01*
X010216Y024744D01*
X009891Y025070D01*
X010053Y025233D02*
X009999Y025287D01*
X009674Y024636D02*
X009891Y024419D01*
X009728Y024256D01*
X009619Y024256D01*
X009457Y024419D01*
X009348Y024311D02*
X009240Y024202D01*
X009240Y024311D02*
X009457Y024093D01*
X009565Y024094D01*
X009294Y023931D02*
X009186Y023931D01*
X009077Y023822D01*
X008969Y023822D01*
X008968Y023931D01*
X009131Y024094D01*
X009294Y023931D02*
X009294Y023822D01*
X009131Y023660D01*
X009023Y023551D02*
X008860Y023388D01*
X008751Y023388D01*
X008643Y023497D01*
X008643Y023605D01*
X008806Y023768D01*
X008697Y023877D02*
X009023Y023551D01*
X008697Y023225D02*
X008534Y023063D01*
X008426Y023063D01*
X008426Y023171D01*
X008589Y023334D01*
X008534Y023388D02*
X008697Y023225D01*
X008534Y023388D02*
X008426Y023388D01*
X008317Y023280D01*
X008209Y023063D02*
X008263Y023008D01*
X008046Y022791D01*
X008100Y022737D02*
X007992Y022846D01*
X007992Y022954D01*
X008100Y023063D01*
X008209Y023063D01*
X008317Y022846D02*
X008209Y022737D01*
X008100Y022737D01*
X008046Y022574D02*
X007938Y022574D01*
X007721Y022791D01*
X007721Y022683D02*
X007829Y022791D01*
X007504Y022683D02*
X007395Y022575D01*
X007449Y022629D02*
X007775Y022303D01*
X007721Y022249D02*
X007829Y022358D01*
X012441Y026969D02*
X012224Y027186D01*
D15*
X043041Y031321D02*
X043043Y031338D01*
X043048Y031355D01*
X043057Y031369D01*
X043069Y031382D01*
X043084Y031392D01*
X043100Y031398D01*
X043117Y031401D01*
X043134Y031400D01*
X043151Y031395D01*
X043166Y031387D01*
X043179Y031376D01*
X043190Y031362D01*
X043197Y031347D01*
X043201Y031330D01*
X043201Y031312D01*
X043197Y031295D01*
X043190Y031280D01*
X043179Y031266D01*
X043166Y031255D01*
X043151Y031247D01*
X043134Y031242D01*
X043117Y031241D01*
X043100Y031244D01*
X043084Y031250D01*
X043069Y031260D01*
X043057Y031273D01*
X043048Y031287D01*
X043043Y031304D01*
X043041Y031321D01*
D16*
X043131Y031621D02*
X042811Y031621D01*
X042811Y032321D02*
X043131Y032321D01*
X041121Y034471D02*
X041123Y034544D01*
X041129Y034617D01*
X041139Y034689D01*
X041153Y034761D01*
X041170Y034832D01*
X041192Y034902D01*
X041217Y034971D01*
X041246Y035038D01*
X041278Y035103D01*
X041314Y035167D01*
X041354Y035229D01*
X041396Y035288D01*
X041442Y035345D01*
X041491Y035399D01*
X041543Y035451D01*
X041597Y035500D01*
X041654Y035546D01*
X041713Y035588D01*
X041775Y035628D01*
X041839Y035664D01*
X041904Y035696D01*
X041971Y035725D01*
X042040Y035750D01*
X042110Y035772D01*
X042181Y035789D01*
X042253Y035803D01*
X042325Y035813D01*
X042398Y035819D01*
X042471Y035821D01*
X042544Y035819D01*
X042617Y035813D01*
X042689Y035803D01*
X042761Y035789D01*
X042832Y035772D01*
X042902Y035750D01*
X042971Y035725D01*
X043038Y035696D01*
X043103Y035664D01*
X043167Y035628D01*
X043229Y035588D01*
X043288Y035546D01*
X043345Y035500D01*
X043399Y035451D01*
X043451Y035399D01*
X043500Y035345D01*
X043546Y035288D01*
X043588Y035229D01*
X043628Y035167D01*
X043664Y035103D01*
X043696Y035038D01*
X043725Y034971D01*
X043750Y034902D01*
X043772Y034832D01*
X043789Y034761D01*
X043803Y034689D01*
X043813Y034617D01*
X043819Y034544D01*
X043821Y034471D01*
X043819Y034398D01*
X043813Y034325D01*
X043803Y034253D01*
X043789Y034181D01*
X043772Y034110D01*
X043750Y034040D01*
X043725Y033971D01*
X043696Y033904D01*
X043664Y033839D01*
X043628Y033775D01*
X043588Y033713D01*
X043546Y033654D01*
X043500Y033597D01*
X043451Y033543D01*
X043399Y033491D01*
X043345Y033442D01*
X043288Y033396D01*
X043229Y033354D01*
X043167Y033314D01*
X043103Y033278D01*
X043038Y033246D01*
X042971Y033217D01*
X042902Y033192D01*
X042832Y033170D01*
X042761Y033153D01*
X042689Y033139D01*
X042617Y033129D01*
X042544Y033123D01*
X042471Y033121D01*
X042398Y033123D01*
X042325Y033129D01*
X042253Y033139D01*
X042181Y033153D01*
X042110Y033170D01*
X042040Y033192D01*
X041971Y033217D01*
X041904Y033246D01*
X041839Y033278D01*
X041775Y033314D01*
X041713Y033354D01*
X041654Y033396D01*
X041597Y033442D01*
X041543Y033491D01*
X041491Y033543D01*
X041442Y033597D01*
X041396Y033654D01*
X041354Y033713D01*
X041314Y033775D01*
X041278Y033839D01*
X041246Y033904D01*
X041217Y033971D01*
X041192Y034040D01*
X041170Y034110D01*
X041153Y034181D01*
X041139Y034253D01*
X041129Y034325D01*
X041123Y034398D01*
X041121Y034471D01*
X041256Y026391D02*
X041256Y025964D01*
X041042Y025751D01*
X040829Y025964D01*
X040829Y026391D01*
X040611Y026391D02*
X040184Y025751D01*
X039967Y026071D02*
X039540Y026071D01*
X039322Y025751D02*
X039322Y026391D01*
X038895Y026391D02*
X039322Y025751D01*
X038895Y025751D02*
X038895Y026391D01*
X038678Y026285D02*
X038678Y026071D01*
X038571Y025964D01*
X038251Y025964D01*
X038251Y025751D02*
X038251Y026391D01*
X038571Y026391D01*
X038678Y026285D01*
X038464Y025964D02*
X038678Y025751D01*
X040184Y026391D02*
X040611Y025751D01*
X038971Y019841D02*
X038971Y018601D01*
X038969Y018578D01*
X038964Y018555D01*
X038955Y018533D01*
X038942Y018513D01*
X038927Y018495D01*
X038909Y018480D01*
X038889Y018467D01*
X038867Y018458D01*
X038844Y018453D01*
X038821Y018451D01*
X038971Y019841D02*
X038969Y019864D01*
X038964Y019887D01*
X038955Y019909D01*
X038942Y019929D01*
X038927Y019947D01*
X038909Y019962D01*
X038889Y019975D01*
X038867Y019984D01*
X038844Y019989D01*
X038821Y019991D01*
X035621Y019991D02*
X035598Y019989D01*
X035575Y019984D01*
X035553Y019975D01*
X035533Y019962D01*
X035515Y019947D01*
X035500Y019929D01*
X035487Y019909D01*
X035478Y019887D01*
X035473Y019864D01*
X035471Y019841D01*
X035471Y019421D01*
X035471Y019021D01*
X035471Y018601D01*
X035473Y018578D01*
X035478Y018555D01*
X035487Y018533D01*
X035500Y018513D01*
X035515Y018495D01*
X035533Y018480D01*
X035553Y018467D01*
X035575Y018458D01*
X035598Y018453D01*
X035621Y018451D01*
X035471Y019021D02*
X035498Y019023D01*
X035525Y019028D01*
X035551Y019038D01*
X035575Y019050D01*
X035597Y019066D01*
X035617Y019084D01*
X035634Y019106D01*
X035649Y019129D01*
X035659Y019154D01*
X035667Y019180D01*
X035671Y019207D01*
X035671Y019235D01*
X035667Y019262D01*
X035659Y019288D01*
X035649Y019313D01*
X035634Y019336D01*
X035617Y019358D01*
X035597Y019376D01*
X035575Y019392D01*
X035551Y019404D01*
X035525Y019414D01*
X035498Y019419D01*
X035471Y019421D01*
X034571Y019381D02*
X034571Y019061D01*
X033871Y019061D02*
X033871Y019381D01*
X033571Y012471D02*
X031721Y012471D01*
X031721Y008971D01*
X032221Y008971D01*
X032221Y008871D01*
X032721Y008871D01*
X032721Y008971D01*
X035471Y008971D01*
X035471Y008871D01*
X035971Y008871D01*
X035971Y008971D01*
X038721Y008971D01*
X038721Y008871D01*
X039221Y008871D01*
X039221Y008971D01*
X039721Y008971D01*
X039721Y012471D01*
X037971Y012471D01*
X037971Y012421D01*
X037471Y012421D01*
X037471Y012471D01*
X036521Y012471D01*
X036521Y012071D01*
X036521Y011971D01*
X039221Y011971D01*
X039221Y009471D01*
X032221Y009471D01*
X032221Y011971D01*
X033921Y011971D01*
X034521Y011971D01*
X034921Y011971D01*
X034921Y012071D01*
X034921Y012471D01*
X036521Y012471D01*
X036521Y011971D02*
X036521Y011671D01*
X034921Y011671D01*
X034921Y011971D01*
X034721Y012271D02*
X034521Y012271D01*
X033921Y012271D01*
X033921Y012071D01*
X033921Y011971D01*
X033921Y012271D02*
X033721Y012271D01*
X033571Y012471D01*
X034521Y012271D02*
X034521Y012071D01*
X034521Y011971D01*
X034721Y012271D02*
X034871Y012471D01*
X034921Y012471D01*
X037561Y007821D02*
X037881Y007821D01*
X037881Y007121D02*
X037561Y007121D01*
X041121Y006971D02*
X041123Y007044D01*
X041129Y007117D01*
X041139Y007189D01*
X041153Y007261D01*
X041170Y007332D01*
X041192Y007402D01*
X041217Y007471D01*
X041246Y007538D01*
X041278Y007603D01*
X041314Y007667D01*
X041354Y007729D01*
X041396Y007788D01*
X041442Y007845D01*
X041491Y007899D01*
X041543Y007951D01*
X041597Y008000D01*
X041654Y008046D01*
X041713Y008088D01*
X041775Y008128D01*
X041839Y008164D01*
X041904Y008196D01*
X041971Y008225D01*
X042040Y008250D01*
X042110Y008272D01*
X042181Y008289D01*
X042253Y008303D01*
X042325Y008313D01*
X042398Y008319D01*
X042471Y008321D01*
X042544Y008319D01*
X042617Y008313D01*
X042689Y008303D01*
X042761Y008289D01*
X042832Y008272D01*
X042902Y008250D01*
X042971Y008225D01*
X043038Y008196D01*
X043103Y008164D01*
X043167Y008128D01*
X043229Y008088D01*
X043288Y008046D01*
X043345Y008000D01*
X043399Y007951D01*
X043451Y007899D01*
X043500Y007845D01*
X043546Y007788D01*
X043588Y007729D01*
X043628Y007667D01*
X043664Y007603D01*
X043696Y007538D01*
X043725Y007471D01*
X043750Y007402D01*
X043772Y007332D01*
X043789Y007261D01*
X043803Y007189D01*
X043813Y007117D01*
X043819Y007044D01*
X043821Y006971D01*
X043819Y006898D01*
X043813Y006825D01*
X043803Y006753D01*
X043789Y006681D01*
X043772Y006610D01*
X043750Y006540D01*
X043725Y006471D01*
X043696Y006404D01*
X043664Y006339D01*
X043628Y006275D01*
X043588Y006213D01*
X043546Y006154D01*
X043500Y006097D01*
X043451Y006043D01*
X043399Y005991D01*
X043345Y005942D01*
X043288Y005896D01*
X043229Y005854D01*
X043167Y005814D01*
X043103Y005778D01*
X043038Y005746D01*
X042971Y005717D01*
X042902Y005692D01*
X042832Y005670D01*
X042761Y005653D01*
X042689Y005639D01*
X042617Y005629D01*
X042544Y005623D01*
X042471Y005621D01*
X042398Y005623D01*
X042325Y005629D01*
X042253Y005639D01*
X042181Y005653D01*
X042110Y005670D01*
X042040Y005692D01*
X041971Y005717D01*
X041904Y005746D01*
X041839Y005778D01*
X041775Y005814D01*
X041713Y005854D01*
X041654Y005896D01*
X041597Y005942D01*
X041543Y005991D01*
X041491Y006043D01*
X041442Y006097D01*
X041396Y006154D01*
X041354Y006213D01*
X041314Y006275D01*
X041278Y006339D01*
X041246Y006404D01*
X041217Y006471D01*
X041192Y006540D01*
X041170Y006610D01*
X041153Y006681D01*
X041139Y006753D01*
X041129Y006825D01*
X041123Y006898D01*
X041121Y006971D01*
X030381Y007071D02*
X030061Y007071D01*
X030061Y006371D02*
X030381Y006371D01*
X016071Y016561D02*
X016071Y016881D01*
X015371Y016881D02*
X015371Y016561D01*
X014821Y016561D02*
X014821Y016881D01*
X014121Y016881D02*
X014121Y016561D01*
X020371Y021561D02*
X020371Y021881D01*
X021071Y021881D02*
X021071Y021561D01*
X021971Y021521D02*
X021971Y021101D01*
X021973Y021078D01*
X021978Y021055D01*
X021987Y021033D01*
X022000Y021013D01*
X022015Y020995D01*
X022033Y020980D01*
X022053Y020967D01*
X022075Y020958D01*
X022098Y020953D01*
X022121Y020951D01*
X021971Y021521D02*
X021971Y021921D01*
X021971Y022341D01*
X021973Y022364D01*
X021978Y022387D01*
X021987Y022409D01*
X022000Y022429D01*
X022015Y022447D01*
X022033Y022462D01*
X022053Y022475D01*
X022075Y022484D01*
X022098Y022489D01*
X022121Y022491D01*
X021971Y021921D02*
X021998Y021919D01*
X022025Y021914D01*
X022051Y021904D01*
X022075Y021892D01*
X022097Y021876D01*
X022117Y021858D01*
X022134Y021836D01*
X022149Y021813D01*
X022159Y021788D01*
X022167Y021762D01*
X022171Y021735D01*
X022171Y021707D01*
X022167Y021680D01*
X022159Y021654D01*
X022149Y021629D01*
X022134Y021606D01*
X022117Y021584D01*
X022097Y021566D01*
X022075Y021550D01*
X022051Y021538D01*
X022025Y021528D01*
X021998Y021523D01*
X021971Y021521D01*
X022061Y023871D02*
X022381Y023871D01*
X022381Y024571D02*
X022061Y024571D01*
X020311Y026751D02*
X020288Y026753D01*
X020265Y026758D01*
X020243Y026767D01*
X020223Y026780D01*
X020205Y026795D01*
X020190Y026813D01*
X020177Y026833D01*
X020168Y026855D01*
X020163Y026878D01*
X020161Y026901D01*
X020161Y027721D01*
X020161Y028721D01*
X020161Y029541D01*
X020163Y029564D01*
X020168Y029587D01*
X020177Y029609D01*
X020190Y029629D01*
X020205Y029647D01*
X020223Y029662D01*
X020243Y029675D01*
X020265Y029684D01*
X020288Y029689D01*
X020311Y029691D01*
X019571Y028381D02*
X019571Y028061D01*
X020161Y027721D02*
X020205Y027723D01*
X020248Y027729D01*
X020290Y027738D01*
X020332Y027751D01*
X020372Y027768D01*
X020411Y027788D01*
X020448Y027811D01*
X020482Y027838D01*
X020515Y027867D01*
X020544Y027900D01*
X020571Y027934D01*
X020594Y027971D01*
X020614Y028010D01*
X020631Y028050D01*
X020644Y028092D01*
X020653Y028134D01*
X020659Y028177D01*
X020661Y028221D01*
X020659Y028265D01*
X020653Y028308D01*
X020644Y028350D01*
X020631Y028392D01*
X020614Y028432D01*
X020594Y028471D01*
X020571Y028508D01*
X020544Y028542D01*
X020515Y028575D01*
X020482Y028604D01*
X020448Y028631D01*
X020411Y028654D01*
X020372Y028674D01*
X020332Y028691D01*
X020290Y028704D01*
X020248Y028713D01*
X020205Y028719D01*
X020161Y028721D01*
X018871Y028381D02*
X018871Y028061D01*
X019071Y024881D02*
X019071Y024561D01*
X018371Y024561D02*
X018371Y024881D01*
X025061Y024571D02*
X025381Y024571D01*
X025381Y023871D02*
X025061Y023871D01*
X025321Y022491D02*
X025344Y022489D01*
X025367Y022484D01*
X025389Y022475D01*
X025409Y022462D01*
X025427Y022447D01*
X025442Y022429D01*
X025455Y022409D01*
X025464Y022387D01*
X025469Y022364D01*
X025471Y022341D01*
X025471Y021101D01*
X025469Y021078D01*
X025464Y021055D01*
X025455Y021033D01*
X025442Y021013D01*
X025427Y020995D01*
X025409Y020980D01*
X025389Y020967D01*
X025367Y020958D01*
X025344Y020953D01*
X025321Y020951D01*
X025281Y026901D02*
X025281Y029541D01*
X025279Y029564D01*
X025274Y029587D01*
X025265Y029609D01*
X025252Y029629D01*
X025237Y029647D01*
X025219Y029662D01*
X025199Y029675D01*
X025177Y029684D01*
X025154Y029689D01*
X025131Y029691D01*
X026871Y028881D02*
X026871Y028561D01*
X027571Y028561D02*
X027571Y028881D01*
X025281Y026901D02*
X025279Y026878D01*
X025274Y026855D01*
X025265Y026833D01*
X025252Y026813D01*
X025237Y026795D01*
X025219Y026780D01*
X025199Y026767D01*
X025177Y026758D01*
X025154Y026753D01*
X025131Y026751D01*
X024571Y032311D02*
X024571Y032631D01*
X023871Y032631D02*
X023871Y032311D01*
X023571Y032311D02*
X023571Y032631D01*
X022871Y032631D02*
X022871Y032311D01*
X005621Y034471D02*
X005623Y034544D01*
X005629Y034617D01*
X005639Y034689D01*
X005653Y034761D01*
X005670Y034832D01*
X005692Y034902D01*
X005717Y034971D01*
X005746Y035038D01*
X005778Y035103D01*
X005814Y035167D01*
X005854Y035229D01*
X005896Y035288D01*
X005942Y035345D01*
X005991Y035399D01*
X006043Y035451D01*
X006097Y035500D01*
X006154Y035546D01*
X006213Y035588D01*
X006275Y035628D01*
X006339Y035664D01*
X006404Y035696D01*
X006471Y035725D01*
X006540Y035750D01*
X006610Y035772D01*
X006681Y035789D01*
X006753Y035803D01*
X006825Y035813D01*
X006898Y035819D01*
X006971Y035821D01*
X007044Y035819D01*
X007117Y035813D01*
X007189Y035803D01*
X007261Y035789D01*
X007332Y035772D01*
X007402Y035750D01*
X007471Y035725D01*
X007538Y035696D01*
X007603Y035664D01*
X007667Y035628D01*
X007729Y035588D01*
X007788Y035546D01*
X007845Y035500D01*
X007899Y035451D01*
X007951Y035399D01*
X008000Y035345D01*
X008046Y035288D01*
X008088Y035229D01*
X008128Y035167D01*
X008164Y035103D01*
X008196Y035038D01*
X008225Y034971D01*
X008250Y034902D01*
X008272Y034832D01*
X008289Y034761D01*
X008303Y034689D01*
X008313Y034617D01*
X008319Y034544D01*
X008321Y034471D01*
X008319Y034398D01*
X008313Y034325D01*
X008303Y034253D01*
X008289Y034181D01*
X008272Y034110D01*
X008250Y034040D01*
X008225Y033971D01*
X008196Y033904D01*
X008164Y033839D01*
X008128Y033775D01*
X008088Y033713D01*
X008046Y033654D01*
X008000Y033597D01*
X007951Y033543D01*
X007899Y033491D01*
X007845Y033442D01*
X007788Y033396D01*
X007729Y033354D01*
X007667Y033314D01*
X007603Y033278D01*
X007538Y033246D01*
X007471Y033217D01*
X007402Y033192D01*
X007332Y033170D01*
X007261Y033153D01*
X007189Y033139D01*
X007117Y033129D01*
X007044Y033123D01*
X006971Y033121D01*
X006898Y033123D01*
X006825Y033129D01*
X006753Y033139D01*
X006681Y033153D01*
X006610Y033170D01*
X006540Y033192D01*
X006471Y033217D01*
X006404Y033246D01*
X006339Y033278D01*
X006275Y033314D01*
X006213Y033354D01*
X006154Y033396D01*
X006097Y033442D01*
X006043Y033491D01*
X005991Y033543D01*
X005942Y033597D01*
X005896Y033654D01*
X005854Y033713D01*
X005814Y033775D01*
X005778Y033839D01*
X005746Y033904D01*
X005717Y033971D01*
X005692Y034040D01*
X005670Y034110D01*
X005653Y034181D01*
X005639Y034253D01*
X005629Y034325D01*
X005623Y034398D01*
X005621Y034471D01*
D17*
X020171Y026891D02*
X025271Y026891D01*
X025471Y021091D02*
X021971Y021091D01*
X032121Y012071D02*
X032121Y009371D01*
X039321Y009371D01*
X039321Y012071D01*
X036521Y012071D01*
X034921Y012071D02*
X034521Y012071D01*
X033921Y012071D02*
X032121Y012071D01*
X035471Y018591D02*
X038971Y018591D01*
D18*
X038971Y016721D02*
X039471Y016721D01*
X039721Y016471D01*
X039971Y016721D01*
X040471Y016721D01*
X040721Y016471D01*
X040971Y016721D01*
X041471Y016721D01*
X041721Y016471D01*
X041721Y015971D01*
X041471Y015721D01*
X040971Y015721D01*
X040721Y015971D01*
X040471Y015721D01*
X039971Y015721D01*
X039721Y015971D01*
X039471Y015721D01*
X038971Y015721D01*
X038721Y015971D01*
X038471Y015721D01*
X037971Y015721D01*
X037721Y015971D01*
X037471Y015721D01*
X036971Y015721D01*
X036721Y015971D01*
X036471Y015721D01*
X035971Y015721D01*
X035721Y015971D01*
X035471Y015721D01*
X034971Y015721D01*
X034721Y015971D01*
X034471Y015721D01*
X033971Y015721D01*
X033721Y015971D01*
X033721Y016471D01*
X033971Y016721D01*
X034471Y016721D01*
X034721Y016471D01*
X034971Y016721D01*
X035471Y016721D01*
X035721Y016471D01*
X035971Y016721D01*
X036471Y016721D01*
X036721Y016471D01*
X036971Y016721D01*
X037471Y016721D01*
X037721Y016471D01*
X037971Y016721D01*
X038471Y016721D01*
X038721Y016471D01*
X038971Y016721D01*
X039221Y015221D02*
X038221Y015221D01*
X038221Y014971D01*
X037971Y015221D01*
X037471Y015221D01*
X037221Y014971D01*
X036971Y015221D01*
X036471Y015221D01*
X036221Y014971D01*
X035971Y015221D01*
X035471Y015221D01*
X035221Y014971D01*
X034971Y015221D01*
X034471Y015221D01*
X034221Y014971D01*
X033971Y015221D01*
X033471Y015221D01*
X033221Y014971D01*
X032971Y015221D01*
X032471Y015221D01*
X032221Y014971D01*
X032221Y014471D01*
X032471Y014221D01*
X032971Y014221D01*
X033221Y014471D01*
X033471Y014221D01*
X033971Y014221D01*
X034221Y014471D01*
X034471Y014221D01*
X034971Y014221D01*
X035221Y014471D01*
X035471Y014221D01*
X035971Y014221D01*
X036221Y014471D01*
X036471Y014221D01*
X036971Y014221D01*
X037221Y014471D01*
X037471Y014221D01*
X037971Y014221D01*
X038221Y014471D01*
X038221Y014221D01*
X039221Y014221D01*
X039221Y015221D01*
X032721Y015971D02*
X032471Y015721D01*
X031971Y015721D01*
X031721Y015971D01*
X031471Y015721D01*
X030971Y015721D01*
X030721Y015971D01*
X030471Y015721D01*
X029971Y015721D01*
X029721Y015971D01*
X029471Y015721D01*
X028971Y015721D01*
X028721Y015971D01*
X028471Y015721D01*
X027971Y015721D01*
X027721Y015971D01*
X027471Y015721D01*
X026971Y015721D01*
X026721Y015971D01*
X026471Y015721D01*
X025971Y015721D01*
X025721Y015971D01*
X025471Y015721D01*
X024971Y015721D01*
X024721Y015971D01*
X024721Y016471D01*
X024971Y016721D01*
X025471Y016721D01*
X025721Y016471D01*
X025971Y016721D01*
X026471Y016721D01*
X026721Y016471D01*
X026971Y016721D01*
X027471Y016721D01*
X027721Y016471D01*
X027971Y016721D01*
X028471Y016721D01*
X028721Y016471D01*
X028971Y016721D01*
X029471Y016721D01*
X029721Y016471D01*
X029971Y016721D01*
X030471Y016721D01*
X030721Y016471D01*
X030971Y016721D01*
X031471Y016721D01*
X031721Y016471D01*
X031971Y016721D01*
X032471Y016721D01*
X032721Y016471D01*
X032721Y015971D01*
X029045Y013371D02*
X027396Y013371D01*
X027334Y012821D02*
X027176Y012821D01*
X028108Y012821D02*
X028334Y012821D01*
X029108Y012821D02*
X029266Y012821D01*
X029045Y010871D02*
X027396Y010871D01*
X027334Y010321D02*
X027176Y010321D01*
X028108Y010321D02*
X028334Y010321D01*
X029108Y010321D02*
X029266Y010321D01*
X032471Y006221D02*
X032221Y005971D01*
X032221Y005471D01*
X032471Y005221D01*
X032971Y005221D01*
X033221Y005471D01*
X033471Y005221D01*
X033971Y005221D01*
X034221Y005471D01*
X034471Y005221D01*
X034971Y005221D01*
X035221Y005471D01*
X035471Y005221D01*
X035971Y005221D01*
X036221Y005471D01*
X036471Y005221D01*
X036971Y005221D01*
X037221Y005471D01*
X037471Y005221D01*
X037971Y005221D01*
X038221Y005471D01*
X038471Y005221D01*
X038971Y005221D01*
X039221Y005471D01*
X039221Y005971D01*
X038971Y006221D01*
X038471Y006221D01*
X038221Y005971D01*
X037971Y006221D01*
X037471Y006221D01*
X037221Y005971D01*
X036971Y006221D01*
X036471Y006221D01*
X036221Y005971D01*
X035971Y006221D01*
X035471Y006221D01*
X035221Y005971D01*
X034971Y006221D01*
X034471Y006221D01*
X034221Y005971D01*
X033971Y006221D01*
X033471Y006221D01*
X033221Y005971D01*
X032971Y006221D01*
X032471Y006221D01*
X041841Y006971D02*
X041843Y007021D01*
X041849Y007071D01*
X041859Y007120D01*
X041873Y007168D01*
X041890Y007215D01*
X041911Y007260D01*
X041936Y007304D01*
X041964Y007345D01*
X041996Y007384D01*
X042030Y007421D01*
X042067Y007455D01*
X042107Y007485D01*
X042149Y007512D01*
X042193Y007536D01*
X042239Y007557D01*
X042286Y007573D01*
X042334Y007586D01*
X042384Y007595D01*
X042433Y007600D01*
X042484Y007601D01*
X042534Y007598D01*
X042583Y007591D01*
X042632Y007580D01*
X042680Y007565D01*
X042726Y007547D01*
X042771Y007525D01*
X042814Y007499D01*
X042855Y007470D01*
X042894Y007438D01*
X042930Y007403D01*
X042962Y007365D01*
X042992Y007325D01*
X043019Y007282D01*
X043042Y007238D01*
X043061Y007192D01*
X043077Y007144D01*
X043089Y007095D01*
X043097Y007046D01*
X043101Y006996D01*
X043101Y006946D01*
X043097Y006896D01*
X043089Y006847D01*
X043077Y006798D01*
X043061Y006750D01*
X043042Y006704D01*
X043019Y006660D01*
X042992Y006617D01*
X042962Y006577D01*
X042930Y006539D01*
X042894Y006504D01*
X042855Y006472D01*
X042814Y006443D01*
X042771Y006417D01*
X042726Y006395D01*
X042680Y006377D01*
X042632Y006362D01*
X042583Y006351D01*
X042534Y006344D01*
X042484Y006341D01*
X042433Y006342D01*
X042384Y006347D01*
X042334Y006356D01*
X042286Y006369D01*
X042239Y006385D01*
X042193Y006406D01*
X042149Y006430D01*
X042107Y006457D01*
X042067Y006487D01*
X042030Y006521D01*
X041996Y006558D01*
X041964Y006597D01*
X041936Y006638D01*
X041911Y006682D01*
X041890Y006727D01*
X041873Y006774D01*
X041859Y006822D01*
X041849Y006871D01*
X041843Y006921D01*
X041841Y006971D01*
X026721Y017471D02*
X026471Y017221D01*
X025971Y017221D01*
X025721Y017471D01*
X025721Y017971D01*
X025971Y018221D01*
X025721Y018471D01*
X025721Y018971D01*
X025971Y019221D01*
X026471Y019221D01*
X026721Y018971D01*
X026721Y018471D01*
X026471Y018221D01*
X026721Y017971D01*
X026721Y017471D01*
X023721Y017971D02*
X023471Y017721D01*
X022971Y017721D01*
X022721Y017971D01*
X022471Y017721D01*
X021971Y017721D01*
X021721Y017971D01*
X021471Y017721D01*
X020971Y017721D01*
X020721Y017971D01*
X020721Y018471D01*
X020971Y018721D01*
X021471Y018721D01*
X021721Y018471D01*
X021971Y018721D01*
X022471Y018721D01*
X022721Y018471D01*
X022971Y018721D01*
X023471Y018721D01*
X023721Y018471D01*
X023721Y017971D01*
X023471Y016721D02*
X022971Y016721D01*
X022721Y016471D01*
X022471Y016721D01*
X021971Y016721D01*
X021721Y016471D01*
X021471Y016721D01*
X020971Y016721D01*
X020721Y016471D01*
X020471Y016721D01*
X019971Y016721D01*
X019721Y016471D01*
X019471Y016721D01*
X018971Y016721D01*
X018721Y016471D01*
X018471Y016721D01*
X017971Y016721D01*
X017721Y016471D01*
X017721Y015971D01*
X017971Y015721D01*
X018471Y015721D01*
X018721Y015971D01*
X018971Y015721D01*
X019471Y015721D01*
X019721Y015971D01*
X019971Y015721D01*
X020471Y015721D01*
X020721Y015971D01*
X020971Y015721D01*
X021471Y015721D01*
X021721Y015971D01*
X021971Y015721D01*
X022471Y015721D01*
X022721Y015971D01*
X022971Y015721D01*
X023471Y015721D01*
X023721Y015971D01*
X023721Y016471D01*
X023471Y016721D01*
X019721Y017971D02*
X019721Y018471D01*
X019471Y018721D01*
X018971Y018721D01*
X018721Y018471D01*
X018471Y018721D01*
X017971Y018721D01*
X017721Y018471D01*
X017471Y018721D01*
X016971Y018721D01*
X016721Y018471D01*
X016721Y017971D01*
X016971Y017721D01*
X017471Y017721D01*
X017721Y017971D01*
X017971Y017721D01*
X018471Y017721D01*
X018721Y017971D01*
X018971Y017721D01*
X019471Y017721D01*
X019721Y017971D01*
X012171Y018261D02*
X012171Y015681D01*
X010771Y015681D01*
X010771Y018261D01*
X012171Y018261D01*
X028721Y022471D02*
X028971Y022221D01*
X029471Y022221D01*
X029721Y022471D01*
X029971Y022221D01*
X030471Y022221D01*
X030721Y022471D01*
X030971Y022221D01*
X031471Y022221D01*
X031721Y022471D01*
X031721Y022971D01*
X031471Y023221D01*
X030971Y023221D01*
X030721Y022971D01*
X030471Y023221D01*
X029971Y023221D01*
X029721Y022971D01*
X029471Y023221D01*
X028971Y023221D01*
X028721Y022971D01*
X028721Y022471D01*
X035221Y021398D02*
X035221Y031044D01*
X035516Y031044D01*
X035516Y030059D01*
X043587Y030059D01*
X043587Y031044D01*
X035516Y031044D01*
X035221Y031721D02*
X034721Y031721D01*
X034471Y031971D01*
X034471Y032471D01*
X034721Y032721D01*
X034471Y032971D01*
X034471Y033471D01*
X034721Y033721D01*
X035221Y033721D01*
X035471Y033471D01*
X035471Y032971D01*
X035221Y032721D01*
X035471Y032471D01*
X035471Y031971D01*
X035221Y031721D01*
X034221Y031971D02*
X034221Y032471D01*
X033971Y032721D01*
X034221Y032971D01*
X034221Y033471D01*
X033971Y033721D01*
X033471Y033721D01*
X033221Y033471D01*
X033221Y032971D01*
X033471Y032721D01*
X033221Y032471D01*
X033221Y031971D01*
X033471Y031721D01*
X033971Y031721D01*
X034221Y031971D01*
X034471Y034721D02*
X033971Y034721D01*
X033721Y034971D01*
X033471Y034721D01*
X032971Y034721D01*
X032721Y034971D01*
X032471Y034721D01*
X031971Y034721D01*
X031721Y034971D01*
X031721Y035471D01*
X031971Y035721D01*
X032471Y035721D01*
X032721Y035471D01*
X032971Y035721D01*
X033471Y035721D01*
X033721Y035471D01*
X033971Y035721D01*
X034471Y035721D01*
X034721Y035471D01*
X034971Y035721D01*
X035471Y035721D01*
X035721Y035471D01*
X035971Y035721D01*
X036471Y035721D01*
X036721Y035471D01*
X036971Y035721D01*
X037471Y035721D01*
X037721Y035471D01*
X037971Y035721D01*
X038471Y035721D01*
X038721Y035471D01*
X038971Y035721D01*
X039471Y035721D01*
X039721Y035471D01*
X039721Y034971D01*
X039471Y034721D01*
X038971Y034721D01*
X038721Y034971D01*
X038471Y034721D01*
X037971Y034721D01*
X037721Y034971D01*
X037471Y034721D01*
X036971Y034721D01*
X036721Y034971D01*
X036471Y034721D01*
X035971Y034721D01*
X035721Y034971D01*
X035471Y034721D01*
X034971Y034721D01*
X034721Y034971D01*
X034471Y034721D01*
X030721Y034971D02*
X030471Y034721D01*
X029971Y034721D01*
X029721Y034971D01*
X029471Y034721D01*
X028971Y034721D01*
X028721Y034971D01*
X028471Y034721D01*
X027971Y034721D01*
X027721Y034971D01*
X027471Y034721D01*
X026971Y034721D01*
X026721Y034971D01*
X026471Y034721D01*
X025971Y034721D01*
X025721Y034971D01*
X025471Y034721D01*
X024971Y034721D01*
X024721Y034971D01*
X024471Y034721D01*
X023971Y034721D01*
X023721Y034971D01*
X023471Y034721D01*
X022971Y034721D01*
X022721Y034971D01*
X022721Y035471D01*
X022971Y035721D01*
X023471Y035721D01*
X023721Y035471D01*
X023971Y035721D01*
X024471Y035721D01*
X024721Y035471D01*
X024971Y035721D01*
X025471Y035721D01*
X025721Y035471D01*
X025971Y035721D01*
X026471Y035721D01*
X026721Y035471D01*
X026971Y035721D01*
X027471Y035721D01*
X027721Y035471D01*
X027971Y035721D01*
X028471Y035721D01*
X028721Y035471D01*
X028971Y035721D01*
X029471Y035721D01*
X029721Y035471D01*
X029971Y035721D01*
X030471Y035721D01*
X030721Y035471D01*
X030721Y034971D01*
X025971Y033471D02*
X025971Y032971D01*
X025721Y032721D01*
X025971Y032471D01*
X025971Y031971D01*
X025721Y031721D01*
X025221Y031721D01*
X024971Y031971D01*
X024971Y032471D01*
X025221Y032721D01*
X024971Y032971D01*
X024971Y033471D01*
X025221Y033721D01*
X025721Y033721D01*
X025971Y033471D01*
X022221Y033471D02*
X022221Y032971D01*
X021971Y032721D01*
X022221Y032471D01*
X022221Y031971D01*
X021971Y031721D01*
X021471Y031721D01*
X021221Y031971D01*
X021221Y032471D01*
X021471Y032721D01*
X021221Y032971D01*
X021221Y033471D01*
X021471Y033721D01*
X021971Y033721D01*
X022221Y033471D01*
X020971Y033471D02*
X020971Y032971D01*
X020721Y032721D01*
X020971Y032471D01*
X020971Y031971D01*
X020721Y031721D01*
X020221Y031721D01*
X019971Y031971D01*
X019971Y032471D01*
X020221Y032721D01*
X019971Y032971D01*
X019971Y033471D01*
X020221Y033721D01*
X020721Y033721D01*
X020971Y033471D01*
X020871Y034721D02*
X020371Y034721D01*
X020121Y034971D01*
X019871Y034721D01*
X019371Y034721D01*
X019121Y034971D01*
X018871Y034721D01*
X018371Y034721D01*
X018121Y034971D01*
X017871Y034721D01*
X017371Y034721D01*
X017121Y034971D01*
X016871Y034721D01*
X016371Y034721D01*
X016121Y034971D01*
X015871Y034721D01*
X015371Y034721D01*
X015121Y034971D01*
X014871Y034721D01*
X014371Y034721D01*
X014121Y034971D01*
X014121Y035471D01*
X014371Y035721D01*
X014871Y035721D01*
X015121Y035471D01*
X015371Y035721D01*
X015871Y035721D01*
X016121Y035471D01*
X016371Y035721D01*
X016871Y035721D01*
X017121Y035471D01*
X017371Y035721D01*
X017871Y035721D01*
X018121Y035471D01*
X018371Y035721D01*
X018871Y035721D01*
X019121Y035471D01*
X019371Y035721D01*
X019871Y035721D01*
X020121Y035471D01*
X020371Y035721D01*
X020871Y035721D01*
X021121Y035471D01*
X021371Y035721D01*
X021871Y035721D01*
X022121Y035471D01*
X022121Y034971D01*
X021871Y034721D01*
X021371Y034721D01*
X021121Y034971D01*
X020871Y034721D01*
X019471Y033471D02*
X019221Y033721D01*
X018721Y033721D01*
X018471Y033471D01*
X018471Y032971D01*
X018721Y032721D01*
X018471Y032471D01*
X018471Y031971D01*
X018721Y031721D01*
X019221Y031721D01*
X019471Y031971D01*
X019471Y032471D01*
X019221Y032721D01*
X019471Y032971D01*
X019471Y033471D01*
X018221Y033471D02*
X018221Y032971D01*
X017971Y032721D01*
X018221Y032471D01*
X018221Y031971D01*
X017971Y031721D01*
X017471Y031721D01*
X017221Y031971D01*
X017221Y032471D01*
X017471Y032721D01*
X017221Y032971D01*
X017221Y033471D01*
X017471Y033721D01*
X017971Y033721D01*
X018221Y033471D01*
X016971Y033471D02*
X016971Y032971D01*
X016721Y032721D01*
X016971Y032471D01*
X016971Y031971D01*
X016721Y031721D01*
X016221Y031721D01*
X015971Y031971D01*
X015971Y032471D01*
X016221Y032721D01*
X015971Y032971D01*
X015971Y033471D01*
X016221Y033721D01*
X016721Y033721D01*
X016971Y033471D01*
X013221Y032721D02*
X012971Y032721D01*
X012471Y032721D01*
X012221Y032721D01*
X012221Y032471D01*
X011971Y032721D01*
X011471Y032721D01*
X011221Y032471D01*
X010971Y032721D01*
X010471Y032721D01*
X010221Y032471D01*
X009971Y032721D01*
X009471Y032721D01*
X009221Y032471D01*
X008971Y032721D01*
X008471Y032721D01*
X008221Y032471D01*
X007971Y032721D01*
X007471Y032721D01*
X007221Y032471D01*
X006971Y032721D01*
X006471Y032721D01*
X006221Y032471D01*
X006221Y031971D01*
X006471Y031721D01*
X006971Y031721D01*
X007221Y031971D01*
X007471Y031721D01*
X007971Y031721D01*
X008221Y031971D01*
X008471Y031721D01*
X008971Y031721D01*
X009221Y031971D01*
X009471Y031721D01*
X009971Y031721D01*
X010221Y031971D01*
X010471Y031721D01*
X010971Y031721D01*
X011221Y031971D01*
X011471Y031721D01*
X011971Y031721D01*
X012221Y031971D01*
X012221Y031721D01*
X012471Y031721D01*
X012971Y031721D01*
X013221Y031721D01*
X013221Y031971D01*
X013221Y032471D01*
X013221Y032721D01*
X009237Y034221D02*
X009239Y034283D01*
X009245Y034346D01*
X009255Y034407D01*
X009269Y034468D01*
X009286Y034528D01*
X009307Y034587D01*
X009333Y034644D01*
X009361Y034699D01*
X009393Y034753D01*
X009429Y034804D01*
X009467Y034854D01*
X009509Y034900D01*
X009553Y034944D01*
X009601Y034985D01*
X009650Y035023D01*
X009702Y035057D01*
X009756Y035088D01*
X009812Y035116D01*
X009870Y035140D01*
X009929Y035161D01*
X009989Y035177D01*
X010050Y035190D01*
X010112Y035199D01*
X010174Y035204D01*
X010237Y035205D01*
X010299Y035202D01*
X010361Y035195D01*
X010423Y035184D01*
X010483Y035169D01*
X010543Y035151D01*
X010601Y035129D01*
X010658Y035103D01*
X010713Y035073D01*
X010766Y035040D01*
X010817Y035004D01*
X010865Y034965D01*
X010911Y034922D01*
X010954Y034877D01*
X010994Y034829D01*
X011031Y034779D01*
X011065Y034726D01*
X011096Y034672D01*
X011122Y034616D01*
X011146Y034558D01*
X011165Y034498D01*
X011181Y034438D01*
X011193Y034376D01*
X011201Y034315D01*
X011205Y034252D01*
X011205Y034190D01*
X011201Y034127D01*
X011193Y034066D01*
X011181Y034004D01*
X011165Y033944D01*
X011146Y033884D01*
X011122Y033826D01*
X011096Y033770D01*
X011065Y033716D01*
X011031Y033663D01*
X010994Y033613D01*
X010954Y033565D01*
X010911Y033520D01*
X010865Y033477D01*
X010817Y033438D01*
X010766Y033402D01*
X010713Y033369D01*
X010658Y033339D01*
X010601Y033313D01*
X010543Y033291D01*
X010483Y033273D01*
X010423Y033258D01*
X010361Y033247D01*
X010299Y033240D01*
X010237Y033237D01*
X010174Y033238D01*
X010112Y033243D01*
X010050Y033252D01*
X009989Y033265D01*
X009929Y033281D01*
X009870Y033302D01*
X009812Y033326D01*
X009756Y033354D01*
X009702Y033385D01*
X009650Y033419D01*
X009601Y033457D01*
X009553Y033498D01*
X009509Y033542D01*
X009467Y033588D01*
X009429Y033638D01*
X009393Y033689D01*
X009361Y033743D01*
X009333Y033798D01*
X009307Y033855D01*
X009286Y033914D01*
X009269Y033974D01*
X009255Y034035D01*
X009245Y034096D01*
X009239Y034159D01*
X009237Y034221D01*
X009521Y034771D02*
X009921Y034771D01*
X006341Y034471D02*
X006343Y034521D01*
X006349Y034571D01*
X006359Y034620D01*
X006373Y034668D01*
X006390Y034715D01*
X006411Y034760D01*
X006436Y034804D01*
X006464Y034845D01*
X006496Y034884D01*
X006530Y034921D01*
X006567Y034955D01*
X006607Y034985D01*
X006649Y035012D01*
X006693Y035036D01*
X006739Y035057D01*
X006786Y035073D01*
X006834Y035086D01*
X006884Y035095D01*
X006933Y035100D01*
X006984Y035101D01*
X007034Y035098D01*
X007083Y035091D01*
X007132Y035080D01*
X007180Y035065D01*
X007226Y035047D01*
X007271Y035025D01*
X007314Y034999D01*
X007355Y034970D01*
X007394Y034938D01*
X007430Y034903D01*
X007462Y034865D01*
X007492Y034825D01*
X007519Y034782D01*
X007542Y034738D01*
X007561Y034692D01*
X007577Y034644D01*
X007589Y034595D01*
X007597Y034546D01*
X007601Y034496D01*
X007601Y034446D01*
X007597Y034396D01*
X007589Y034347D01*
X007577Y034298D01*
X007561Y034250D01*
X007542Y034204D01*
X007519Y034160D01*
X007492Y034117D01*
X007462Y034077D01*
X007430Y034039D01*
X007394Y034004D01*
X007355Y033972D01*
X007314Y033943D01*
X007271Y033917D01*
X007226Y033895D01*
X007180Y033877D01*
X007132Y033862D01*
X007083Y033851D01*
X007034Y033844D01*
X006984Y033841D01*
X006933Y033842D01*
X006884Y033847D01*
X006834Y033856D01*
X006786Y033869D01*
X006739Y033885D01*
X006693Y033906D01*
X006649Y033930D01*
X006607Y033957D01*
X006567Y033987D01*
X006530Y034021D01*
X006496Y034058D01*
X006464Y034097D01*
X006436Y034138D01*
X006411Y034182D01*
X006390Y034227D01*
X006373Y034274D01*
X006359Y034322D01*
X006349Y034371D01*
X006343Y034421D01*
X006341Y034471D01*
X035221Y021398D02*
X035516Y021398D01*
X035516Y022382D01*
X043587Y022382D01*
X043587Y021398D01*
X035516Y021398D01*
X038987Y032471D02*
X038989Y032533D01*
X038995Y032596D01*
X039005Y032657D01*
X039019Y032718D01*
X039036Y032778D01*
X039057Y032837D01*
X039083Y032894D01*
X039111Y032949D01*
X039143Y033003D01*
X039179Y033054D01*
X039217Y033104D01*
X039259Y033150D01*
X039303Y033194D01*
X039351Y033235D01*
X039400Y033273D01*
X039452Y033307D01*
X039506Y033338D01*
X039562Y033366D01*
X039620Y033390D01*
X039679Y033411D01*
X039739Y033427D01*
X039800Y033440D01*
X039862Y033449D01*
X039924Y033454D01*
X039987Y033455D01*
X040049Y033452D01*
X040111Y033445D01*
X040173Y033434D01*
X040233Y033419D01*
X040293Y033401D01*
X040351Y033379D01*
X040408Y033353D01*
X040463Y033323D01*
X040516Y033290D01*
X040567Y033254D01*
X040615Y033215D01*
X040661Y033172D01*
X040704Y033127D01*
X040744Y033079D01*
X040781Y033029D01*
X040815Y032976D01*
X040846Y032922D01*
X040872Y032866D01*
X040896Y032808D01*
X040915Y032748D01*
X040931Y032688D01*
X040943Y032626D01*
X040951Y032565D01*
X040955Y032502D01*
X040955Y032440D01*
X040951Y032377D01*
X040943Y032316D01*
X040931Y032254D01*
X040915Y032194D01*
X040896Y032134D01*
X040872Y032076D01*
X040846Y032020D01*
X040815Y031966D01*
X040781Y031913D01*
X040744Y031863D01*
X040704Y031815D01*
X040661Y031770D01*
X040615Y031727D01*
X040567Y031688D01*
X040516Y031652D01*
X040463Y031619D01*
X040408Y031589D01*
X040351Y031563D01*
X040293Y031541D01*
X040233Y031523D01*
X040173Y031508D01*
X040111Y031497D01*
X040049Y031490D01*
X039987Y031487D01*
X039924Y031488D01*
X039862Y031493D01*
X039800Y031502D01*
X039739Y031515D01*
X039679Y031531D01*
X039620Y031552D01*
X039562Y031576D01*
X039506Y031604D01*
X039452Y031635D01*
X039400Y031669D01*
X039351Y031707D01*
X039303Y031748D01*
X039259Y031792D01*
X039217Y031838D01*
X039179Y031888D01*
X039143Y031939D01*
X039111Y031993D01*
X039083Y032048D01*
X039057Y032105D01*
X039036Y032164D01*
X039019Y032224D01*
X039005Y032285D01*
X038995Y032346D01*
X038989Y032409D01*
X038987Y032471D01*
X040521Y032771D02*
X040521Y033171D01*
X041841Y034471D02*
X041843Y034521D01*
X041849Y034571D01*
X041859Y034620D01*
X041873Y034668D01*
X041890Y034715D01*
X041911Y034760D01*
X041936Y034804D01*
X041964Y034845D01*
X041996Y034884D01*
X042030Y034921D01*
X042067Y034955D01*
X042107Y034985D01*
X042149Y035012D01*
X042193Y035036D01*
X042239Y035057D01*
X042286Y035073D01*
X042334Y035086D01*
X042384Y035095D01*
X042433Y035100D01*
X042484Y035101D01*
X042534Y035098D01*
X042583Y035091D01*
X042632Y035080D01*
X042680Y035065D01*
X042726Y035047D01*
X042771Y035025D01*
X042814Y034999D01*
X042855Y034970D01*
X042894Y034938D01*
X042930Y034903D01*
X042962Y034865D01*
X042992Y034825D01*
X043019Y034782D01*
X043042Y034738D01*
X043061Y034692D01*
X043077Y034644D01*
X043089Y034595D01*
X043097Y034546D01*
X043101Y034496D01*
X043101Y034446D01*
X043097Y034396D01*
X043089Y034347D01*
X043077Y034298D01*
X043061Y034250D01*
X043042Y034204D01*
X043019Y034160D01*
X042992Y034117D01*
X042962Y034077D01*
X042930Y034039D01*
X042894Y034004D01*
X042855Y033972D01*
X042814Y033943D01*
X042771Y033917D01*
X042726Y033895D01*
X042680Y033877D01*
X042632Y033862D01*
X042583Y033851D01*
X042534Y033844D01*
X042484Y033841D01*
X042433Y033842D01*
X042384Y033847D01*
X042334Y033856D01*
X042286Y033869D01*
X042239Y033885D01*
X042193Y033906D01*
X042149Y033930D01*
X042107Y033957D01*
X042067Y033987D01*
X042030Y034021D01*
X041996Y034058D01*
X041964Y034097D01*
X041936Y034138D01*
X041911Y034182D01*
X041890Y034227D01*
X041873Y034274D01*
X041859Y034322D01*
X041849Y034371D01*
X041843Y034421D01*
X041841Y034471D01*
D19*
X037427Y032871D02*
X037352Y032946D01*
X037202Y032946D01*
X037127Y032871D01*
X037427Y032871D02*
X037427Y032796D01*
X037127Y032496D01*
X037427Y032496D01*
X036967Y032496D02*
X036666Y032496D01*
X036817Y032496D02*
X036817Y032946D01*
X036666Y032796D01*
X036506Y032871D02*
X036506Y032721D01*
X036431Y032646D01*
X036206Y032646D01*
X036206Y032496D02*
X036206Y032946D01*
X036431Y032946D01*
X036506Y032871D01*
X036046Y032946D02*
X035896Y032946D01*
X035971Y032946D02*
X035971Y032571D01*
X035896Y032496D01*
X035821Y032496D01*
X035746Y032571D01*
X036071Y033996D02*
X036146Y033996D01*
X036221Y034071D01*
X036221Y034446D01*
X036146Y034446D02*
X036296Y034446D01*
X036456Y034446D02*
X036456Y033996D01*
X036456Y034146D02*
X036681Y034146D01*
X036756Y034221D01*
X036756Y034371D01*
X036681Y034446D01*
X036456Y034446D01*
X036916Y034221D02*
X037217Y034221D01*
X037142Y034446D02*
X036916Y034221D01*
X037142Y033996D02*
X037142Y034446D01*
X036071Y033996D02*
X035996Y034071D01*
X032221Y033471D02*
X032221Y032971D01*
X031971Y032721D01*
X032221Y032471D01*
X032221Y031971D01*
X031971Y031721D01*
X032221Y031471D01*
X032221Y030971D01*
X031971Y030721D01*
X031471Y030721D01*
X031221Y030971D01*
X030971Y030721D01*
X030471Y030721D01*
X030221Y030971D01*
X029971Y030721D01*
X029471Y030721D01*
X029221Y030971D01*
X028971Y030721D01*
X028471Y030721D01*
X028221Y030971D01*
X027971Y030721D01*
X027471Y030721D01*
X027221Y030971D01*
X026971Y030721D01*
X026471Y030721D01*
X026221Y030971D01*
X026221Y031471D01*
X026471Y031721D01*
X026221Y031971D01*
X026221Y032471D01*
X026471Y032721D01*
X026221Y032971D01*
X026221Y033471D01*
X026471Y033721D01*
X026971Y033721D01*
X027221Y033471D01*
X027471Y033721D01*
X027971Y033721D01*
X028221Y033471D01*
X028471Y033721D01*
X028971Y033721D01*
X029221Y033471D01*
X029471Y033721D01*
X029971Y033721D01*
X030221Y033471D01*
X030471Y033721D01*
X030971Y033721D01*
X031221Y033471D01*
X031471Y033721D01*
X031971Y033721D01*
X032221Y033471D01*
X029862Y023916D02*
X029712Y023916D01*
X029636Y023841D01*
X029476Y023841D02*
X029476Y023691D01*
X029401Y023616D01*
X029176Y023616D01*
X029176Y023466D02*
X029176Y023916D01*
X029401Y023916D01*
X029476Y023841D01*
X029636Y023541D02*
X029712Y023466D01*
X029862Y023466D01*
X029937Y023541D01*
X029937Y023616D01*
X029862Y023691D01*
X029787Y023691D01*
X029862Y023691D02*
X029937Y023766D01*
X029937Y023841D01*
X029862Y023916D01*
X029016Y023916D02*
X028866Y023916D01*
X028941Y023916D02*
X028941Y023541D01*
X028866Y023466D01*
X028791Y023466D01*
X028716Y023541D01*
X025476Y018897D02*
X025476Y018597D01*
X025476Y018747D02*
X025025Y018747D01*
X025176Y018597D01*
X025476Y018437D02*
X025476Y018136D01*
X025476Y018287D02*
X025025Y018287D01*
X025176Y018136D01*
X025251Y017976D02*
X025100Y017976D01*
X025025Y017901D01*
X025025Y017676D01*
X025476Y017676D01*
X025326Y017676D02*
X025326Y017901D01*
X025251Y017976D01*
X025025Y017516D02*
X025025Y017366D01*
X025025Y017441D02*
X025401Y017441D01*
X025476Y017366D01*
X025476Y017291D01*
X025401Y017216D01*
X022187Y018966D02*
X021886Y018966D01*
X022187Y019266D01*
X022187Y019341D01*
X022112Y019416D01*
X021962Y019416D01*
X021886Y019341D01*
X021726Y019341D02*
X021726Y019191D01*
X021651Y019116D01*
X021426Y019116D01*
X021426Y018966D02*
X021426Y019416D01*
X021651Y019416D01*
X021726Y019341D01*
X021266Y019416D02*
X021116Y019416D01*
X021191Y019416D02*
X021191Y019041D01*
X021116Y018966D01*
X021041Y018966D01*
X020966Y019041D01*
X017937Y018966D02*
X017636Y018966D01*
X017787Y018966D02*
X017787Y019416D01*
X017636Y019266D01*
X017476Y019191D02*
X017401Y019116D01*
X017176Y019116D01*
X017176Y018966D02*
X017176Y019416D01*
X017401Y019416D01*
X017476Y019341D01*
X017476Y019191D01*
X017016Y019416D02*
X016866Y019416D01*
X016941Y019416D02*
X016941Y019041D01*
X016866Y018966D01*
X016791Y018966D01*
X016716Y019041D01*
X030721Y015221D02*
X030721Y005221D01*
X040721Y005221D01*
X040721Y014221D01*
X039721Y015221D01*
X030721Y015221D01*
X035225Y012146D02*
X035375Y012296D01*
X035375Y011846D01*
X035225Y011846D02*
X035525Y011846D01*
X035685Y011921D02*
X035986Y012221D01*
X035986Y011921D01*
X035911Y011846D01*
X035760Y011846D01*
X035685Y011921D01*
X035685Y012221D01*
X035760Y012296D01*
X035911Y012296D01*
X035986Y012221D01*
X038285Y011296D02*
X038436Y011446D01*
X038436Y010996D01*
X038586Y010996D02*
X038285Y010996D01*
X038360Y010446D02*
X038285Y010371D01*
X038360Y010446D02*
X038511Y010446D01*
X038586Y010371D01*
X038586Y010296D01*
X038285Y009996D01*
X038586Y009996D01*
X041275Y009941D02*
X041275Y009791D01*
X041350Y009716D01*
X041426Y009716D01*
X041501Y009791D01*
X041501Y009941D01*
X041576Y010016D01*
X041651Y010016D01*
X041726Y009941D01*
X041726Y009791D01*
X041651Y009716D01*
X041350Y010016D02*
X041275Y009941D01*
X041275Y010176D02*
X041726Y010176D01*
X041726Y010476D01*
X041726Y010636D02*
X041275Y010636D01*
X041726Y010937D01*
X041275Y010937D01*
X041350Y011097D02*
X041426Y011097D01*
X041501Y011172D01*
X041501Y011322D01*
X041576Y011397D01*
X041651Y011397D01*
X041726Y011322D01*
X041726Y011172D01*
X041651Y011097D01*
X041350Y011097D02*
X041275Y011172D01*
X041275Y011322D01*
X041350Y011397D01*
X041350Y011557D02*
X041275Y011632D01*
X041275Y011782D01*
X041350Y011857D01*
X041426Y011857D01*
X041726Y011557D01*
X041726Y011857D01*
X041275Y010476D02*
X041275Y010176D01*
X041501Y010176D02*
X041501Y010326D01*
X015096Y032071D02*
X015096Y032146D01*
X015021Y032221D01*
X014645Y032221D01*
X014645Y032146D02*
X014645Y032296D01*
X014645Y032456D02*
X014645Y032681D01*
X014720Y032756D01*
X014871Y032756D01*
X014946Y032681D01*
X014946Y032456D01*
X015096Y032456D02*
X014645Y032456D01*
X014796Y032916D02*
X014645Y033067D01*
X015096Y033067D01*
X015096Y033217D02*
X015096Y032916D01*
X015021Y033377D02*
X014720Y033677D01*
X015021Y033677D01*
X015096Y033602D01*
X015096Y033452D01*
X015021Y033377D01*
X014720Y033377D01*
X014645Y033452D01*
X014645Y033602D01*
X014720Y033677D01*
X015096Y032071D02*
X015021Y031996D01*
D20*
X039621Y014721D02*
X039623Y014741D01*
X039629Y014759D01*
X039638Y014777D01*
X039650Y014792D01*
X039665Y014804D01*
X039683Y014813D01*
X039701Y014819D01*
X039721Y014821D01*
X039741Y014819D01*
X039759Y014813D01*
X039777Y014804D01*
X039792Y014792D01*
X039804Y014777D01*
X039813Y014759D01*
X039819Y014741D01*
X039821Y014721D01*
X039819Y014701D01*
X039813Y014683D01*
X039804Y014665D01*
X039792Y014650D01*
X039777Y014638D01*
X039759Y014629D01*
X039741Y014623D01*
X039721Y014621D01*
X039701Y014623D01*
X039683Y014629D01*
X039665Y014638D01*
X039650Y014650D01*
X039638Y014665D01*
X039629Y014683D01*
X039623Y014701D01*
X039621Y014721D01*
D21*
X027366Y013388D02*
X027421Y013345D01*
X027385Y013296D01*
X027351Y013245D01*
X027322Y013191D01*
X027295Y013136D01*
X027271Y013080D01*
X027252Y013022D01*
X027235Y012963D01*
X027222Y012903D01*
X027213Y012843D01*
X027208Y012782D01*
X027206Y012720D01*
X027208Y012659D01*
X027213Y012598D01*
X027223Y012538D01*
X027236Y012478D01*
X027252Y012419D01*
X027272Y012361D01*
X027295Y012305D01*
X027322Y012250D01*
X027352Y012196D01*
X027385Y012145D01*
X027421Y012096D01*
X027461Y012049D01*
X027502Y012004D01*
X027547Y011962D01*
X027594Y011923D01*
X027643Y011887D01*
X027694Y011853D01*
X027748Y011823D01*
X027803Y011796D01*
X027859Y011773D01*
X027917Y011753D01*
X027897Y011686D01*
X027896Y011686D01*
X027835Y011707D01*
X027774Y011732D01*
X027715Y011761D01*
X027658Y011793D01*
X027604Y011829D01*
X027551Y011868D01*
X027501Y011910D01*
X027453Y011955D01*
X027408Y012002D01*
X027366Y012052D01*
X027328Y012105D01*
X027292Y012160D01*
X027260Y012217D01*
X027231Y012276D01*
X027206Y012336D01*
X027185Y012398D01*
X027168Y012461D01*
X027154Y012525D01*
X027144Y012590D01*
X027138Y012655D01*
X027136Y012721D01*
X027138Y012786D01*
X027144Y012851D01*
X027154Y012916D01*
X027167Y012980D01*
X027185Y013043D01*
X027206Y013105D01*
X027231Y013165D01*
X027260Y013224D01*
X027292Y013281D01*
X027327Y013336D01*
X027366Y013389D01*
X027373Y013383D01*
X027335Y013331D01*
X027299Y013276D01*
X027268Y013220D01*
X027239Y013161D01*
X027214Y013101D01*
X027193Y013040D01*
X027176Y012978D01*
X027162Y012914D01*
X027153Y012850D01*
X027147Y012785D01*
X027145Y012721D01*
X027147Y012656D01*
X027153Y012591D01*
X027163Y012527D01*
X027176Y012463D01*
X027194Y012401D01*
X027215Y012340D01*
X027240Y012280D01*
X027268Y012221D01*
X027300Y012165D01*
X027335Y012110D01*
X027373Y012058D01*
X027415Y012008D01*
X027459Y011961D01*
X027507Y011916D01*
X027556Y011875D01*
X027609Y011836D01*
X027663Y011801D01*
X027720Y011769D01*
X027778Y011741D01*
X027838Y011716D01*
X027899Y011694D01*
X027902Y011703D01*
X027841Y011724D01*
X027781Y011749D01*
X027724Y011777D01*
X027668Y011809D01*
X027614Y011844D01*
X027562Y011882D01*
X027513Y011923D01*
X027466Y011967D01*
X027422Y012014D01*
X027381Y012064D01*
X027342Y012115D01*
X027308Y012169D01*
X027276Y012226D01*
X027248Y012283D01*
X027223Y012343D01*
X027202Y012404D01*
X027185Y012466D01*
X027172Y012529D01*
X027162Y012592D01*
X027156Y012656D01*
X027154Y012720D01*
X027156Y012785D01*
X027162Y012849D01*
X027171Y012912D01*
X027185Y012975D01*
X027202Y013037D01*
X027223Y013098D01*
X027247Y013158D01*
X027276Y013216D01*
X027307Y013272D01*
X027342Y013326D01*
X027380Y013378D01*
X027387Y013372D01*
X027349Y013321D01*
X027315Y013267D01*
X027283Y013211D01*
X027256Y013154D01*
X027231Y013095D01*
X027211Y013035D01*
X027194Y012973D01*
X027180Y012911D01*
X027171Y012848D01*
X027165Y012784D01*
X027163Y012720D01*
X027165Y012657D01*
X027171Y012593D01*
X027180Y012530D01*
X027194Y012468D01*
X027211Y012406D01*
X027232Y012346D01*
X027256Y012287D01*
X027284Y012230D01*
X027315Y012174D01*
X027350Y012121D01*
X027388Y012069D01*
X027428Y012020D01*
X027472Y011974D01*
X027519Y011930D01*
X027567Y011889D01*
X027619Y011851D01*
X027672Y011816D01*
X027728Y011785D01*
X027785Y011757D01*
X027844Y011732D01*
X027904Y011712D01*
X027907Y011720D01*
X027847Y011741D01*
X027789Y011765D01*
X027732Y011793D01*
X027677Y011824D01*
X027624Y011859D01*
X027573Y011896D01*
X027524Y011937D01*
X027478Y011980D01*
X027435Y012026D01*
X027395Y012075D01*
X027357Y012126D01*
X027323Y012179D01*
X027292Y012234D01*
X027264Y012291D01*
X027240Y012349D01*
X027219Y012409D01*
X027202Y012470D01*
X027189Y012532D01*
X027180Y012594D01*
X027174Y012657D01*
X027172Y012720D01*
X027174Y012784D01*
X027180Y012847D01*
X027189Y012909D01*
X027202Y012971D01*
X027219Y013032D01*
X027240Y013092D01*
X027264Y013150D01*
X027291Y013207D01*
X027322Y013262D01*
X027357Y013315D01*
X027394Y013366D01*
X027401Y013361D01*
X027364Y013310D01*
X027330Y013258D01*
X027299Y013203D01*
X027272Y013147D01*
X027248Y013089D01*
X027228Y013029D01*
X027211Y012969D01*
X027198Y012908D01*
X027188Y012846D01*
X027183Y012783D01*
X027181Y012720D01*
X027183Y012658D01*
X027189Y012595D01*
X027198Y012533D01*
X027211Y012472D01*
X027228Y012412D01*
X027249Y012352D01*
X027272Y012294D01*
X027300Y012238D01*
X027331Y012183D01*
X027365Y012131D01*
X027402Y012080D01*
X027442Y012032D01*
X027485Y011986D01*
X027530Y011943D01*
X027579Y011903D01*
X027629Y011866D01*
X027682Y011832D01*
X027736Y011801D01*
X027792Y011773D01*
X027850Y011749D01*
X027910Y011729D01*
X027912Y011737D01*
X027854Y011758D01*
X027796Y011782D01*
X027740Y011809D01*
X027686Y011840D01*
X027634Y011873D01*
X027584Y011910D01*
X027536Y011950D01*
X027491Y011993D01*
X027449Y012038D01*
X027409Y012086D01*
X027372Y012136D01*
X027338Y012188D01*
X027308Y012242D01*
X027281Y012298D01*
X027257Y012356D01*
X027237Y012414D01*
X027220Y012474D01*
X027207Y012535D01*
X027198Y012596D01*
X027192Y012658D01*
X027190Y012720D01*
X027192Y012783D01*
X027197Y012844D01*
X027207Y012906D01*
X027220Y012967D01*
X027236Y013027D01*
X027257Y013085D01*
X027280Y013143D01*
X027307Y013199D01*
X027338Y013253D01*
X027371Y013305D01*
X027408Y013355D01*
X027415Y013350D01*
X027379Y013300D01*
X027346Y013248D01*
X027315Y013195D01*
X027288Y013139D01*
X027265Y013082D01*
X027245Y013024D01*
X027228Y012965D01*
X027216Y012904D01*
X027206Y012843D01*
X027201Y012782D01*
X027199Y012720D01*
X027201Y012659D01*
X027206Y012598D01*
X027216Y012537D01*
X027229Y012476D01*
X027245Y012417D01*
X027265Y012359D01*
X027289Y012302D01*
X027316Y012246D01*
X027346Y012193D01*
X027379Y012141D01*
X027416Y012091D01*
X027455Y012044D01*
X027498Y011999D01*
X027542Y011957D01*
X027590Y011917D01*
X027639Y011881D01*
X027691Y011847D01*
X027744Y011817D01*
X027800Y011790D01*
X027857Y011766D01*
X027915Y011746D01*
X028545Y011686D02*
X028525Y011753D01*
X028583Y011773D01*
X028639Y011796D01*
X028694Y011823D01*
X028747Y011853D01*
X028799Y011887D01*
X028848Y011923D01*
X028895Y011962D01*
X028939Y012004D01*
X028981Y012049D01*
X029021Y012096D01*
X029057Y012145D01*
X029090Y012196D01*
X029120Y012250D01*
X029147Y012305D01*
X029170Y012361D01*
X029190Y012419D01*
X029206Y012478D01*
X029219Y012538D01*
X029229Y012598D01*
X029234Y012659D01*
X029236Y012720D01*
X029234Y012782D01*
X029229Y012843D01*
X029220Y012903D01*
X029207Y012963D01*
X029190Y013022D01*
X029171Y013080D01*
X029147Y013136D01*
X029120Y013191D01*
X029091Y013245D01*
X029057Y013296D01*
X029021Y013345D01*
X029076Y013388D01*
X029076Y013389D01*
X029115Y013336D01*
X029150Y013281D01*
X029182Y013224D01*
X029211Y013165D01*
X029236Y013105D01*
X029257Y013043D01*
X029275Y012980D01*
X029288Y012916D01*
X029298Y012851D01*
X029304Y012786D01*
X029306Y012720D01*
X029304Y012655D01*
X029298Y012590D01*
X029288Y012525D01*
X029274Y012461D01*
X029257Y012398D01*
X029236Y012336D01*
X029211Y012276D01*
X029182Y012217D01*
X029150Y012160D01*
X029114Y012105D01*
X029076Y012052D01*
X029034Y012002D01*
X028989Y011955D01*
X028941Y011910D01*
X028891Y011868D01*
X028838Y011829D01*
X028784Y011793D01*
X028727Y011761D01*
X028668Y011732D01*
X028607Y011707D01*
X028546Y011686D01*
X028543Y011694D01*
X028604Y011716D01*
X028664Y011741D01*
X028722Y011769D01*
X028779Y011801D01*
X028833Y011836D01*
X028886Y011875D01*
X028935Y011916D01*
X028983Y011961D01*
X029027Y012008D01*
X029068Y012058D01*
X029107Y012110D01*
X029142Y012165D01*
X029174Y012221D01*
X029202Y012280D01*
X029227Y012340D01*
X029248Y012401D01*
X029266Y012463D01*
X029279Y012527D01*
X029289Y012591D01*
X029295Y012656D01*
X029297Y012720D01*
X029295Y012785D01*
X029289Y012850D01*
X029280Y012914D01*
X029266Y012978D01*
X029249Y013040D01*
X029228Y013101D01*
X029203Y013161D01*
X029174Y013220D01*
X029143Y013276D01*
X029108Y013331D01*
X029069Y013383D01*
X029062Y013378D01*
X029100Y013326D01*
X029135Y013272D01*
X029166Y013216D01*
X029195Y013158D01*
X029219Y013098D01*
X029240Y013037D01*
X029257Y012975D01*
X029271Y012912D01*
X029280Y012849D01*
X029286Y012785D01*
X029288Y012720D01*
X029286Y012656D01*
X029280Y012592D01*
X029270Y012529D01*
X029257Y012466D01*
X029240Y012404D01*
X029219Y012343D01*
X029194Y012283D01*
X029166Y012226D01*
X029134Y012169D01*
X029100Y012115D01*
X029061Y012064D01*
X029020Y012014D01*
X028976Y011967D01*
X028929Y011923D01*
X028880Y011882D01*
X028828Y011844D01*
X028774Y011809D01*
X028718Y011777D01*
X028661Y011749D01*
X028601Y011724D01*
X028540Y011703D01*
X028538Y011712D01*
X028598Y011732D01*
X028657Y011757D01*
X028714Y011785D01*
X028770Y011816D01*
X028823Y011851D01*
X028875Y011889D01*
X028923Y011930D01*
X028970Y011974D01*
X029014Y012020D01*
X029054Y012069D01*
X029092Y012121D01*
X029127Y012174D01*
X029158Y012230D01*
X029186Y012287D01*
X029210Y012346D01*
X029231Y012406D01*
X029248Y012468D01*
X029262Y012530D01*
X029271Y012593D01*
X029277Y012657D01*
X029279Y012720D01*
X029277Y012784D01*
X029271Y012848D01*
X029262Y012911D01*
X029249Y012973D01*
X029231Y013035D01*
X029211Y013095D01*
X029186Y013154D01*
X029159Y013211D01*
X029127Y013267D01*
X029093Y013321D01*
X029055Y013372D01*
X029048Y013366D01*
X029085Y013315D01*
X029120Y013262D01*
X029151Y013207D01*
X029178Y013150D01*
X029202Y013092D01*
X029223Y013032D01*
X029240Y012971D01*
X029253Y012909D01*
X029262Y012847D01*
X029268Y012784D01*
X029270Y012720D01*
X029268Y012657D01*
X029262Y012594D01*
X029253Y012532D01*
X029240Y012470D01*
X029223Y012409D01*
X029202Y012349D01*
X029178Y012291D01*
X029150Y012234D01*
X029119Y012179D01*
X029085Y012126D01*
X029047Y012075D01*
X029007Y012026D01*
X028964Y011980D01*
X028918Y011937D01*
X028869Y011896D01*
X028818Y011859D01*
X028765Y011824D01*
X028710Y011793D01*
X028653Y011765D01*
X028595Y011741D01*
X028535Y011720D01*
X028532Y011729D01*
X028592Y011749D01*
X028649Y011773D01*
X028706Y011801D01*
X028760Y011832D01*
X028813Y011866D01*
X028863Y011903D01*
X028912Y011943D01*
X028957Y011986D01*
X029000Y012032D01*
X029040Y012080D01*
X029077Y012131D01*
X029111Y012183D01*
X029142Y012238D01*
X029170Y012294D01*
X029193Y012352D01*
X029214Y012412D01*
X029231Y012472D01*
X029244Y012533D01*
X029253Y012595D01*
X029259Y012658D01*
X029261Y012720D01*
X029259Y012783D01*
X029254Y012846D01*
X029244Y012908D01*
X029231Y012969D01*
X029214Y013029D01*
X029194Y013089D01*
X029170Y013147D01*
X029143Y013203D01*
X029112Y013258D01*
X029078Y013310D01*
X029041Y013361D01*
X029034Y013355D01*
X029071Y013305D01*
X029104Y013253D01*
X029135Y013199D01*
X029162Y013143D01*
X029185Y013085D01*
X029206Y013027D01*
X029222Y012967D01*
X029235Y012906D01*
X029245Y012844D01*
X029250Y012783D01*
X029252Y012720D01*
X029250Y012658D01*
X029244Y012596D01*
X029235Y012535D01*
X029222Y012474D01*
X029205Y012414D01*
X029185Y012356D01*
X029161Y012298D01*
X029134Y012242D01*
X029104Y012188D01*
X029070Y012136D01*
X029033Y012086D01*
X028993Y012038D01*
X028951Y011993D01*
X028906Y011950D01*
X028858Y011910D01*
X028808Y011873D01*
X028756Y011840D01*
X028702Y011809D01*
X028646Y011782D01*
X028588Y011758D01*
X028530Y011737D01*
X028527Y011746D01*
X028585Y011766D01*
X028642Y011790D01*
X028697Y011817D01*
X028751Y011847D01*
X028803Y011881D01*
X028852Y011917D01*
X028900Y011957D01*
X028944Y011999D01*
X028987Y012044D01*
X029026Y012091D01*
X029062Y012141D01*
X029096Y012193D01*
X029126Y012246D01*
X029153Y012302D01*
X029177Y012359D01*
X029197Y012417D01*
X029213Y012476D01*
X029226Y012537D01*
X029236Y012597D01*
X029241Y012659D01*
X029243Y012720D01*
X029241Y012782D01*
X029236Y012843D01*
X029226Y012904D01*
X029214Y012965D01*
X029197Y013024D01*
X029177Y013082D01*
X029154Y013139D01*
X029127Y013195D01*
X029097Y013248D01*
X029063Y013300D01*
X029027Y013350D01*
X027366Y010888D02*
X027421Y010845D01*
X027385Y010796D01*
X027351Y010745D01*
X027322Y010691D01*
X027295Y010636D01*
X027271Y010580D01*
X027252Y010522D01*
X027235Y010463D01*
X027222Y010403D01*
X027213Y010343D01*
X027208Y010282D01*
X027206Y010220D01*
X027208Y010159D01*
X027213Y010098D01*
X027223Y010038D01*
X027236Y009978D01*
X027252Y009919D01*
X027272Y009861D01*
X027295Y009805D01*
X027322Y009750D01*
X027352Y009696D01*
X027385Y009645D01*
X027421Y009596D01*
X027461Y009549D01*
X027502Y009504D01*
X027547Y009462D01*
X027594Y009423D01*
X027643Y009387D01*
X027694Y009353D01*
X027748Y009323D01*
X027803Y009296D01*
X027859Y009273D01*
X027917Y009253D01*
X027897Y009186D01*
X027896Y009186D01*
X027835Y009207D01*
X027774Y009232D01*
X027715Y009261D01*
X027658Y009293D01*
X027604Y009329D01*
X027551Y009368D01*
X027501Y009410D01*
X027453Y009455D01*
X027408Y009502D01*
X027366Y009552D01*
X027328Y009605D01*
X027292Y009660D01*
X027260Y009717D01*
X027231Y009776D01*
X027206Y009836D01*
X027185Y009898D01*
X027168Y009961D01*
X027154Y010025D01*
X027144Y010090D01*
X027138Y010155D01*
X027136Y010221D01*
X027138Y010286D01*
X027144Y010351D01*
X027154Y010416D01*
X027167Y010480D01*
X027185Y010543D01*
X027206Y010605D01*
X027231Y010665D01*
X027260Y010724D01*
X027292Y010781D01*
X027327Y010836D01*
X027366Y010889D01*
X027373Y010883D01*
X027335Y010831D01*
X027299Y010776D01*
X027268Y010720D01*
X027239Y010661D01*
X027214Y010601D01*
X027193Y010540D01*
X027176Y010478D01*
X027162Y010414D01*
X027153Y010350D01*
X027147Y010285D01*
X027145Y010221D01*
X027147Y010156D01*
X027153Y010091D01*
X027163Y010027D01*
X027176Y009963D01*
X027194Y009901D01*
X027215Y009840D01*
X027240Y009780D01*
X027268Y009721D01*
X027300Y009665D01*
X027335Y009610D01*
X027373Y009558D01*
X027415Y009508D01*
X027459Y009461D01*
X027507Y009416D01*
X027556Y009375D01*
X027609Y009336D01*
X027663Y009301D01*
X027720Y009269D01*
X027778Y009241D01*
X027838Y009216D01*
X027899Y009194D01*
X027902Y009203D01*
X027841Y009224D01*
X027781Y009249D01*
X027724Y009277D01*
X027668Y009309D01*
X027614Y009344D01*
X027562Y009382D01*
X027513Y009423D01*
X027466Y009467D01*
X027422Y009514D01*
X027381Y009564D01*
X027342Y009615D01*
X027308Y009669D01*
X027276Y009726D01*
X027248Y009783D01*
X027223Y009843D01*
X027202Y009904D01*
X027185Y009966D01*
X027172Y010029D01*
X027162Y010092D01*
X027156Y010156D01*
X027154Y010220D01*
X027156Y010285D01*
X027162Y010349D01*
X027171Y010412D01*
X027185Y010475D01*
X027202Y010537D01*
X027223Y010598D01*
X027247Y010658D01*
X027276Y010716D01*
X027307Y010772D01*
X027342Y010826D01*
X027380Y010878D01*
X027387Y010872D01*
X027349Y010821D01*
X027315Y010767D01*
X027283Y010711D01*
X027256Y010654D01*
X027231Y010595D01*
X027211Y010535D01*
X027194Y010473D01*
X027180Y010411D01*
X027171Y010348D01*
X027165Y010284D01*
X027163Y010220D01*
X027165Y010157D01*
X027171Y010093D01*
X027180Y010030D01*
X027194Y009968D01*
X027211Y009906D01*
X027232Y009846D01*
X027256Y009787D01*
X027284Y009730D01*
X027315Y009674D01*
X027350Y009621D01*
X027388Y009569D01*
X027428Y009520D01*
X027472Y009474D01*
X027519Y009430D01*
X027567Y009389D01*
X027619Y009351D01*
X027672Y009316D01*
X027728Y009285D01*
X027785Y009257D01*
X027844Y009232D01*
X027904Y009212D01*
X027907Y009220D01*
X027847Y009241D01*
X027789Y009265D01*
X027732Y009293D01*
X027677Y009324D01*
X027624Y009359D01*
X027573Y009396D01*
X027524Y009437D01*
X027478Y009480D01*
X027435Y009526D01*
X027395Y009575D01*
X027357Y009626D01*
X027323Y009679D01*
X027292Y009734D01*
X027264Y009791D01*
X027240Y009849D01*
X027219Y009909D01*
X027202Y009970D01*
X027189Y010032D01*
X027180Y010094D01*
X027174Y010157D01*
X027172Y010220D01*
X027174Y010284D01*
X027180Y010347D01*
X027189Y010409D01*
X027202Y010471D01*
X027219Y010532D01*
X027240Y010592D01*
X027264Y010650D01*
X027291Y010707D01*
X027322Y010762D01*
X027357Y010815D01*
X027394Y010866D01*
X027401Y010861D01*
X027364Y010810D01*
X027330Y010758D01*
X027299Y010703D01*
X027272Y010647D01*
X027248Y010589D01*
X027228Y010529D01*
X027211Y010469D01*
X027198Y010408D01*
X027188Y010346D01*
X027183Y010283D01*
X027181Y010220D01*
X027183Y010158D01*
X027189Y010095D01*
X027198Y010033D01*
X027211Y009972D01*
X027228Y009912D01*
X027249Y009852D01*
X027272Y009794D01*
X027300Y009738D01*
X027331Y009683D01*
X027365Y009631D01*
X027402Y009580D01*
X027442Y009532D01*
X027485Y009486D01*
X027530Y009443D01*
X027579Y009403D01*
X027629Y009366D01*
X027682Y009332D01*
X027736Y009301D01*
X027792Y009273D01*
X027850Y009249D01*
X027910Y009229D01*
X027912Y009237D01*
X027854Y009258D01*
X027796Y009282D01*
X027740Y009309D01*
X027686Y009340D01*
X027634Y009373D01*
X027584Y009410D01*
X027536Y009450D01*
X027491Y009493D01*
X027449Y009538D01*
X027409Y009586D01*
X027372Y009636D01*
X027338Y009688D01*
X027308Y009742D01*
X027281Y009798D01*
X027257Y009856D01*
X027237Y009914D01*
X027220Y009974D01*
X027207Y010035D01*
X027198Y010096D01*
X027192Y010158D01*
X027190Y010220D01*
X027192Y010283D01*
X027197Y010344D01*
X027207Y010406D01*
X027220Y010467D01*
X027236Y010527D01*
X027257Y010585D01*
X027280Y010643D01*
X027307Y010699D01*
X027338Y010753D01*
X027371Y010805D01*
X027408Y010855D01*
X027415Y010850D01*
X027379Y010800D01*
X027346Y010748D01*
X027315Y010695D01*
X027288Y010639D01*
X027265Y010582D01*
X027245Y010524D01*
X027228Y010465D01*
X027216Y010404D01*
X027206Y010343D01*
X027201Y010282D01*
X027199Y010220D01*
X027201Y010159D01*
X027206Y010098D01*
X027216Y010037D01*
X027229Y009976D01*
X027245Y009917D01*
X027265Y009859D01*
X027289Y009802D01*
X027316Y009746D01*
X027346Y009693D01*
X027379Y009641D01*
X027416Y009591D01*
X027455Y009544D01*
X027498Y009499D01*
X027542Y009457D01*
X027590Y009417D01*
X027639Y009381D01*
X027691Y009347D01*
X027744Y009317D01*
X027800Y009290D01*
X027857Y009266D01*
X027915Y009246D01*
X028545Y009186D02*
X028525Y009253D01*
X028583Y009273D01*
X028639Y009296D01*
X028694Y009323D01*
X028747Y009353D01*
X028799Y009387D01*
X028848Y009423D01*
X028895Y009462D01*
X028939Y009504D01*
X028981Y009549D01*
X029021Y009596D01*
X029057Y009645D01*
X029090Y009696D01*
X029120Y009750D01*
X029147Y009805D01*
X029170Y009861D01*
X029190Y009919D01*
X029206Y009978D01*
X029219Y010038D01*
X029229Y010098D01*
X029234Y010159D01*
X029236Y010220D01*
X029234Y010282D01*
X029229Y010343D01*
X029220Y010403D01*
X029207Y010463D01*
X029190Y010522D01*
X029171Y010580D01*
X029147Y010636D01*
X029120Y010691D01*
X029091Y010745D01*
X029057Y010796D01*
X029021Y010845D01*
X029076Y010888D01*
X029076Y010889D01*
X029115Y010836D01*
X029150Y010781D01*
X029182Y010724D01*
X029211Y010665D01*
X029236Y010605D01*
X029257Y010543D01*
X029275Y010480D01*
X029288Y010416D01*
X029298Y010351D01*
X029304Y010286D01*
X029306Y010220D01*
X029304Y010155D01*
X029298Y010090D01*
X029288Y010025D01*
X029274Y009961D01*
X029257Y009898D01*
X029236Y009836D01*
X029211Y009776D01*
X029182Y009717D01*
X029150Y009660D01*
X029114Y009605D01*
X029076Y009552D01*
X029034Y009502D01*
X028989Y009455D01*
X028941Y009410D01*
X028891Y009368D01*
X028838Y009329D01*
X028784Y009293D01*
X028727Y009261D01*
X028668Y009232D01*
X028607Y009207D01*
X028546Y009186D01*
X028543Y009194D01*
X028604Y009216D01*
X028664Y009241D01*
X028722Y009269D01*
X028779Y009301D01*
X028833Y009336D01*
X028886Y009375D01*
X028935Y009416D01*
X028983Y009461D01*
X029027Y009508D01*
X029068Y009558D01*
X029107Y009610D01*
X029142Y009665D01*
X029174Y009721D01*
X029202Y009780D01*
X029227Y009840D01*
X029248Y009901D01*
X029266Y009963D01*
X029279Y010027D01*
X029289Y010091D01*
X029295Y010156D01*
X029297Y010220D01*
X029295Y010285D01*
X029289Y010350D01*
X029280Y010414D01*
X029266Y010478D01*
X029249Y010540D01*
X029228Y010601D01*
X029203Y010661D01*
X029174Y010720D01*
X029143Y010776D01*
X029108Y010831D01*
X029069Y010883D01*
X029062Y010878D01*
X029100Y010826D01*
X029135Y010772D01*
X029166Y010716D01*
X029195Y010658D01*
X029219Y010598D01*
X029240Y010537D01*
X029257Y010475D01*
X029271Y010412D01*
X029280Y010349D01*
X029286Y010285D01*
X029288Y010220D01*
X029286Y010156D01*
X029280Y010092D01*
X029270Y010029D01*
X029257Y009966D01*
X029240Y009904D01*
X029219Y009843D01*
X029194Y009783D01*
X029166Y009726D01*
X029134Y009669D01*
X029100Y009615D01*
X029061Y009564D01*
X029020Y009514D01*
X028976Y009467D01*
X028929Y009423D01*
X028880Y009382D01*
X028828Y009344D01*
X028774Y009309D01*
X028718Y009277D01*
X028661Y009249D01*
X028601Y009224D01*
X028540Y009203D01*
X028538Y009212D01*
X028598Y009232D01*
X028657Y009257D01*
X028714Y009285D01*
X028770Y009316D01*
X028823Y009351D01*
X028875Y009389D01*
X028923Y009430D01*
X028970Y009474D01*
X029014Y009520D01*
X029054Y009569D01*
X029092Y009621D01*
X029127Y009674D01*
X029158Y009730D01*
X029186Y009787D01*
X029210Y009846D01*
X029231Y009906D01*
X029248Y009968D01*
X029262Y010030D01*
X029271Y010093D01*
X029277Y010157D01*
X029279Y010220D01*
X029277Y010284D01*
X029271Y010348D01*
X029262Y010411D01*
X029249Y010473D01*
X029231Y010535D01*
X029211Y010595D01*
X029186Y010654D01*
X029159Y010711D01*
X029127Y010767D01*
X029093Y010821D01*
X029055Y010872D01*
X029048Y010866D01*
X029085Y010815D01*
X029120Y010762D01*
X029151Y010707D01*
X029178Y010650D01*
X029202Y010592D01*
X029223Y010532D01*
X029240Y010471D01*
X029253Y010409D01*
X029262Y010347D01*
X029268Y010284D01*
X029270Y010220D01*
X029268Y010157D01*
X029262Y010094D01*
X029253Y010032D01*
X029240Y009970D01*
X029223Y009909D01*
X029202Y009849D01*
X029178Y009791D01*
X029150Y009734D01*
X029119Y009679D01*
X029085Y009626D01*
X029047Y009575D01*
X029007Y009526D01*
X028964Y009480D01*
X028918Y009437D01*
X028869Y009396D01*
X028818Y009359D01*
X028765Y009324D01*
X028710Y009293D01*
X028653Y009265D01*
X028595Y009241D01*
X028535Y009220D01*
X028532Y009229D01*
X028592Y009249D01*
X028649Y009273D01*
X028706Y009301D01*
X028760Y009332D01*
X028813Y009366D01*
X028863Y009403D01*
X028912Y009443D01*
X028957Y009486D01*
X029000Y009532D01*
X029040Y009580D01*
X029077Y009631D01*
X029111Y009683D01*
X029142Y009738D01*
X029170Y009794D01*
X029193Y009852D01*
X029214Y009912D01*
X029231Y009972D01*
X029244Y010033D01*
X029253Y010095D01*
X029259Y010158D01*
X029261Y010220D01*
X029259Y010283D01*
X029254Y010346D01*
X029244Y010408D01*
X029231Y010469D01*
X029214Y010529D01*
X029194Y010589D01*
X029170Y010647D01*
X029143Y010703D01*
X029112Y010758D01*
X029078Y010810D01*
X029041Y010861D01*
X029034Y010855D01*
X029071Y010805D01*
X029104Y010753D01*
X029135Y010699D01*
X029162Y010643D01*
X029185Y010585D01*
X029206Y010527D01*
X029222Y010467D01*
X029235Y010406D01*
X029245Y010344D01*
X029250Y010283D01*
X029252Y010220D01*
X029250Y010158D01*
X029244Y010096D01*
X029235Y010035D01*
X029222Y009974D01*
X029205Y009914D01*
X029185Y009856D01*
X029161Y009798D01*
X029134Y009742D01*
X029104Y009688D01*
X029070Y009636D01*
X029033Y009586D01*
X028993Y009538D01*
X028951Y009493D01*
X028906Y009450D01*
X028858Y009410D01*
X028808Y009373D01*
X028756Y009340D01*
X028702Y009309D01*
X028646Y009282D01*
X028588Y009258D01*
X028530Y009237D01*
X028527Y009246D01*
X028585Y009266D01*
X028642Y009290D01*
X028697Y009317D01*
X028751Y009347D01*
X028803Y009381D01*
X028852Y009417D01*
X028900Y009457D01*
X028944Y009499D01*
X028987Y009544D01*
X029026Y009591D01*
X029062Y009641D01*
X029096Y009693D01*
X029126Y009746D01*
X029153Y009802D01*
X029177Y009859D01*
X029197Y009917D01*
X029213Y009976D01*
X029226Y010037D01*
X029236Y010097D01*
X029241Y010159D01*
X029243Y010220D01*
X029241Y010282D01*
X029236Y010343D01*
X029226Y010404D01*
X029214Y010465D01*
X029197Y010524D01*
X029177Y010582D01*
X029154Y010639D01*
X029127Y010695D01*
X029097Y010748D01*
X029063Y010800D01*
X029027Y010850D01*
X027377Y007216D02*
X027467Y007216D01*
X027466Y007216D02*
X027468Y007162D01*
X027474Y007109D01*
X027484Y007056D01*
X027498Y007004D01*
X027515Y006953D01*
X027536Y006904D01*
X027560Y006856D01*
X027588Y006810D01*
X027619Y006766D01*
X027653Y006724D01*
X027689Y006685D01*
X027729Y006648D01*
X027771Y006615D01*
X027815Y006584D01*
X027861Y006557D01*
X027819Y006478D01*
X027770Y006506D01*
X027724Y006538D01*
X027679Y006573D01*
X027637Y006610D01*
X027598Y006651D01*
X027561Y006694D01*
X027527Y006739D01*
X027496Y006786D01*
X027469Y006836D01*
X027445Y006887D01*
X027424Y006939D01*
X027407Y006993D01*
X027394Y007048D01*
X027384Y007103D01*
X027378Y007160D01*
X027376Y007216D01*
X027385Y007216D01*
X027387Y007160D01*
X027393Y007105D01*
X027403Y007050D01*
X027416Y006995D01*
X027433Y006942D01*
X027453Y006890D01*
X027477Y006840D01*
X027504Y006791D01*
X027534Y006744D01*
X027568Y006699D01*
X027604Y006657D01*
X027643Y006617D01*
X027685Y006580D01*
X027729Y006545D01*
X027775Y006514D01*
X027823Y006486D01*
X027827Y006494D01*
X027780Y006522D01*
X027734Y006553D01*
X027691Y006587D01*
X027649Y006623D01*
X027611Y006663D01*
X027575Y006705D01*
X027542Y006749D01*
X027512Y006795D01*
X027485Y006844D01*
X027462Y006894D01*
X027441Y006945D01*
X027425Y006998D01*
X027412Y007051D01*
X027402Y007106D01*
X027396Y007161D01*
X027394Y007216D01*
X027403Y007216D01*
X027405Y007161D01*
X027411Y007107D01*
X027420Y007053D01*
X027433Y007000D01*
X027450Y006948D01*
X027470Y006897D01*
X027493Y006848D01*
X027520Y006800D01*
X027549Y006754D01*
X027582Y006710D01*
X027617Y006669D01*
X027656Y006630D01*
X027696Y006593D01*
X027739Y006560D01*
X027785Y006529D01*
X027832Y006502D01*
X027836Y006510D01*
X027789Y006537D01*
X027745Y006567D01*
X027702Y006600D01*
X027662Y006636D01*
X027624Y006675D01*
X027589Y006716D01*
X027557Y006759D01*
X027527Y006805D01*
X027501Y006852D01*
X027478Y006901D01*
X027458Y006951D01*
X027442Y007003D01*
X027429Y007055D01*
X027420Y007108D01*
X027414Y007162D01*
X027412Y007216D01*
X027421Y007216D01*
X027423Y007163D01*
X027429Y007109D01*
X027438Y007057D01*
X027451Y007005D01*
X027467Y006954D01*
X027486Y006904D01*
X027509Y006856D01*
X027535Y006809D01*
X027564Y006765D01*
X027596Y006722D01*
X027631Y006681D01*
X027668Y006643D01*
X027708Y006607D01*
X027750Y006574D01*
X027794Y006544D01*
X027840Y006517D01*
X027844Y006525D01*
X027799Y006552D01*
X027755Y006582D01*
X027714Y006614D01*
X027674Y006649D01*
X027637Y006687D01*
X027603Y006727D01*
X027571Y006770D01*
X027543Y006814D01*
X027517Y006860D01*
X027495Y006908D01*
X027475Y006957D01*
X027459Y007007D01*
X027447Y007059D01*
X027438Y007111D01*
X027432Y007163D01*
X027430Y007216D01*
X027439Y007216D01*
X027441Y007160D01*
X027448Y007105D01*
X027458Y007050D01*
X027472Y006996D01*
X027490Y006944D01*
X027511Y006892D01*
X027537Y006843D01*
X027565Y006795D01*
X027597Y006749D01*
X027632Y006706D01*
X027670Y006666D01*
X027711Y006628D01*
X027755Y006593D01*
X027801Y006562D01*
X027849Y006533D01*
X027853Y006541D01*
X027805Y006569D01*
X027760Y006600D01*
X027717Y006635D01*
X027677Y006672D01*
X027639Y006712D01*
X027604Y006755D01*
X027573Y006800D01*
X027544Y006847D01*
X027520Y006896D01*
X027498Y006947D01*
X027481Y006999D01*
X027467Y007052D01*
X027457Y007106D01*
X027450Y007161D01*
X027448Y007216D01*
X027457Y007216D01*
X027459Y007162D01*
X027465Y007108D01*
X027475Y007054D01*
X027489Y007002D01*
X027507Y006950D01*
X027528Y006900D01*
X027552Y006851D01*
X027580Y006805D01*
X027612Y006760D01*
X027646Y006718D01*
X027683Y006679D01*
X027723Y006642D01*
X027765Y006608D01*
X027810Y006577D01*
X027857Y006549D01*
X028644Y006490D02*
X028599Y006568D01*
X028600Y006568D02*
X028644Y006596D01*
X028686Y006627D01*
X028726Y006660D01*
X028764Y006696D01*
X028799Y006735D01*
X028831Y006776D01*
X028861Y006820D01*
X028887Y006865D01*
X028910Y006912D01*
X028930Y006960D01*
X028946Y007010D01*
X028959Y007060D01*
X028968Y007112D01*
X028974Y007164D01*
X028976Y007216D01*
X029065Y007217D01*
X029066Y007216D01*
X029064Y007161D01*
X029058Y007107D01*
X029049Y007052D01*
X029036Y006999D01*
X029020Y006947D01*
X029001Y006895D01*
X028978Y006845D01*
X028952Y006797D01*
X028923Y006750D01*
X028891Y006706D01*
X028856Y006663D01*
X028818Y006623D01*
X028778Y006586D01*
X028736Y006551D01*
X028691Y006519D01*
X028645Y006490D01*
X028640Y006498D01*
X028686Y006526D01*
X028730Y006558D01*
X028772Y006593D01*
X028812Y006630D01*
X028849Y006669D01*
X028884Y006711D01*
X028915Y006755D01*
X028944Y006801D01*
X028970Y006849D01*
X028992Y006899D01*
X029012Y006949D01*
X029028Y007001D01*
X029040Y007054D01*
X029049Y007108D01*
X029055Y007162D01*
X029057Y007216D01*
X029048Y007216D01*
X029046Y007162D01*
X029040Y007109D01*
X029031Y007056D01*
X029019Y007004D01*
X029003Y006952D01*
X028984Y006902D01*
X028962Y006853D01*
X028936Y006806D01*
X028908Y006760D01*
X028876Y006717D01*
X028842Y006675D01*
X028806Y006636D01*
X028766Y006599D01*
X028725Y006565D01*
X028681Y006534D01*
X028636Y006505D01*
X028631Y006513D01*
X028679Y006543D01*
X028725Y006577D01*
X028768Y006613D01*
X028809Y006653D01*
X028847Y006695D01*
X028882Y006739D01*
X028914Y006786D01*
X028942Y006835D01*
X028967Y006886D01*
X028989Y006939D01*
X029006Y006992D01*
X029020Y007047D01*
X029030Y007103D01*
X029037Y007159D01*
X029039Y007216D01*
X029030Y007216D01*
X029028Y007160D01*
X029022Y007104D01*
X029012Y007049D01*
X028998Y006995D01*
X028980Y006942D01*
X028959Y006890D01*
X028934Y006839D01*
X028906Y006791D01*
X028875Y006745D01*
X028840Y006700D01*
X028803Y006659D01*
X028762Y006620D01*
X028720Y006584D01*
X028674Y006551D01*
X028627Y006521D01*
X028622Y006529D01*
X028669Y006558D01*
X028714Y006591D01*
X028756Y006627D01*
X028796Y006665D01*
X028833Y006706D01*
X028868Y006750D01*
X028899Y006796D01*
X028926Y006844D01*
X028951Y006893D01*
X028972Y006945D01*
X028989Y006997D01*
X029003Y007051D01*
X029013Y007106D01*
X029019Y007161D01*
X029021Y007216D01*
X029012Y007216D01*
X029010Y007161D01*
X029004Y007107D01*
X028994Y007053D01*
X028980Y007000D01*
X028963Y006948D01*
X028943Y006897D01*
X028918Y006848D01*
X028891Y006801D01*
X028860Y006755D01*
X028827Y006712D01*
X028790Y006671D01*
X028750Y006633D01*
X028708Y006598D01*
X028664Y006566D01*
X028618Y006537D01*
X028613Y006545D01*
X028659Y006573D01*
X028703Y006605D01*
X028744Y006640D01*
X028783Y006678D01*
X028820Y006718D01*
X028853Y006760D01*
X028883Y006805D01*
X028911Y006852D01*
X028934Y006901D01*
X028955Y006951D01*
X028972Y007002D01*
X028985Y007055D01*
X028995Y007108D01*
X029001Y007162D01*
X029003Y007216D01*
X028994Y007216D01*
X028992Y007163D01*
X028986Y007109D01*
X028976Y007057D01*
X028963Y007005D01*
X028946Y006954D01*
X028926Y006904D01*
X028903Y006856D01*
X028876Y006810D01*
X028846Y006766D01*
X028813Y006724D01*
X028777Y006684D01*
X028738Y006647D01*
X028697Y006612D01*
X028654Y006581D01*
X028609Y006552D01*
X028604Y006560D01*
X028649Y006588D01*
X028692Y006619D01*
X028732Y006653D01*
X028770Y006690D01*
X028806Y006729D01*
X028838Y006771D01*
X028868Y006815D01*
X028895Y006861D01*
X028918Y006908D01*
X028938Y006957D01*
X028955Y007007D01*
X028968Y007059D01*
X028977Y007111D01*
X028983Y007163D01*
X028985Y007216D01*
X029065Y007225D02*
X028975Y007225D01*
X028976Y007226D02*
X028974Y007280D01*
X028968Y007333D01*
X028958Y007386D01*
X028944Y007438D01*
X028927Y007489D01*
X028906Y007539D01*
X028882Y007587D01*
X028854Y007633D01*
X028823Y007677D01*
X028789Y007718D01*
X028752Y007758D01*
X028713Y007794D01*
X028770Y007862D01*
X028771Y007863D01*
X028812Y007825D01*
X028850Y007785D01*
X028886Y007742D01*
X028919Y007697D01*
X028949Y007650D01*
X028975Y007602D01*
X028999Y007551D01*
X029019Y007499D01*
X029035Y007446D01*
X029049Y007392D01*
X029058Y007337D01*
X029064Y007282D01*
X029066Y007226D01*
X029057Y007226D01*
X029055Y007281D01*
X029049Y007336D01*
X029040Y007390D01*
X029027Y007444D01*
X029010Y007496D01*
X028991Y007548D01*
X028967Y007598D01*
X028941Y007646D01*
X028911Y007692D01*
X028879Y007737D01*
X028844Y007779D01*
X028805Y007819D01*
X028765Y007856D01*
X028759Y007849D01*
X028799Y007812D01*
X028837Y007773D01*
X028872Y007731D01*
X028904Y007687D01*
X028933Y007641D01*
X028959Y007593D01*
X028982Y007544D01*
X029002Y007493D01*
X029018Y007441D01*
X029031Y007388D01*
X029040Y007335D01*
X029046Y007280D01*
X029048Y007226D01*
X029039Y007226D01*
X029037Y007280D01*
X029031Y007333D01*
X029022Y007386D01*
X029009Y007439D01*
X028993Y007490D01*
X028974Y007541D01*
X028951Y007589D01*
X028926Y007637D01*
X028897Y007682D01*
X028865Y007726D01*
X028830Y007767D01*
X028793Y007806D01*
X028753Y007842D01*
X028747Y007835D01*
X028787Y007799D01*
X028824Y007761D01*
X028858Y007720D01*
X028889Y007677D01*
X028918Y007632D01*
X028943Y007585D01*
X028966Y007537D01*
X028985Y007487D01*
X029001Y007436D01*
X029013Y007385D01*
X029022Y007332D01*
X029028Y007279D01*
X029030Y007226D01*
X029021Y007226D01*
X029019Y007279D01*
X029013Y007331D01*
X029004Y007383D01*
X028992Y007434D01*
X028976Y007484D01*
X028957Y007534D01*
X028935Y007581D01*
X028910Y007628D01*
X028882Y007672D01*
X028851Y007714D01*
X028817Y007755D01*
X028780Y007793D01*
X028742Y007828D01*
X028736Y007822D01*
X028774Y007786D01*
X028810Y007749D01*
X028844Y007709D01*
X028874Y007667D01*
X028902Y007623D01*
X028927Y007577D01*
X028949Y007530D01*
X028968Y007481D01*
X028983Y007432D01*
X028996Y007381D01*
X029004Y007330D01*
X029010Y007278D01*
X029012Y007226D01*
X029003Y007226D01*
X029001Y007282D01*
X028994Y007337D01*
X028984Y007392D01*
X028970Y007446D01*
X028952Y007499D01*
X028930Y007550D01*
X028905Y007600D01*
X028876Y007648D01*
X028844Y007693D01*
X028809Y007736D01*
X028771Y007777D01*
X028730Y007815D01*
X028724Y007808D01*
X028765Y007771D01*
X028802Y007730D01*
X028837Y007688D01*
X028869Y007643D01*
X028897Y007595D01*
X028922Y007546D01*
X028944Y007495D01*
X028961Y007443D01*
X028975Y007390D01*
X028985Y007336D01*
X028992Y007281D01*
X028994Y007226D01*
X028985Y007226D01*
X028983Y007280D01*
X028977Y007335D01*
X028967Y007388D01*
X028953Y007441D01*
X028935Y007492D01*
X028914Y007542D01*
X028889Y007591D01*
X028861Y007638D01*
X028830Y007682D01*
X028796Y007724D01*
X028758Y007764D01*
X028718Y007801D01*
X027677Y007866D02*
X027734Y007797D01*
X027734Y007798D02*
X027694Y007761D01*
X027656Y007722D01*
X027622Y007680D01*
X027590Y007636D01*
X027562Y007590D01*
X027537Y007541D01*
X027516Y007491D01*
X027498Y007440D01*
X027485Y007387D01*
X027475Y007334D01*
X027468Y007280D01*
X027466Y007226D01*
X027377Y007225D01*
X027376Y007226D01*
X027378Y007282D01*
X027384Y007338D01*
X027394Y007393D01*
X027407Y007448D01*
X027424Y007501D01*
X027444Y007554D01*
X027468Y007605D01*
X027495Y007654D01*
X027526Y007701D01*
X027559Y007746D01*
X027595Y007789D01*
X027634Y007829D01*
X027676Y007867D01*
X027682Y007860D01*
X027641Y007823D01*
X027602Y007783D01*
X027566Y007741D01*
X027533Y007696D01*
X027503Y007649D01*
X027476Y007601D01*
X027453Y007550D01*
X027432Y007498D01*
X027416Y007445D01*
X027403Y007391D01*
X027393Y007337D01*
X027387Y007282D01*
X027385Y007226D01*
X027394Y007226D01*
X027396Y007281D01*
X027402Y007336D01*
X027411Y007390D01*
X027424Y007443D01*
X027441Y007495D01*
X027461Y007547D01*
X027484Y007596D01*
X027511Y007645D01*
X027540Y007691D01*
X027573Y007735D01*
X027609Y007777D01*
X027647Y007816D01*
X027688Y007853D01*
X027693Y007846D01*
X027653Y007810D01*
X027615Y007771D01*
X027580Y007729D01*
X027548Y007686D01*
X027518Y007640D01*
X027492Y007592D01*
X027469Y007543D01*
X027449Y007493D01*
X027433Y007441D01*
X027420Y007388D01*
X027411Y007334D01*
X027405Y007280D01*
X027403Y007226D01*
X027412Y007226D01*
X027414Y007280D01*
X027420Y007333D01*
X027429Y007386D01*
X027442Y007438D01*
X027458Y007490D01*
X027477Y007540D01*
X027500Y007588D01*
X027526Y007635D01*
X027555Y007681D01*
X027587Y007724D01*
X027622Y007765D01*
X027659Y007803D01*
X027699Y007839D01*
X027705Y007832D01*
X027666Y007797D01*
X027629Y007759D01*
X027594Y007718D01*
X027563Y007675D01*
X027534Y007631D01*
X027508Y007584D01*
X027486Y007536D01*
X027466Y007487D01*
X027450Y007436D01*
X027438Y007384D01*
X027429Y007332D01*
X027423Y007279D01*
X027421Y007226D01*
X027430Y007226D01*
X027432Y007278D01*
X027438Y007331D01*
X027447Y007382D01*
X027459Y007433D01*
X027475Y007484D01*
X027494Y007533D01*
X027516Y007580D01*
X027542Y007626D01*
X027570Y007670D01*
X027601Y007712D01*
X027635Y007753D01*
X027672Y007790D01*
X027711Y007825D01*
X027717Y007819D01*
X027678Y007784D01*
X027642Y007746D01*
X027608Y007707D01*
X027577Y007665D01*
X027549Y007621D01*
X027524Y007576D01*
X027502Y007529D01*
X027483Y007481D01*
X027468Y007431D01*
X027455Y007381D01*
X027447Y007330D01*
X027441Y007278D01*
X027439Y007226D01*
X027448Y007226D01*
X027450Y007277D01*
X027455Y007328D01*
X027464Y007379D01*
X027476Y007429D01*
X027492Y007478D01*
X027510Y007525D01*
X027532Y007572D01*
X027557Y007617D01*
X027585Y007660D01*
X027615Y007701D01*
X027648Y007740D01*
X027684Y007777D01*
X027722Y007812D01*
X027728Y007805D01*
X027687Y007768D01*
X027649Y007728D01*
X027615Y007686D01*
X027583Y007641D01*
X027554Y007594D01*
X027529Y007545D01*
X027508Y007494D01*
X027490Y007443D01*
X027476Y007389D01*
X027466Y007335D01*
X027459Y007281D01*
X027457Y007226D01*
M02*
