G75*
G70*
%OFA0B0*%
%FSLAX24Y24*%
%IPPOS*%
%LPD*%
%AMOC8*
5,1,8,0,0,1.08239X$1,22.5*
%
%ADD10C,0.0000*%
%ADD11C,0.0040*%
%ADD12R,0.1500X0.7500*%
D10*
X005721Y015221D02*
X025721Y015221D01*
X025765Y015219D01*
X025808Y015213D01*
X025850Y015204D01*
X025892Y015191D01*
X025932Y015174D01*
X025971Y015154D01*
X026008Y015131D01*
X026042Y015104D01*
X026075Y015075D01*
X026104Y015042D01*
X026131Y015008D01*
X026154Y014971D01*
X026174Y014932D01*
X026191Y014892D01*
X026204Y014850D01*
X026213Y014808D01*
X026219Y014765D01*
X026221Y014721D01*
X026221Y005721D01*
X026223Y005677D01*
X026229Y005634D01*
X026238Y005592D01*
X026251Y005550D01*
X026268Y005510D01*
X026288Y005471D01*
X026311Y005434D01*
X026338Y005400D01*
X026367Y005367D01*
X026400Y005338D01*
X026434Y005311D01*
X026471Y005288D01*
X026510Y005268D01*
X026550Y005251D01*
X026592Y005238D01*
X026634Y005229D01*
X026677Y005223D01*
X026721Y005221D01*
X042471Y005221D01*
X042554Y005223D01*
X042637Y005229D01*
X042720Y005239D01*
X042802Y005253D01*
X042884Y005270D01*
X042964Y005292D01*
X043043Y005317D01*
X043121Y005346D01*
X043198Y005379D01*
X043273Y005416D01*
X043346Y005455D01*
X043417Y005499D01*
X043486Y005545D01*
X043553Y005595D01*
X043617Y005648D01*
X043679Y005704D01*
X043738Y005763D01*
X043794Y005825D01*
X043847Y005889D01*
X043897Y005956D01*
X043943Y006025D01*
X043987Y006096D01*
X044026Y006169D01*
X044063Y006244D01*
X044096Y006321D01*
X044125Y006399D01*
X044150Y006478D01*
X044172Y006558D01*
X044189Y006640D01*
X044203Y006722D01*
X044213Y006805D01*
X044219Y006888D01*
X044221Y006971D01*
X044221Y034471D01*
X044219Y034554D01*
X044213Y034637D01*
X044203Y034720D01*
X044189Y034802D01*
X044172Y034884D01*
X044150Y034964D01*
X044125Y035043D01*
X044096Y035121D01*
X044063Y035198D01*
X044026Y035273D01*
X043987Y035346D01*
X043943Y035417D01*
X043897Y035486D01*
X043847Y035553D01*
X043794Y035617D01*
X043738Y035679D01*
X043679Y035738D01*
X043617Y035794D01*
X043553Y035847D01*
X043486Y035897D01*
X043417Y035943D01*
X043346Y035987D01*
X043273Y036026D01*
X043198Y036063D01*
X043121Y036096D01*
X043043Y036125D01*
X042964Y036150D01*
X042884Y036172D01*
X042802Y036189D01*
X042720Y036203D01*
X042637Y036213D01*
X042554Y036219D01*
X042471Y036221D01*
X006971Y036221D01*
X006888Y036219D01*
X006805Y036213D01*
X006722Y036203D01*
X006640Y036189D01*
X006558Y036172D01*
X006478Y036150D01*
X006399Y036125D01*
X006321Y036096D01*
X006244Y036063D01*
X006169Y036026D01*
X006096Y035987D01*
X006025Y035943D01*
X005956Y035897D01*
X005889Y035847D01*
X005825Y035794D01*
X005763Y035738D01*
X005704Y035679D01*
X005648Y035617D01*
X005595Y035553D01*
X005545Y035486D01*
X005499Y035417D01*
X005455Y035346D01*
X005416Y035273D01*
X005379Y035198D01*
X005346Y035121D01*
X005317Y035043D01*
X005292Y034964D01*
X005270Y034884D01*
X005253Y034802D01*
X005239Y034720D01*
X005229Y034637D01*
X005223Y034554D01*
X005221Y034471D01*
X005221Y015721D01*
X005223Y015677D01*
X005229Y015634D01*
X005238Y015592D01*
X005251Y015550D01*
X005268Y015510D01*
X005288Y015471D01*
X005311Y015434D01*
X005338Y015400D01*
X005367Y015367D01*
X005400Y015338D01*
X005434Y015311D01*
X005471Y015288D01*
X005510Y015268D01*
X005550Y015251D01*
X005592Y015238D01*
X005634Y015229D01*
X005677Y015223D01*
X005721Y015221D01*
X007130Y020207D02*
X007132Y020238D01*
X007138Y020269D01*
X007147Y020299D01*
X007160Y020328D01*
X007177Y020355D01*
X007197Y020379D01*
X007219Y020401D01*
X007245Y020420D01*
X007272Y020436D01*
X007301Y020448D01*
X007331Y020457D01*
X007362Y020462D01*
X007394Y020463D01*
X007425Y020460D01*
X007456Y020453D01*
X007486Y020443D01*
X007514Y020429D01*
X007540Y020411D01*
X007564Y020391D01*
X007585Y020367D01*
X007604Y020342D01*
X007619Y020314D01*
X007630Y020285D01*
X007638Y020254D01*
X007642Y020223D01*
X007642Y020191D01*
X007638Y020160D01*
X007630Y020129D01*
X007619Y020100D01*
X007604Y020072D01*
X007585Y020047D01*
X007564Y020023D01*
X007540Y020003D01*
X007514Y019985D01*
X007486Y019971D01*
X007456Y019961D01*
X007425Y019954D01*
X007394Y019951D01*
X007362Y019952D01*
X007331Y019957D01*
X007301Y019966D01*
X007272Y019978D01*
X007245Y019994D01*
X007219Y020013D01*
X007197Y020035D01*
X007177Y020059D01*
X007160Y020086D01*
X007147Y020115D01*
X007138Y020145D01*
X007132Y020176D01*
X007130Y020207D01*
X007032Y029735D02*
X007034Y029772D01*
X007040Y029809D01*
X007049Y029844D01*
X007063Y029879D01*
X007079Y029912D01*
X007100Y029943D01*
X007123Y029972D01*
X007149Y029998D01*
X007178Y030021D01*
X007209Y030042D01*
X007242Y030058D01*
X007277Y030072D01*
X007312Y030081D01*
X007349Y030087D01*
X007386Y030089D01*
X007423Y030087D01*
X007460Y030081D01*
X007495Y030072D01*
X007530Y030058D01*
X007563Y030042D01*
X007594Y030021D01*
X007623Y029998D01*
X007649Y029972D01*
X007672Y029943D01*
X007693Y029912D01*
X007709Y029879D01*
X007723Y029844D01*
X007732Y029809D01*
X007738Y029772D01*
X007740Y029735D01*
X007738Y029698D01*
X007732Y029661D01*
X007723Y029626D01*
X007709Y029591D01*
X007693Y029558D01*
X007672Y029527D01*
X007649Y029498D01*
X007623Y029472D01*
X007594Y029449D01*
X007563Y029428D01*
X007530Y029412D01*
X007495Y029398D01*
X007460Y029389D01*
X007423Y029383D01*
X007386Y029381D01*
X007349Y029383D01*
X007312Y029389D01*
X007277Y029398D01*
X007242Y029412D01*
X007209Y029428D01*
X007178Y029449D01*
X007149Y029472D01*
X007123Y029498D01*
X007100Y029527D01*
X007079Y029558D01*
X007063Y029591D01*
X007049Y029626D01*
X007040Y029661D01*
X007034Y029698D01*
X007032Y029735D01*
D11*
X008241Y028006D02*
X008328Y028006D01*
X008674Y028353D01*
X008761Y028353D01*
X008761Y028006D01*
X008761Y027838D02*
X008761Y027491D01*
X008501Y027491D01*
X008588Y027664D01*
X008588Y027751D01*
X008501Y027838D01*
X008328Y027838D01*
X008241Y027751D01*
X008241Y027578D01*
X008328Y027491D01*
X008328Y027320D02*
X008241Y027320D01*
X008241Y027233D01*
X008328Y027233D01*
X008328Y027320D01*
X008501Y027320D02*
X008501Y027233D01*
X008588Y027233D01*
X008588Y027320D01*
X008501Y027320D01*
X008414Y027064D02*
X008328Y027064D01*
X008241Y026978D01*
X008241Y026804D01*
X008328Y026717D01*
X008328Y026549D02*
X008241Y026462D01*
X008241Y026289D01*
X008328Y026202D01*
X008674Y026549D01*
X008328Y026549D01*
X008674Y026549D02*
X008761Y026462D01*
X008761Y026289D01*
X008674Y026202D01*
X008328Y026202D01*
X008328Y026031D02*
X008241Y026031D01*
X008241Y025944D01*
X008328Y025944D01*
X008328Y026031D01*
X008501Y026031D02*
X008501Y025944D01*
X008588Y025944D01*
X008588Y026031D01*
X008501Y026031D01*
X008241Y025775D02*
X008241Y025428D01*
X008241Y025260D02*
X008241Y024913D01*
X008588Y025260D01*
X008674Y025260D01*
X008761Y025173D01*
X008761Y024999D01*
X008674Y024913D01*
X008588Y025428D02*
X008761Y025602D01*
X008241Y025602D01*
X008674Y026717D02*
X008761Y026804D01*
X008761Y026978D01*
X008674Y027064D01*
X008588Y027064D01*
X008501Y026978D01*
X008414Y027064D01*
X008501Y026978D02*
X008501Y026891D01*
X009741Y025947D02*
X009741Y025687D01*
X009828Y025600D01*
X010001Y025600D01*
X010088Y025687D01*
X010088Y025947D01*
X010261Y025947D02*
X009741Y025947D01*
X009741Y025430D02*
X009741Y025256D01*
X009741Y025343D02*
X010261Y025343D01*
X010261Y025256D01*
X010088Y025001D02*
X010001Y025088D01*
X009914Y025088D01*
X009914Y024741D01*
X009828Y024741D02*
X010001Y024741D01*
X010088Y024828D01*
X010088Y025001D01*
X009741Y025001D02*
X009741Y024828D01*
X009828Y024741D01*
X009741Y024571D02*
X009741Y024397D01*
X009741Y024484D02*
X010088Y024484D01*
X010088Y024397D01*
X010001Y024228D02*
X009741Y024228D01*
X010001Y024228D02*
X010088Y024142D01*
X010088Y023968D01*
X010001Y023881D01*
X010088Y023713D02*
X010088Y023453D01*
X010001Y023366D01*
X009914Y023453D01*
X009914Y023626D01*
X009828Y023713D01*
X009741Y023626D01*
X009741Y023366D01*
X009654Y023197D02*
X009654Y022850D01*
X009914Y022681D02*
X010261Y022681D01*
X010261Y022335D02*
X009914Y022335D01*
X009741Y022508D01*
X009914Y022681D01*
X009741Y022166D02*
X010261Y021819D01*
X010261Y021650D02*
X009741Y021650D01*
X010261Y021303D01*
X009741Y021303D01*
X009741Y021135D02*
X009914Y020961D01*
X009914Y021048D02*
X009914Y020788D01*
X009741Y020788D02*
X010261Y020788D01*
X010261Y021048D01*
X010174Y021135D01*
X010001Y021135D01*
X009914Y021048D01*
X009741Y021819D02*
X010261Y022166D01*
X011741Y022233D02*
X012048Y022233D01*
X012048Y022463D01*
X011971Y022540D01*
X011741Y022540D01*
X011741Y022693D02*
X011741Y022847D01*
X011741Y022770D02*
X012048Y022770D01*
X012048Y022693D01*
X012201Y022770D02*
X012278Y022770D01*
X012048Y023000D02*
X011817Y023000D01*
X011741Y023077D01*
X011741Y023307D01*
X012048Y023307D01*
X012048Y023461D02*
X012048Y023537D01*
X011971Y023614D01*
X012048Y023691D01*
X011971Y023768D01*
X011741Y023768D01*
X011741Y023614D02*
X011971Y023614D01*
X012048Y023461D02*
X011741Y023461D01*
X012587Y023844D02*
X012587Y023921D01*
X012664Y023998D01*
X013048Y023998D01*
X013048Y023768D01*
X012971Y023691D01*
X012817Y023691D01*
X012741Y023768D01*
X012741Y023998D01*
X012817Y024151D02*
X012894Y024228D01*
X012894Y024458D01*
X012971Y024458D02*
X012741Y024458D01*
X012741Y024228D01*
X012817Y024151D01*
X013048Y024228D02*
X013048Y024381D01*
X012971Y024458D01*
X013048Y024612D02*
X013201Y024765D01*
X013124Y024918D02*
X013201Y024995D01*
X013201Y025149D01*
X013124Y025225D01*
X013048Y025225D01*
X012741Y024918D01*
X012741Y025225D01*
X012817Y025379D02*
X012741Y025456D01*
X012741Y025609D01*
X012817Y025686D01*
X012971Y025686D01*
X013048Y025609D01*
X013048Y025532D01*
X012971Y025379D01*
X013201Y025379D01*
X013201Y025686D01*
X012971Y025839D02*
X012971Y026069D01*
X012894Y026146D01*
X012817Y026146D01*
X012741Y026069D01*
X012741Y025916D01*
X012817Y025839D01*
X012971Y025839D01*
X013124Y025993D01*
X013201Y026146D01*
X013124Y026300D02*
X012817Y026300D01*
X013124Y026606D01*
X012817Y026606D01*
X012741Y026530D01*
X012741Y026376D01*
X012817Y026300D01*
X013124Y026300D02*
X013201Y026376D01*
X013201Y026530D01*
X013124Y026606D01*
X013201Y026760D02*
X013048Y026913D01*
X012894Y026913D01*
X012741Y026760D01*
X013741Y026683D02*
X013741Y026530D01*
X013817Y026453D01*
X013971Y026453D01*
X014048Y026530D01*
X014048Y026683D01*
X013971Y026760D01*
X013894Y026760D01*
X013894Y026453D01*
X013817Y026300D02*
X013741Y026223D01*
X013741Y025993D01*
X013587Y025993D02*
X014048Y025993D01*
X014048Y026223D01*
X013971Y026300D01*
X013817Y026300D01*
X013741Y026913D02*
X014048Y026913D01*
X014048Y027067D02*
X014048Y027144D01*
X014048Y027067D02*
X013894Y026913D01*
X013817Y027297D02*
X013894Y027374D01*
X013894Y027604D01*
X013971Y027604D02*
X013741Y027604D01*
X013741Y027374D01*
X013817Y027297D01*
X014048Y027374D02*
X014048Y027527D01*
X013971Y027604D01*
X014048Y027757D02*
X014048Y027911D01*
X014124Y027834D02*
X013817Y027834D01*
X013741Y027911D01*
X013741Y028064D02*
X013741Y028218D01*
X013741Y028141D02*
X014048Y028141D01*
X014048Y028064D01*
X014201Y028141D02*
X014278Y028141D01*
X014048Y028448D02*
X013971Y028371D01*
X013817Y028371D01*
X013741Y028448D01*
X013741Y028601D01*
X013817Y028678D01*
X013971Y028678D01*
X014048Y028601D01*
X014048Y028448D01*
X014048Y028831D02*
X014048Y029062D01*
X013971Y029138D01*
X013741Y029138D01*
X013741Y028831D02*
X014048Y028831D01*
X015241Y028525D02*
X015241Y028265D01*
X015328Y028178D01*
X015501Y028178D01*
X015588Y028265D01*
X015588Y028525D01*
X015761Y028525D02*
X015241Y028525D01*
X015241Y028008D02*
X015241Y027835D01*
X015241Y027921D02*
X015761Y027921D01*
X015761Y027835D01*
X015588Y027579D02*
X015588Y027406D01*
X015501Y027319D01*
X015328Y027319D01*
X015241Y027406D01*
X015241Y027579D01*
X015414Y027666D02*
X015414Y027319D01*
X015241Y027149D02*
X015241Y026975D01*
X015241Y027062D02*
X015588Y027062D01*
X015588Y026975D01*
X015501Y026807D02*
X015241Y026807D01*
X015501Y026807D02*
X015588Y026720D01*
X015588Y026546D01*
X015501Y026460D01*
X015588Y026291D02*
X015588Y026031D01*
X015501Y025944D01*
X015414Y026031D01*
X015414Y026204D01*
X015328Y026291D01*
X015241Y026204D01*
X015241Y025944D01*
X015241Y026460D02*
X015761Y026460D01*
X015761Y027062D02*
X015848Y027062D01*
X015588Y027579D02*
X015501Y027666D01*
X015414Y027666D01*
X015588Y029210D02*
X015241Y029383D01*
X015588Y029557D01*
X015588Y029725D02*
X015761Y029899D01*
X015241Y029899D01*
X015241Y030072D02*
X015241Y029725D01*
X015241Y030241D02*
X015241Y030328D01*
X015328Y030328D01*
X015328Y030241D01*
X015241Y030241D01*
X015328Y030499D02*
X015674Y030846D01*
X015328Y030846D01*
X015241Y030759D01*
X015241Y030585D01*
X015328Y030499D01*
X015674Y030499D01*
X015761Y030585D01*
X015761Y030759D01*
X015674Y030846D01*
X013971Y025839D02*
X014048Y025762D01*
X014048Y025609D01*
X013971Y025532D01*
X013817Y025532D01*
X013741Y025609D01*
X013741Y025762D01*
X013817Y025839D01*
X013971Y025839D01*
X013894Y024918D02*
X014201Y024918D01*
X014201Y024612D02*
X013894Y024612D01*
X013741Y024765D01*
X013894Y024918D01*
X013817Y024458D02*
X013741Y024381D01*
X013741Y024228D01*
X013817Y024151D01*
X013971Y024151D02*
X014048Y024305D01*
X014048Y024381D01*
X013971Y024458D01*
X013817Y024458D01*
X013971Y024151D02*
X014201Y024151D01*
X014201Y024458D01*
X014048Y023537D02*
X014048Y023461D01*
X013894Y023307D01*
X013741Y023307D02*
X014048Y023307D01*
X013971Y023154D02*
X014048Y023077D01*
X014048Y022924D01*
X013971Y022847D01*
X013817Y022847D01*
X013741Y022924D01*
X013741Y023077D01*
X013817Y023154D01*
X013971Y023154D01*
X013201Y023077D02*
X012741Y023077D01*
X012817Y023231D02*
X012971Y023231D01*
X013048Y023307D01*
X013048Y023461D01*
X012971Y023537D01*
X012894Y023537D01*
X012894Y023231D01*
X012817Y023231D02*
X012741Y023307D01*
X012741Y023461D01*
X013201Y023077D02*
X013048Y022924D01*
X013201Y022770D01*
X012741Y022770D01*
X012741Y022156D02*
X012587Y022003D01*
X012741Y022080D02*
X012741Y022156D01*
X012817Y022156D01*
X012817Y022080D01*
X012741Y022080D01*
X012817Y021849D02*
X012971Y021849D01*
X013048Y021773D01*
X013048Y021619D01*
X012971Y021543D01*
X012817Y021543D01*
X012741Y021619D01*
X012741Y021773D01*
X012817Y021849D01*
X012201Y021543D02*
X011741Y021543D01*
X011741Y021619D02*
X011741Y021466D01*
X011741Y021312D02*
X011741Y021082D01*
X011817Y021005D01*
X011894Y021082D01*
X011894Y021312D01*
X011971Y021312D02*
X011741Y021312D01*
X011971Y021312D02*
X012048Y021236D01*
X012048Y021082D01*
X012124Y020852D02*
X012201Y020775D01*
X012201Y020622D01*
X012124Y020545D01*
X011817Y020545D01*
X011741Y020622D01*
X011741Y020775D01*
X011817Y020852D01*
X012201Y021466D02*
X012201Y021543D01*
X012048Y021773D02*
X011817Y021773D01*
X011741Y021849D01*
X011741Y022080D01*
X012048Y022080D01*
X012741Y021389D02*
X012971Y021389D01*
X013048Y021312D01*
X013048Y021082D01*
X012741Y021082D01*
X012817Y020929D02*
X013201Y020929D01*
X013201Y020622D02*
X012817Y020622D01*
X012741Y020699D01*
X012741Y020852D01*
X012817Y020929D01*
X012741Y020008D02*
X012971Y020008D01*
X013048Y019931D01*
X013048Y019701D01*
X012741Y019701D01*
X012817Y019548D02*
X012971Y019548D01*
X013048Y019471D01*
X013048Y019317D01*
X012971Y019241D01*
X012817Y019241D01*
X012741Y019317D01*
X012741Y019471D01*
X012817Y019548D01*
X012048Y019471D02*
X012048Y019317D01*
X011971Y019241D01*
X011817Y019241D01*
X011741Y019317D01*
X011741Y019471D01*
X011817Y019548D01*
X011971Y019548D01*
X012048Y019471D01*
X012048Y019701D02*
X011741Y019701D01*
X011894Y019701D02*
X012048Y019855D01*
X012048Y019931D01*
X010261Y020017D02*
X010261Y019756D01*
X009741Y019756D01*
X009741Y020017D01*
X009828Y020103D01*
X010174Y020103D01*
X010261Y020017D01*
X010174Y019588D02*
X010261Y019501D01*
X010261Y019328D01*
X010174Y019241D01*
X010088Y019241D01*
X010001Y019328D01*
X010001Y019501D01*
X009914Y019588D01*
X009828Y019588D01*
X009741Y019501D01*
X009741Y019328D01*
X009828Y019241D01*
X008761Y019328D02*
X008674Y019241D01*
X008761Y019328D02*
X008761Y019501D01*
X008674Y019588D01*
X008588Y019588D01*
X008241Y019241D01*
X008241Y019588D01*
X008328Y019756D02*
X008674Y020103D01*
X008328Y020103D01*
X008241Y020017D01*
X008241Y019843D01*
X008328Y019756D01*
X008674Y019756D01*
X008761Y019843D01*
X008761Y020017D01*
X008674Y020103D01*
X008588Y020272D02*
X008761Y020446D01*
X008241Y020446D01*
X008241Y020619D02*
X008241Y020272D01*
X008241Y020788D02*
X008241Y021135D01*
X008241Y020961D02*
X008761Y020961D01*
X008588Y020788D01*
X008501Y021303D02*
X008501Y021650D01*
X008588Y021819D02*
X008761Y021992D01*
X008241Y021992D01*
X008241Y021819D02*
X008241Y022166D01*
X008241Y022335D02*
X008241Y022681D01*
X008241Y022508D02*
X008761Y022508D01*
X008588Y022335D01*
X008501Y022850D02*
X008501Y023197D01*
X008328Y023366D02*
X008674Y023713D01*
X008328Y023713D01*
X008241Y023626D01*
X008241Y023453D01*
X008328Y023366D01*
X008674Y023366D01*
X008761Y023453D01*
X008761Y023626D01*
X008674Y023713D01*
X008674Y023881D02*
X008588Y023881D01*
X008501Y023968D01*
X008501Y024228D01*
X008328Y024228D02*
X008674Y024228D01*
X008761Y024142D01*
X008761Y023968D01*
X008674Y023881D01*
X008328Y023881D02*
X008241Y023968D01*
X008241Y024142D01*
X008328Y024228D01*
X009741Y023881D02*
X010261Y023881D01*
X010261Y024484D02*
X010348Y024484D01*
X012741Y024765D02*
X012894Y024612D01*
X013048Y024612D01*
X015241Y024657D02*
X015241Y024484D01*
X015328Y024397D01*
X015501Y024484D02*
X015501Y024657D01*
X015414Y024744D01*
X015328Y024744D01*
X015241Y024657D01*
X015241Y024913D02*
X015241Y025173D01*
X015328Y025260D01*
X015674Y025260D01*
X015761Y025173D01*
X015761Y024913D01*
X015241Y024913D01*
X015674Y024744D02*
X015761Y024657D01*
X015761Y024484D01*
X015674Y024397D01*
X015588Y024397D01*
X015501Y024484D01*
X015588Y023713D02*
X015588Y023453D01*
X015501Y023366D01*
X015328Y023366D01*
X015241Y023453D01*
X015241Y023713D01*
X015761Y023713D01*
X015501Y023197D02*
X015241Y023197D01*
X015501Y023197D02*
X015588Y023110D01*
X015588Y022850D01*
X015241Y022850D01*
X015241Y022681D02*
X015241Y022421D01*
X015328Y022335D01*
X015414Y022421D01*
X015414Y022681D01*
X015501Y022681D02*
X015241Y022681D01*
X015501Y022681D02*
X015588Y022595D01*
X015588Y022421D01*
X015414Y021650D02*
X015761Y021650D01*
X015761Y021303D02*
X015414Y021303D01*
X015241Y021477D01*
X015414Y021650D01*
X015241Y021135D02*
X015761Y020788D01*
X015501Y020619D02*
X015501Y020272D01*
X015241Y020103D02*
X015761Y020103D01*
X015761Y019756D02*
X015241Y019756D01*
X015241Y019588D02*
X015414Y019414D01*
X015414Y019501D02*
X015414Y019241D01*
X015241Y019241D02*
X015761Y019241D01*
X015761Y019501D01*
X015674Y019588D01*
X015501Y019588D01*
X015414Y019501D01*
X015761Y019756D02*
X015241Y020103D01*
X015241Y020788D02*
X015761Y021135D01*
X014201Y021082D02*
X014124Y021005D01*
X014201Y021082D02*
X014201Y021236D01*
X014124Y021312D01*
X014048Y021312D01*
X013971Y021236D01*
X013894Y021312D01*
X013817Y021312D01*
X013741Y021236D01*
X013741Y021082D01*
X013817Y021005D01*
X013971Y021159D02*
X013971Y021236D01*
X013894Y021466D02*
X013741Y021619D01*
X013894Y021773D01*
X014201Y021773D01*
X014124Y021926D02*
X014201Y022003D01*
X014201Y022156D01*
X014124Y022233D01*
X014048Y022233D01*
X013971Y022156D01*
X013894Y022233D01*
X013817Y022233D01*
X013741Y022156D01*
X013741Y022003D01*
X013817Y021926D01*
X013971Y022080D02*
X013971Y022156D01*
X013894Y021466D02*
X014201Y021466D01*
X014048Y020392D02*
X014048Y020315D01*
X013894Y020161D01*
X013741Y020161D02*
X014048Y020161D01*
X013971Y020008D02*
X014048Y019931D01*
X014048Y019778D01*
X013971Y019701D01*
X013817Y019701D01*
X013741Y019778D01*
X013741Y019931D01*
X013817Y020008D01*
X013971Y020008D01*
X014201Y019548D02*
X014201Y019241D01*
X013741Y019241D01*
X013971Y019241D02*
X013971Y019394D01*
X009654Y020272D02*
X009654Y020619D01*
X006701Y020661D02*
X006241Y020968D01*
X006701Y020968D01*
X006701Y020661D02*
X006241Y020661D01*
X006241Y020201D02*
X006701Y020508D01*
X006624Y020048D02*
X006701Y019971D01*
X006701Y019817D01*
X006624Y019741D01*
X006548Y019741D01*
X006471Y019817D01*
X006471Y019971D01*
X006394Y020048D01*
X006317Y020048D01*
X006241Y019971D01*
X006241Y019817D01*
X006317Y019741D01*
D12*
X006471Y024971D03*
M02*
