G75*
G70*
%OFA0B0*%
%FSLAX24Y24*%
%IPPOS*%
%LPD*%
%AMOC8*
5,1,8,0,0,1.08239X$1,22.5*
%
%ADD10C,0.0000*%
%ADD11R,0.0260X0.0800*%
%ADD12C,0.0740*%
%ADD13R,0.0740X0.0740*%
%ADD14R,0.0709X0.0710*%
%ADD15R,0.0710X0.0709*%
%ADD16R,0.0614X0.0413*%
%ADD17R,0.0614X0.0354*%
%ADD18R,0.0433X0.0531*%
%ADD19R,0.0748X0.0748*%
%ADD20R,0.0433X0.0630*%
%ADD21R,0.0630X0.0630*%
%ADD22C,0.0600*%
%ADD23C,0.2300*%
%ADD24R,0.0787X0.0591*%
%ADD25R,0.0787X0.1496*%
%ADD26OC8,0.0640*%
%ADD27OC8,0.0600*%
%ADD28R,0.0650X0.0650*%
%ADD29C,0.0650*%
%ADD30C,0.0120*%
%ADD31C,0.0440*%
%ADD32C,0.0240*%
%ADD33C,0.0476*%
D10*
X005721Y015221D02*
X025721Y015221D01*
X025765Y015219D01*
X025808Y015213D01*
X025850Y015204D01*
X025892Y015191D01*
X025932Y015174D01*
X025971Y015154D01*
X026008Y015131D01*
X026042Y015104D01*
X026075Y015075D01*
X026104Y015042D01*
X026131Y015008D01*
X026154Y014971D01*
X026174Y014932D01*
X026191Y014892D01*
X026204Y014850D01*
X026213Y014808D01*
X026219Y014765D01*
X026221Y014721D01*
X026221Y005721D01*
X026223Y005677D01*
X026229Y005634D01*
X026238Y005592D01*
X026251Y005550D01*
X026268Y005510D01*
X026288Y005471D01*
X026311Y005434D01*
X026338Y005400D01*
X026367Y005367D01*
X026400Y005338D01*
X026434Y005311D01*
X026471Y005288D01*
X026510Y005268D01*
X026550Y005251D01*
X026592Y005238D01*
X026634Y005229D01*
X026677Y005223D01*
X026721Y005221D01*
X042471Y005221D01*
X042554Y005223D01*
X042637Y005229D01*
X042720Y005239D01*
X042802Y005253D01*
X042884Y005270D01*
X042964Y005292D01*
X043043Y005317D01*
X043121Y005346D01*
X043198Y005379D01*
X043273Y005416D01*
X043346Y005455D01*
X043417Y005499D01*
X043486Y005545D01*
X043553Y005595D01*
X043617Y005648D01*
X043679Y005704D01*
X043738Y005763D01*
X043794Y005825D01*
X043847Y005889D01*
X043897Y005956D01*
X043943Y006025D01*
X043987Y006096D01*
X044026Y006169D01*
X044063Y006244D01*
X044096Y006321D01*
X044125Y006399D01*
X044150Y006478D01*
X044172Y006558D01*
X044189Y006640D01*
X044203Y006722D01*
X044213Y006805D01*
X044219Y006888D01*
X044221Y006971D01*
X044221Y034471D01*
X044219Y034554D01*
X044213Y034637D01*
X044203Y034720D01*
X044189Y034802D01*
X044172Y034884D01*
X044150Y034964D01*
X044125Y035043D01*
X044096Y035121D01*
X044063Y035198D01*
X044026Y035273D01*
X043987Y035346D01*
X043943Y035417D01*
X043897Y035486D01*
X043847Y035553D01*
X043794Y035617D01*
X043738Y035679D01*
X043679Y035738D01*
X043617Y035794D01*
X043553Y035847D01*
X043486Y035897D01*
X043417Y035943D01*
X043346Y035987D01*
X043273Y036026D01*
X043198Y036063D01*
X043121Y036096D01*
X043043Y036125D01*
X042964Y036150D01*
X042884Y036172D01*
X042802Y036189D01*
X042720Y036203D01*
X042637Y036213D01*
X042554Y036219D01*
X042471Y036221D01*
X006971Y036221D01*
X006888Y036219D01*
X006805Y036213D01*
X006722Y036203D01*
X006640Y036189D01*
X006558Y036172D01*
X006478Y036150D01*
X006399Y036125D01*
X006321Y036096D01*
X006244Y036063D01*
X006169Y036026D01*
X006096Y035987D01*
X006025Y035943D01*
X005956Y035897D01*
X005889Y035847D01*
X005825Y035794D01*
X005763Y035738D01*
X005704Y035679D01*
X005648Y035617D01*
X005595Y035553D01*
X005545Y035486D01*
X005499Y035417D01*
X005455Y035346D01*
X005416Y035273D01*
X005379Y035198D01*
X005346Y035121D01*
X005317Y035043D01*
X005292Y034964D01*
X005270Y034884D01*
X005253Y034802D01*
X005239Y034720D01*
X005229Y034637D01*
X005223Y034554D01*
X005221Y034471D01*
X005221Y015721D01*
X005223Y015677D01*
X005229Y015634D01*
X005238Y015592D01*
X005251Y015550D01*
X005268Y015510D01*
X005288Y015471D01*
X005311Y015434D01*
X005338Y015400D01*
X005367Y015367D01*
X005400Y015338D01*
X005434Y015311D01*
X005471Y015288D01*
X005510Y015268D01*
X005550Y015251D01*
X005592Y015238D01*
X005634Y015229D01*
X005677Y015223D01*
X005721Y015221D01*
X007130Y020207D02*
X007132Y020238D01*
X007138Y020269D01*
X007147Y020299D01*
X007160Y020328D01*
X007177Y020355D01*
X007197Y020379D01*
X007219Y020401D01*
X007245Y020420D01*
X007272Y020436D01*
X007301Y020448D01*
X007331Y020457D01*
X007362Y020462D01*
X007394Y020463D01*
X007425Y020460D01*
X007456Y020453D01*
X007486Y020443D01*
X007514Y020429D01*
X007540Y020411D01*
X007564Y020391D01*
X007585Y020367D01*
X007604Y020342D01*
X007619Y020314D01*
X007630Y020285D01*
X007638Y020254D01*
X007642Y020223D01*
X007642Y020191D01*
X007638Y020160D01*
X007630Y020129D01*
X007619Y020100D01*
X007604Y020072D01*
X007585Y020047D01*
X007564Y020023D01*
X007540Y020003D01*
X007514Y019985D01*
X007486Y019971D01*
X007456Y019961D01*
X007425Y019954D01*
X007394Y019951D01*
X007362Y019952D01*
X007331Y019957D01*
X007301Y019966D01*
X007272Y019978D01*
X007245Y019994D01*
X007219Y020013D01*
X007197Y020035D01*
X007177Y020059D01*
X007160Y020086D01*
X007147Y020115D01*
X007138Y020145D01*
X007132Y020176D01*
X007130Y020207D01*
X007032Y029735D02*
X007034Y029772D01*
X007040Y029809D01*
X007049Y029844D01*
X007063Y029879D01*
X007079Y029912D01*
X007100Y029943D01*
X007123Y029972D01*
X007149Y029998D01*
X007178Y030021D01*
X007209Y030042D01*
X007242Y030058D01*
X007277Y030072D01*
X007312Y030081D01*
X007349Y030087D01*
X007386Y030089D01*
X007423Y030087D01*
X007460Y030081D01*
X007495Y030072D01*
X007530Y030058D01*
X007563Y030042D01*
X007594Y030021D01*
X007623Y029998D01*
X007649Y029972D01*
X007672Y029943D01*
X007693Y029912D01*
X007709Y029879D01*
X007723Y029844D01*
X007732Y029809D01*
X007738Y029772D01*
X007740Y029735D01*
X007738Y029698D01*
X007732Y029661D01*
X007723Y029626D01*
X007709Y029591D01*
X007693Y029558D01*
X007672Y029527D01*
X007649Y029498D01*
X007623Y029472D01*
X007594Y029449D01*
X007563Y029428D01*
X007530Y029412D01*
X007495Y029398D01*
X007460Y029389D01*
X007423Y029383D01*
X007386Y029381D01*
X007349Y029383D01*
X007312Y029389D01*
X007277Y029398D01*
X007242Y029412D01*
X007209Y029428D01*
X007178Y029449D01*
X007149Y029472D01*
X007123Y029498D01*
X007100Y029527D01*
X007079Y029558D01*
X007063Y029591D01*
X007049Y029626D01*
X007040Y029661D01*
X007034Y029698D01*
X007032Y029735D01*
D11*
X020471Y030201D03*
X020971Y030201D03*
X021471Y030201D03*
X021971Y030201D03*
X022471Y030201D03*
X022971Y030201D03*
X023471Y030201D03*
X023971Y030201D03*
X024471Y030201D03*
X024971Y030201D03*
X024971Y026241D03*
X024471Y026241D03*
X023971Y026241D03*
X023471Y026241D03*
X022971Y026241D03*
X022471Y026241D03*
X021971Y026241D03*
X021471Y026241D03*
X020971Y026241D03*
X020471Y026241D03*
X022221Y022931D03*
X022721Y022931D03*
X023221Y022931D03*
X023721Y022931D03*
X024221Y022931D03*
X024721Y022931D03*
X025221Y022931D03*
X025221Y020511D03*
X024721Y020511D03*
X024221Y020511D03*
X023721Y020511D03*
X023221Y020511D03*
X022721Y020511D03*
X022221Y020511D03*
X035721Y020431D03*
X036221Y020431D03*
X036721Y020431D03*
X037221Y020431D03*
X037721Y020431D03*
X038221Y020431D03*
X038721Y020431D03*
X038721Y018011D03*
X038221Y018011D03*
X037721Y018011D03*
X037221Y018011D03*
X036721Y018011D03*
X036221Y018011D03*
X035721Y018011D03*
D12*
X036221Y016221D03*
X037221Y016221D03*
X038221Y016221D03*
X039221Y016221D03*
X040221Y016221D03*
X041221Y016221D03*
X037721Y014721D03*
X036721Y014721D03*
X035721Y014721D03*
X034721Y014721D03*
X033721Y014721D03*
X032721Y014721D03*
X032221Y016221D03*
X031221Y016221D03*
X030221Y016221D03*
X029221Y016221D03*
X028221Y016221D03*
X027221Y016221D03*
X026221Y016221D03*
X025221Y016221D03*
X026221Y017721D03*
X026221Y018721D03*
X023221Y018221D03*
X022221Y018221D03*
X021221Y018221D03*
X019221Y018221D03*
X018221Y018221D03*
X017221Y018221D03*
X018221Y016221D03*
X019221Y016221D03*
X020221Y016221D03*
X021221Y016221D03*
X022221Y016221D03*
X023221Y016221D03*
X027721Y012721D03*
X028221Y011971D03*
X028721Y012721D03*
X028721Y010221D03*
X028221Y009471D03*
X027721Y010221D03*
X028221Y007721D03*
X028221Y006721D03*
X032721Y005721D03*
X033721Y005721D03*
X034721Y005721D03*
X035721Y005721D03*
X036721Y005721D03*
X037721Y005721D03*
X038721Y005721D03*
X035221Y016221D03*
X034221Y016221D03*
X031221Y022721D03*
X030221Y022721D03*
X029221Y022721D03*
X030221Y025221D03*
X030221Y026221D03*
X031221Y026221D03*
X031221Y025221D03*
X031221Y027221D03*
X033721Y032221D03*
X033721Y033221D03*
X034971Y033221D03*
X034971Y032221D03*
X035221Y035221D03*
X036221Y035221D03*
X037221Y035221D03*
X038221Y035221D03*
X039221Y035221D03*
X034221Y035221D03*
X033221Y035221D03*
X032221Y035221D03*
X030221Y035221D03*
X029221Y035221D03*
X028221Y035221D03*
X027221Y035221D03*
X026221Y035221D03*
X025221Y035221D03*
X024221Y035221D03*
X023221Y035221D03*
X021621Y035221D03*
X020621Y035221D03*
X019621Y035221D03*
X018621Y035221D03*
X017621Y035221D03*
X016621Y035221D03*
X015621Y035221D03*
X014621Y035221D03*
X016471Y033221D03*
X016471Y032221D03*
X017721Y032221D03*
X018971Y032221D03*
X018971Y033221D03*
X017721Y033221D03*
X020471Y033221D03*
X020471Y032221D03*
X021721Y032221D03*
X021721Y033221D03*
X025471Y033221D03*
X025471Y032221D03*
X011721Y032221D03*
X010721Y032221D03*
X009721Y032221D03*
X008721Y032221D03*
X007721Y032221D03*
X006721Y032221D03*
D13*
X012721Y032221D03*
X030221Y027221D03*
X038721Y014721D03*
D14*
X038311Y007471D03*
X037131Y007471D03*
X030811Y006721D03*
X029631Y006721D03*
X025811Y024221D03*
X024631Y024221D03*
X022811Y024221D03*
X021631Y024221D03*
X042381Y031971D03*
X043561Y031971D03*
D15*
X034221Y019811D03*
X034221Y018631D03*
X027221Y028131D03*
X027221Y029311D03*
X024221Y031881D03*
X023221Y031881D03*
X023221Y033061D03*
X024221Y033061D03*
X019221Y028811D03*
X019221Y027631D03*
X018721Y025311D03*
X018721Y024131D03*
X020721Y022311D03*
X020721Y021131D03*
X015721Y017311D03*
X015721Y016131D03*
X014471Y016131D03*
X014471Y017311D03*
D16*
X016981Y021321D03*
X016981Y022305D03*
X016981Y023290D03*
X016981Y024274D03*
X016981Y025258D03*
X016981Y026242D03*
X016981Y027227D03*
D17*
X016981Y028179D03*
X016981Y028849D03*
D18*
X016890Y029746D03*
D19*
X015024Y030825D03*
X015024Y019164D03*
X008941Y019164D03*
D20*
X012898Y030699D03*
D21*
X009091Y030719D03*
D22*
X036008Y030551D03*
X036796Y030551D03*
X037583Y030551D03*
X038370Y030551D03*
X039158Y030551D03*
X039945Y030551D03*
X040733Y030551D03*
X041520Y030551D03*
X042307Y030551D03*
X043095Y030551D03*
X043095Y021890D03*
X042307Y021890D03*
X041520Y021890D03*
X040733Y021890D03*
X039945Y021890D03*
X039158Y021890D03*
X038370Y021890D03*
X037583Y021890D03*
X036796Y021890D03*
X036008Y021890D03*
D23*
X042471Y034471D03*
X042471Y006971D03*
X006971Y034471D03*
D24*
X012711Y017876D03*
X012711Y016971D03*
X012711Y016065D03*
D25*
X010231Y016971D03*
D26*
X026721Y031221D03*
X026721Y032221D03*
X027721Y032221D03*
X028721Y032221D03*
X029721Y032221D03*
X030721Y032221D03*
X031721Y032221D03*
X031721Y031221D03*
X030721Y031221D03*
X029721Y031221D03*
X028721Y031221D03*
X027721Y031221D03*
X027721Y033221D03*
X028721Y033221D03*
X029721Y033221D03*
X030721Y033221D03*
X031721Y033221D03*
X026721Y033221D03*
D27*
X033721Y011221D03*
X034721Y011221D03*
X035721Y011221D03*
X036721Y011221D03*
X037721Y011221D03*
X037721Y010221D03*
X036721Y010221D03*
X035721Y010221D03*
X034721Y010221D03*
X033721Y010221D03*
D28*
X039971Y031971D03*
X010721Y034221D03*
D29*
X009721Y034221D03*
X039971Y032971D03*
D30*
X039158Y030551D02*
X038971Y030471D01*
X038971Y029971D01*
X038221Y029221D01*
X034971Y032221D02*
X034721Y031971D01*
X034721Y021471D01*
X034971Y021221D01*
X036721Y021721D02*
X036721Y020431D01*
X037221Y020431D02*
X037221Y021221D01*
X037721Y021721D02*
X037583Y021890D01*
X037721Y021721D02*
X038221Y021221D01*
X038221Y020431D01*
X038721Y020431D02*
X038721Y021221D01*
X039221Y021721D02*
X039158Y021890D01*
X039221Y021721D02*
X039221Y019721D01*
X038721Y019721D01*
X037721Y018721D01*
X037721Y018011D01*
X038221Y018011D02*
X038221Y017721D01*
X038721Y017221D01*
X040971Y017221D01*
X040971Y018971D01*
X041471Y018471D02*
X043721Y020721D01*
X043721Y029221D01*
X042471Y030471D01*
X042307Y030551D01*
X037221Y035221D02*
X035721Y033721D01*
X034971Y033221D02*
X033221Y034971D01*
X033221Y035221D01*
X032221Y035221D02*
X032221Y034721D01*
X033721Y033221D01*
X033721Y032221D02*
X032221Y032221D01*
X032221Y031971D01*
X031971Y031721D01*
X027221Y031721D01*
X027221Y029471D01*
X027221Y029311D01*
X027221Y029471D02*
X023971Y029471D01*
X023971Y030201D01*
X024471Y030201D02*
X024471Y030721D01*
X024721Y030971D01*
X024221Y031221D02*
X024221Y031881D01*
X024221Y031971D01*
X025471Y031971D01*
X025471Y032221D01*
X026221Y032721D02*
X026721Y033221D01*
X027221Y032721D02*
X027221Y035221D01*
X028221Y035221D02*
X028221Y033721D01*
X027721Y033221D02*
X028721Y033221D01*
X029221Y032721D02*
X029221Y035221D01*
X030221Y035221D02*
X030221Y033721D01*
X029721Y033221D02*
X030721Y033221D01*
X031221Y032721D02*
X031221Y035221D01*
X031971Y035971D01*
X036221Y035971D01*
X036221Y035221D01*
X031221Y032721D02*
X030721Y032221D01*
X030721Y031221D02*
X029721Y031221D01*
X028721Y031221D01*
X027721Y031221D01*
X028721Y032221D02*
X029221Y032721D01*
X030721Y031221D02*
X031721Y031221D01*
X033221Y029721D01*
X033221Y016971D01*
X035971Y016971D01*
X036721Y017721D01*
X036721Y018011D01*
X036221Y018011D02*
X036221Y017721D01*
X035721Y017221D01*
X035221Y017221D01*
X035221Y018221D01*
X034221Y016221D02*
X034721Y015721D01*
X034721Y014721D01*
X034221Y014221D01*
X034221Y010721D01*
X034721Y010221D01*
X035221Y010721D02*
X035221Y014221D01*
X035721Y014721D01*
X036221Y014221D02*
X036721Y014721D01*
X037221Y014221D02*
X037721Y014721D01*
X037221Y014221D02*
X037221Y010721D01*
X037721Y010221D01*
X037721Y011221D02*
X038721Y012221D01*
X038721Y014721D01*
X036221Y014221D02*
X036221Y010721D01*
X036721Y010221D01*
X035721Y010221D02*
X035221Y010721D01*
X033721Y010221D02*
X033221Y010721D01*
X033221Y014221D01*
X033721Y014721D01*
X031221Y016221D02*
X031221Y022721D01*
X030721Y022221D02*
X030721Y018721D01*
X030471Y018471D01*
X026971Y018471D01*
X026971Y025971D01*
X026221Y026721D01*
X025471Y026721D01*
X025471Y024971D01*
X024721Y024221D01*
X024631Y024221D01*
X024471Y024221D01*
X023971Y024721D01*
X023971Y026241D01*
X024471Y026241D02*
X024471Y025721D01*
X024971Y025221D01*
X026471Y025221D02*
X026471Y022971D01*
X025971Y022971D01*
X026471Y022971D02*
X026471Y020971D01*
X025471Y019971D01*
X025471Y017971D01*
X024471Y016971D01*
X026221Y016221D02*
X026221Y017721D01*
X028221Y016221D02*
X028221Y013221D01*
X028721Y012721D01*
X027721Y010221D02*
X027471Y009971D01*
X027471Y008471D01*
X028221Y007721D01*
X028221Y006721D02*
X029631Y006721D01*
X030221Y018971D02*
X028471Y020721D01*
X028471Y024471D01*
X030221Y026221D01*
X031221Y026221D02*
X032471Y024971D01*
X032471Y019971D01*
X032721Y019721D01*
X030721Y022221D02*
X030221Y022721D01*
X028221Y020471D02*
X028221Y025221D01*
X030221Y027221D01*
X031221Y026221D02*
X031971Y026971D01*
X031971Y029471D01*
X027221Y032721D02*
X026721Y032221D01*
X026221Y032721D02*
X026221Y031471D01*
X024971Y030221D01*
X024971Y030201D01*
X024221Y031221D02*
X023471Y031221D01*
X022971Y030721D01*
X022971Y030201D01*
X023471Y030201D02*
X023471Y028471D01*
X022471Y028471D02*
X022471Y026241D01*
X022971Y026241D02*
X022971Y024221D01*
X022811Y024221D01*
X022971Y024221D02*
X023721Y024221D01*
X023471Y025221D02*
X023471Y026241D01*
X021971Y026241D02*
X021971Y025471D01*
X021471Y026241D02*
X021471Y027221D01*
X020971Y027471D02*
X020971Y026241D01*
X020971Y027471D02*
X021471Y027971D01*
X021471Y028971D01*
X022471Y029221D02*
X022471Y030201D01*
X021471Y030201D02*
X021471Y030971D01*
X019971Y029971D02*
X018971Y030971D01*
X018971Y032221D01*
X017971Y031971D02*
X017971Y027721D01*
X016981Y028179D02*
X016971Y028221D01*
X016471Y028221D01*
X016471Y031471D01*
X015721Y031471D02*
X016471Y032221D01*
X015721Y031471D02*
X015721Y026221D01*
X016221Y025721D01*
X016221Y026221D02*
X016221Y026471D01*
X016221Y026221D02*
X016971Y026221D01*
X016981Y026242D01*
X017221Y026221D01*
X018971Y026221D01*
X019971Y027221D01*
X016971Y023471D02*
X016981Y023290D01*
X016971Y023471D02*
X013721Y026721D01*
X013721Y033721D01*
X013471Y033971D01*
X011721Y033971D01*
X011721Y032221D01*
X012721Y032221D02*
X012721Y032971D01*
X013221Y033471D01*
X012721Y032221D02*
X013471Y031471D01*
X013471Y025971D01*
X016971Y022471D01*
X016981Y022305D01*
X017221Y022221D01*
X017721Y021721D01*
X021971Y021721D02*
X021971Y020971D01*
X022221Y020721D01*
X022221Y020511D01*
X022721Y020511D02*
X022721Y021721D01*
X023221Y020511D02*
X023221Y019721D01*
X027471Y019721D02*
X028221Y020471D01*
X036721Y021721D02*
X036796Y021890D01*
X025471Y033221D02*
X025221Y033471D01*
X025221Y035221D01*
X021721Y035221D02*
X021721Y033221D01*
X020471Y033221D02*
X020471Y035221D01*
X020621Y035221D01*
X021621Y035221D02*
X021721Y035221D01*
X018721Y035221D02*
X018721Y033471D01*
X018971Y033221D01*
X017721Y033221D02*
X017721Y035221D01*
X017621Y035221D01*
X018621Y035221D02*
X018721Y035221D01*
X016621Y035221D02*
X016471Y035221D01*
X016471Y033221D01*
X017721Y032221D02*
X017971Y031971D01*
D31*
X016471Y031471D03*
X018471Y028721D03*
X017971Y027721D03*
X016221Y026471D03*
X016221Y025721D03*
X019971Y027221D03*
X021471Y027221D03*
X022471Y028471D03*
X022471Y029221D03*
X021471Y028971D03*
X019971Y029971D03*
X021471Y030971D03*
X023471Y028471D03*
X024721Y030971D03*
X028221Y033721D03*
X030221Y033721D03*
X031971Y029471D03*
X033721Y025721D03*
X035221Y025221D03*
X034971Y021221D03*
X033721Y021221D03*
X032721Y019721D03*
X030221Y018971D03*
X027471Y019721D03*
X024471Y016971D03*
X023221Y019721D03*
X021471Y021221D03*
X021971Y021721D03*
X022721Y021721D03*
X023721Y024221D03*
X023471Y025221D03*
X024971Y025221D03*
X025971Y026221D03*
X026471Y025221D03*
X027721Y024721D03*
X025971Y022971D03*
X021971Y025471D03*
X017721Y021721D03*
X019971Y017971D03*
X013721Y016221D03*
X013221Y033471D03*
X035221Y018221D03*
X037721Y019471D03*
X038721Y018971D03*
X040971Y018971D03*
X041471Y018471D03*
X038721Y021221D03*
X037221Y021221D03*
X038221Y029221D03*
X035721Y033721D03*
D32*
X038221Y032971D02*
X039971Y032971D01*
X042471Y032971D01*
X042471Y034471D01*
X042471Y032971D02*
X043471Y031971D01*
X043561Y031971D01*
X042971Y031471D02*
X042971Y030721D01*
X043095Y030551D01*
X042971Y031471D02*
X042471Y031971D01*
X042381Y031971D01*
X039971Y031971D01*
X038221Y032971D02*
X036221Y030971D01*
X036221Y030721D01*
X036008Y030551D01*
X035971Y030471D01*
X035221Y029721D01*
X035221Y025221D01*
X039721Y025221D01*
X035221Y025221D02*
X035221Y021721D01*
X035721Y021221D01*
X035971Y021221D01*
X036221Y020971D01*
X036221Y020431D01*
X036221Y019471D01*
X036721Y018971D01*
X037471Y019721D01*
X037721Y019471D01*
X037471Y019721D02*
X037721Y019971D01*
X037721Y020431D01*
X036221Y019471D02*
X036221Y019221D01*
X035721Y018721D01*
X035721Y018011D01*
X035721Y018721D02*
X034221Y018721D01*
X034221Y018631D01*
X034221Y019811D02*
X034221Y019971D01*
X033721Y020471D01*
X033721Y021221D01*
X033721Y025721D01*
X031971Y024471D02*
X031971Y017471D01*
X032971Y016471D01*
X032971Y014971D01*
X032721Y014721D01*
X032721Y009471D01*
X038221Y009471D01*
X038221Y007471D01*
X038311Y007471D01*
X038471Y007471D01*
X038721Y007221D01*
X038721Y006971D01*
X042471Y006971D01*
X038721Y006971D02*
X038721Y005721D01*
X036971Y006721D02*
X036971Y007471D01*
X037131Y007471D01*
X036971Y006721D02*
X036721Y006721D01*
X036721Y005721D01*
X036721Y006721D02*
X030811Y006721D01*
X028721Y010221D02*
X027471Y011471D01*
X027471Y012471D01*
X027721Y012721D01*
X027721Y015471D01*
X024971Y015471D01*
X024471Y015971D01*
X023971Y015971D01*
X023471Y015471D01*
X022221Y015471D01*
X022221Y016221D01*
X021221Y016221D01*
X020971Y016471D01*
X020971Y015471D01*
X012221Y015471D01*
X011971Y015721D01*
X011971Y016471D01*
X012471Y016971D01*
X012711Y016971D01*
X014471Y016971D01*
X014471Y017311D01*
X014471Y017471D01*
X014971Y017471D01*
X014971Y018971D01*
X015024Y019164D01*
X014721Y019971D02*
X017221Y019971D01*
X017221Y018221D01*
X017721Y018721D02*
X017721Y020221D01*
X017221Y020721D01*
X010721Y020721D01*
X010721Y032221D01*
X010721Y034221D01*
X010721Y034471D01*
X013471Y034471D01*
X014221Y033721D01*
X014221Y027221D01*
X015721Y025721D01*
X015721Y025221D01*
X016971Y025221D01*
X016981Y025258D01*
X017221Y025221D01*
X018721Y025221D01*
X018721Y025311D01*
X019471Y025221D02*
X019471Y022471D01*
X019471Y021221D01*
X020471Y021221D01*
X020721Y021131D01*
X020721Y021221D01*
X020471Y021221D01*
X020471Y016971D01*
X020971Y016471D01*
X020221Y016221D02*
X019971Y016471D01*
X019971Y017971D01*
X019221Y018221D02*
X019221Y016221D01*
X017471Y016221D02*
X017471Y017471D01*
X018221Y018221D01*
X017721Y018721D01*
X015721Y017471D02*
X015721Y017311D01*
X015721Y017471D02*
X014971Y017471D01*
X014471Y016221D02*
X013721Y016221D01*
X012721Y016221D01*
X012711Y016065D01*
X012471Y016971D02*
X010231Y016971D01*
X008721Y016971D01*
X008721Y016721D01*
X008221Y016721D01*
X008221Y017721D01*
X009221Y017721D01*
X009221Y018221D01*
X009363Y018550D02*
X009451Y018586D01*
X009519Y018654D01*
X009555Y018742D01*
X009555Y019221D01*
X011471Y019221D01*
X011471Y015441D01*
X005721Y015441D01*
X005666Y015446D01*
X005565Y015488D01*
X005488Y015565D01*
X005446Y015666D01*
X005441Y015721D01*
X005441Y015812D01*
X005441Y019221D01*
X008327Y019221D01*
X008327Y018742D01*
X008364Y018654D01*
X008431Y018586D01*
X008519Y018550D01*
X009363Y018550D01*
X009434Y018579D02*
X011471Y018579D01*
X011471Y018341D02*
X005441Y018341D01*
X005441Y018579D02*
X008448Y018579D01*
X008327Y018818D02*
X005441Y018818D01*
X005441Y019056D02*
X008327Y019056D01*
X008221Y019221D02*
X008221Y031721D01*
X008721Y032221D01*
X008721Y033221D01*
X009721Y034221D01*
X009721Y035971D01*
X015721Y035971D01*
X015721Y035221D01*
X015621Y035221D01*
X015721Y035971D02*
X021971Y035971D01*
X022471Y035471D01*
X022471Y033971D01*
X023221Y033221D01*
X023221Y033061D01*
X023221Y033221D02*
X024221Y033221D01*
X024221Y033061D01*
X023221Y031881D02*
X023221Y031721D01*
X022221Y031471D01*
X021221Y031471D01*
X020471Y032221D01*
X022221Y031471D02*
X022221Y030971D01*
X021971Y030721D01*
X021971Y030201D01*
X020971Y030201D02*
X020971Y027971D01*
X020721Y027721D01*
X019221Y027721D01*
X019221Y027631D01*
X019221Y027221D01*
X017221Y027221D01*
X016981Y027227D01*
X018471Y028721D02*
X019221Y028721D01*
X019221Y028811D01*
X019221Y028971D01*
X020471Y028971D01*
X020471Y030201D01*
X020721Y027721D02*
X020471Y027471D01*
X020471Y026241D01*
X020471Y026221D01*
X019471Y025221D01*
X018721Y024221D02*
X018721Y024131D01*
X018721Y023221D01*
X019471Y022471D01*
X020721Y022471D02*
X020721Y022311D01*
X020721Y022471D02*
X021471Y022471D01*
X021471Y021221D01*
X021471Y018471D01*
X021221Y018221D01*
X023221Y018221D02*
X023221Y016221D01*
X023971Y015971D02*
X023971Y020221D01*
X023721Y020471D01*
X023721Y020511D01*
X023721Y020721D01*
X024221Y020721D01*
X024221Y020511D01*
X024221Y020721D02*
X024221Y021471D01*
X023221Y022471D01*
X023221Y022931D01*
X023221Y022971D01*
X022721Y022971D01*
X022721Y022931D01*
X022221Y022931D02*
X022221Y022471D01*
X021471Y022471D01*
X021721Y023221D02*
X022221Y023221D01*
X022221Y022931D01*
X021721Y023221D02*
X021721Y024221D01*
X021631Y024221D01*
X018721Y024221D02*
X017221Y024221D01*
X016981Y024274D01*
X014721Y019971D02*
X012721Y017971D01*
X012711Y017876D01*
X011471Y017864D02*
X005441Y017864D01*
X005441Y018102D02*
X011471Y018102D01*
X011471Y017625D02*
X005441Y017625D01*
X005441Y017386D02*
X011471Y017386D01*
X011471Y017148D02*
X005441Y017148D01*
X005441Y016909D02*
X011471Y016909D01*
X011471Y016671D02*
X005441Y016671D01*
X005441Y016432D02*
X011471Y016432D01*
X011471Y016194D02*
X005441Y016194D01*
X005441Y015955D02*
X011471Y015955D01*
X011471Y015717D02*
X005441Y015717D01*
X005589Y015478D02*
X011471Y015478D01*
X009221Y015721D02*
X008221Y015721D01*
X007221Y015721D01*
X006221Y015721D01*
X006221Y016721D01*
X005721Y016721D01*
X006221Y016721D02*
X006721Y016721D01*
X007721Y016721D01*
X008221Y016721D01*
X008221Y017721D02*
X007721Y017721D01*
X007721Y018721D01*
X008221Y019221D01*
X007721Y018721D02*
X006721Y018721D01*
X005721Y018721D01*
X006221Y017721D02*
X007221Y017721D01*
X007721Y017721D01*
X009555Y018818D02*
X011471Y018818D01*
X011471Y019056D02*
X009555Y019056D01*
X014471Y016221D02*
X014471Y016131D01*
X015721Y016131D02*
X015721Y016221D01*
X017471Y016221D01*
X024221Y021471D02*
X024221Y022931D01*
X024221Y022971D01*
X024721Y022971D01*
X024721Y022931D01*
X024721Y022471D01*
X025221Y021971D01*
X025221Y020511D01*
X025811Y024221D02*
X025971Y024221D01*
X025971Y026221D01*
X024971Y026241D02*
X024971Y027971D01*
X027221Y027971D01*
X027221Y028131D01*
X027221Y027971D02*
X027721Y027471D01*
X027721Y024721D01*
X031221Y025221D02*
X031971Y024471D01*
X035721Y020431D02*
X035721Y019971D01*
X034221Y019971D01*
X036721Y018971D02*
X037221Y018471D01*
X037221Y018011D01*
X038721Y018011D02*
X038721Y018971D01*
D33*
X039721Y025221D03*
X009221Y018221D03*
X008221Y017721D03*
X007221Y017721D03*
X006221Y017721D03*
X006721Y016721D03*
X007721Y016721D03*
X008721Y016721D03*
X009221Y015721D03*
X008221Y015721D03*
X007221Y015721D03*
X006221Y015721D03*
X005721Y016721D03*
X005721Y018721D03*
X006721Y018721D03*
X007721Y018721D03*
M02*
